<svg width="48" height="48" viewBox="0 0 48 48" fill="none" xmlns="http://www.w3.org/2000/svg">
<circle cx="24" cy="24" r="24" fill="white"/>
<g clip-path="url(#clip0_1_1551)">
<path fill-rule="evenodd" clip-rule="evenodd" d="M23.2038 17.18C23.3191 17.2954 23.3838 17.4518 23.3838 17.6149C23.3838 17.7779 23.3191 17.9344 23.2038 18.0498L18.1 23.1535H31.3846C31.5478 23.1535 31.7043 23.2184 31.8198 23.3338C31.9352 23.4492 32 23.6057 32 23.7689C32 23.9321 31.9352 24.0887 31.8198 24.2041C31.7043 24.3195 31.5478 24.3843 31.3846 24.3843H18.1L23.2038 29.4881C23.2643 29.5444 23.3128 29.6124 23.3464 29.6879C23.38 29.7633 23.3981 29.8448 23.3996 29.9275C23.401 30.0101 23.3858 30.0922 23.3549 30.1688C23.3239 30.2454 23.2779 30.315 23.2194 30.3735C23.161 30.4319 23.0914 30.478 23.0148 30.5089C22.9381 30.5399 22.856 30.5551 22.7734 30.5536C22.6908 30.5522 22.6093 30.5341 22.5338 30.5005C22.4583 30.4668 22.3904 30.4183 22.334 30.3579L16.18 24.2038C16.0647 24.0884 16 23.932 16 23.7689C16 23.6058 16.0647 23.4494 16.18 23.334L22.334 17.18C22.4494 17.0647 22.6058 17 22.7689 17C22.932 17 23.0884 17.0647 23.2038 17.18Z" fill="#1C2730"/>
</g>
<defs>
<clipPath id="clip0_1_1551">
<rect width="16" height="16" fill="white" transform="translate(16 16)"/>
</clipPath>
</defs>
</svg>
