<svg width="25" height="25" viewBox="0 0 25 25" fill="none" xmlns="http://www.w3.org/2000/svg">
<path d="M16.5179 2.15314H8.13788C4.49788 2.15314 2.32788 4.32314 2.32788 7.96314V16.3331C2.32788 19.9831 4.49788 22.1531 8.13788 22.1531H16.5079C20.1479 22.1531 22.3179 19.9831 22.3179 16.3431V7.96314C22.3279 4.32314 20.1579 2.15314 16.5179 2.15314ZM15.1179 12.6831L11.5879 16.2131C11.4379 16.3631 11.2479 16.4331 11.0579 16.4331C10.8679 16.4331 10.6779 16.3631 10.5279 16.2131C10.2379 15.9231 10.2379 15.4431 10.5279 15.1531L13.5279 12.1531L10.5279 9.15314C10.2379 8.86314 10.2379 8.38314 10.5279 8.09314C10.8179 7.80314 11.2979 7.80314 11.5879 8.09314L15.1179 11.6231C15.4179 11.9131 15.4179 12.3931 15.1179 12.6831Z" fill="#292D32"/>
</svg>
