<svg width="25" height="25" viewBox="0 0 25 25" fill="none" xmlns="http://www.w3.org/2000/svg">
<path d="M12.4728 2.95944C6.96278 2.95944 2.47278 7.44944 2.47278 12.9594C2.47278 18.4694 6.96278 22.9594 12.4728 22.9594C17.9828 22.9594 22.4728 18.4694 22.4728 12.9594C22.4728 7.44944 17.9828 2.95944 12.4728 2.95944ZM15.2628 13.4894L11.7328 17.0194C11.5828 17.1694 11.3928 17.2394 11.2028 17.2394C11.0128 17.2394 10.8228 17.1694 10.6728 17.0194C10.3828 16.7294 10.3828 16.2494 10.6728 15.9594L13.6728 12.9594L10.6728 9.95944C10.3828 9.66944 10.3828 9.18944 10.6728 8.89944C10.9628 8.60944 11.4428 8.60944 11.7328 8.89944L15.2628 12.4294C15.5628 12.7194 15.5628 13.1994 15.2628 13.4894Z" fill="#4D73FF"/>
</svg>
