<svg width="25" height="25" viewBox="0 0 25 25" fill="none" xmlns="http://www.w3.org/2000/svg">
<path d="M16.5179 2.15314H8.13788C4.49788 2.15314 2.32788 4.32314 2.32788 7.96314V16.3331C2.32788 19.9831 4.49788 22.1531 8.13788 22.1531H16.5079C20.1479 22.1531 22.3179 19.9831 22.3179 16.3431V7.96314C22.3279 4.32314 20.1579 2.15314 16.5179 2.15314ZM16.3879 14.1531C16.2379 14.3031 16.0479 14.3731 15.8579 14.3731C15.6679 14.3731 15.4779 14.2931 15.3279 14.1531L12.3279 11.1531L9.32788 14.1531C9.03788 14.4431 8.55788 14.4431 8.26788 14.1531C7.97788 13.8631 7.97788 13.3831 8.26788 13.0931L11.7979 9.56314C12.0879 9.27314 12.5679 9.27314 12.8579 9.56314L16.3879 13.0931C16.6779 13.3831 16.6779 13.8531 16.3879 14.1531Z" fill="#292D32"/>
</svg>
