<svg width="25" height="25" viewBox="0 0 25 25" fill="none" xmlns="http://www.w3.org/2000/svg">
<path d="M17.1428 2.15314H8.76276C5.12276 2.15314 2.95276 4.32314 2.95276 7.96314V16.3331C2.95276 19.9831 5.12276 22.1531 8.76276 22.1531H17.1328C20.7728 22.1531 22.9428 19.9831 22.9428 16.3431V7.96314C22.9528 4.32314 20.7828 2.15314 17.1428 2.15314ZM17.0128 11.3231L13.4828 14.8531C13.3328 15.0031 13.1428 15.0731 12.9528 15.0731C12.7628 15.0731 12.5728 15.0031 12.4228 14.8531L8.89276 11.3231C8.60276 11.0331 8.60276 10.5531 8.89276 10.2631C9.18276 9.97314 9.66276 9.97314 9.95276 10.2631L12.9528 13.2631L15.9528 10.2631C16.2428 9.97314 16.7228 9.97314 17.0128 10.2631C17.3028 10.5531 17.3028 11.0231 17.0128 11.3231Z" fill="#292D32"/>
</svg>
