<svg width="25" height="25" viewBox="0 0 25 25" fill="none" xmlns="http://www.w3.org/2000/svg">
<path d="M16.5428 2.15314H8.16278C4.52278 2.15314 2.35278 4.32314 2.35278 7.96314V16.3331C2.35278 19.9831 4.52278 22.1531 8.16278 22.1531H16.5328C20.1728 22.1531 22.3428 19.9831 22.3428 16.3431V7.96314C22.3528 4.32314 20.1828 2.15314 16.5428 2.15314ZM17.1728 10.9731C16.8828 11.2631 16.4028 11.2631 16.1128 10.9731L13.1028 7.96314V18.1531C13.1028 18.5631 12.7628 18.9031 12.3528 18.9031C11.9428 18.9031 11.6028 18.5631 11.6028 18.1531V7.96314L8.59278 10.9731C8.30278 11.2631 7.82278 11.2631 7.53278 10.9731C7.38278 10.8231 7.31278 10.6331 7.31278 10.4431C7.31278 10.2531 7.39278 10.0531 7.53278 9.91314L11.8228 5.62314C11.9628 5.48314 12.1528 5.40314 12.3528 5.40314C12.5528 5.40314 12.7428 5.48314 12.8828 5.62314L17.1728 9.91314C17.4628 10.2031 17.4628 10.6731 17.1728 10.9731Z" fill="#292D32"/>
</svg>
