<svg width="25" height="25" viewBox="0 0 25 25" fill="none" xmlns="http://www.w3.org/2000/svg">
<path d="M16.5179 2.15314H8.13788C4.49788 2.15314 2.32788 4.32314 2.32788 7.96314V16.3331C2.32788 19.9831 4.49788 22.1531 8.13788 22.1531H16.5079C20.1479 22.1531 22.3179 19.9831 22.3179 16.3431V7.96314C22.3279 4.32314 20.1579 2.15314 16.5179 2.15314ZM14.1179 15.1531C14.4079 15.4431 14.4079 15.9231 14.1179 16.2131C13.9679 16.3631 13.7779 16.4331 13.5879 16.4331C13.3979 16.4331 13.2079 16.3631 13.0579 16.2131L9.52788 12.6831C9.23788 12.3931 9.23788 11.9131 9.52788 11.6231L13.0579 8.09314C13.3479 7.80314 13.8279 7.80314 14.1179 8.09314C14.4079 8.38314 14.4079 8.86314 14.1179 9.15314L11.1179 12.1531L14.1179 15.1531Z" fill="#292D32"/>
</svg>
