<svg width="25" height="25" viewBox="0 0 25 25" fill="none" xmlns="http://www.w3.org/2000/svg">
<path d="M16.5428 2.15314H8.16278C4.52278 2.15314 2.35278 4.32314 2.35278 7.96314V16.3331C2.35278 19.9831 4.52278 22.1531 8.16278 22.1531H16.5328C20.1728 22.1531 22.3428 19.9831 22.3428 16.3431V7.96314C22.3528 4.32314 20.1828 2.15314 16.5428 2.15314ZM17.1728 14.3931L12.8828 18.6831C12.7428 18.8231 12.5528 18.9031 12.3528 18.9031C12.1528 18.9031 11.9628 18.8231 11.8228 18.6831L7.53278 14.3931C7.24278 14.1031 7.24278 13.6231 7.53278 13.3331C7.82278 13.0431 8.30278 13.0431 8.59278 13.3331L11.6028 16.3431V6.15314C11.6028 5.74314 11.9428 5.40314 12.3528 5.40314C12.7628 5.40314 13.1028 5.74314 13.1028 6.15314V16.3431L16.1128 13.3331C16.4028 13.0431 16.8828 13.0431 17.1728 13.3331C17.3228 13.4831 17.3928 13.6731 17.3928 13.8631C17.3928 14.0531 17.3128 14.2531 17.1728 14.3931Z" fill="#292D32"/>
</svg>
