<svg width="25" height="25" viewBox="0 0 25 25" fill="none" xmlns="http://www.w3.org/2000/svg">
<path d="M12.4728 2.95944C6.96278 2.95944 2.47278 7.44944 2.47278 12.9594C2.47278 18.4694 6.96278 22.9594 12.4728 22.9594C17.9828 22.9594 22.4728 18.4694 22.4728 12.9594C22.4728 7.44944 17.9828 2.95944 12.4728 2.95944ZM14.2628 15.9594C14.5528 16.2494 14.5528 16.7294 14.2628 17.0194C14.1128 17.1694 13.9228 17.2394 13.7328 17.2394C13.5428 17.2394 13.3528 17.1694 13.2028 17.0194L9.67278 13.4894C9.38278 13.1994 9.38278 12.7194 9.67278 12.4294L13.2028 8.89944C13.4928 8.60944 13.9728 8.60944 14.2628 8.89944C14.5528 9.18944 14.5528 9.66944 14.2628 9.95944L11.2628 12.9594L14.2628 15.9594Z" fill="#292D32"/>
</svg>
