<svg width="25" height="25" viewBox="0 0 25 25" fill="none" xmlns="http://www.w3.org/2000/svg">
<path d="M12.4728 2.95944C6.96278 2.95944 2.47278 7.44944 2.47278 12.9594C2.47278 18.4694 6.96278 22.9594 12.4728 22.9594C17.9828 22.9594 22.4728 18.4694 22.4728 12.9594C22.4728 7.44944 17.9828 2.95944 12.4728 2.95944ZM16.5328 14.7494C16.3828 14.8994 16.1928 14.9694 16.0028 14.9694C15.8128 14.9694 15.6228 14.8994 15.4728 14.7494L12.4728 11.7494L9.47278 14.7494C9.18278 15.0394 8.70278 15.0394 8.41278 14.7494C8.12278 14.4594 8.12278 13.9794 8.41278 13.6894L11.9428 10.1594C12.2328 9.86944 12.7128 9.86944 13.0028 10.1594L16.5328 13.6894C16.8228 13.9894 16.8228 14.4594 16.5328 14.7494Z" fill="#292D32"/>
</svg>
