<svg width="25" height="25" viewBox="0 0 25 25" fill="none" xmlns="http://www.w3.org/2000/svg">
<path d="M12.4728 2.95944C6.96278 2.95944 2.47278 7.44944 2.47278 12.9594C2.47278 18.4694 6.96278 22.9594 12.4728 22.9594C17.9828 22.9594 22.4728 18.4694 22.4728 12.9594C22.4728 7.44944 17.9828 2.95944 12.4728 2.95944ZM16.5328 12.2294L13.0028 15.7594C12.8528 15.9094 12.6628 15.9794 12.4728 15.9794C12.2828 15.9794 12.0928 15.9094 11.9428 15.7594L8.41278 12.2294C8.12278 11.9394 8.12278 11.4594 8.41278 11.1694C8.70278 10.8794 9.18278 10.8794 9.47278 11.1694L12.4728 14.1694L15.4728 11.1694C15.7628 10.8794 16.2428 10.8794 16.5328 11.1694C16.8228 11.4594 16.8228 11.9294 16.5328 12.2294Z" fill="#292D32"/>
</svg>
