<svg width="25" height="25" viewBox="0 0 25 25" fill="none" xmlns="http://www.w3.org/2000/svg">
<path d="M16.5428 2.15314H8.16278C4.52278 2.15314 2.35278 4.32314 2.35278 7.96314V16.3331C2.35278 19.9831 4.52278 22.1531 8.16278 22.1531H16.5328C20.1728 22.1531 22.3428 19.9831 22.3428 16.3431V7.96314C22.3528 4.32314 20.1828 2.15314 16.5428 2.15314ZM18.8828 12.6831L14.5928 16.9731C14.4428 17.1231 14.2528 17.1931 14.0628 17.1931C13.8728 17.1931 13.6828 17.1231 13.5328 16.9731C13.2428 16.6831 13.2428 16.2031 13.5328 15.9131L16.5428 12.9031H6.35278C5.94278 12.9031 5.60278 12.5631 5.60278 12.1531C5.60278 11.7431 5.94278 11.4031 6.35278 11.4031H16.5428L13.5328 8.39314C13.2428 8.10314 13.2428 7.62314 13.5328 7.33314C13.8228 7.04314 14.3028 7.04314 14.5928 7.33314L18.8828 11.6231C19.0228 11.7631 19.1028 11.9531 19.1028 12.1531C19.1028 12.3531 19.0228 12.5431 18.8828 12.6831Z" fill="#292D32"/>
</svg>
