<svg width="25" height="25" viewBox="0 0 25 25" fill="none" xmlns="http://www.w3.org/2000/svg">
<path d="M16.5428 2.15314H8.16278C4.52278 2.15314 2.35278 4.32314 2.35278 7.96314V16.3331C2.35278 19.9831 4.52278 22.1531 8.16278 22.1531H16.5328C20.1728 22.1531 22.3428 19.9831 22.3428 16.3431V7.96314C22.3528 4.32314 20.1828 2.15314 16.5428 2.15314ZM18.3528 12.9031H8.16278L11.1728 15.9131C11.4628 16.2031 11.4628 16.6831 11.1728 16.9731C11.0228 17.1231 10.8328 17.1931 10.6428 17.1931C10.4528 17.1931 10.2628 17.1231 10.1128 16.9731L5.82278 12.6831C5.68278 12.5431 5.60278 12.3531 5.60278 12.1531C5.60278 11.9531 5.68278 11.7631 5.82278 11.6231L10.1128 7.33314C10.4028 7.04314 10.8828 7.04314 11.1728 7.33314C11.4628 7.62314 11.4628 8.10314 11.1728 8.39314L8.16278 11.4031H18.3528C18.7628 11.4031 19.1028 11.7431 19.1028 12.1531C19.1028 12.5631 18.7628 12.9031 18.3528 12.9031Z" fill="#292D32"/>
</svg>
