<svg width="25" height="25" viewBox="0 0 25 25" fill="none" xmlns="http://www.w3.org/2000/svg">
<path d="M22.4678 19.4509V22.4509H2.46783V19.4509C2.46783 18.9009 2.91783 18.4509 3.46783 18.4509H21.4678C22.0178 18.4509 22.4678 18.9009 22.4678 19.4509Z" fill="#292D32" stroke="#292D32" stroke-width="1.5" stroke-miterlimit="10" stroke-linecap="round" stroke-linejoin="round"/>
<path d="M7.46783 11.4509H5.46783V18.4509H7.46783V11.4509Z" fill="#292D32"/>
<path d="M11.4678 11.4509H9.46783V18.4509H11.4678V11.4509Z" fill="#292D32"/>
<path d="M15.4678 11.4509H13.4678V18.4509H15.4678V11.4509Z" fill="#292D32"/>
<path d="M19.4678 11.4509H17.4678V18.4509H19.4678V11.4509Z" fill="#292D32"/>
<path d="M23.4678 23.2009H1.46783C1.05783 23.2009 0.717834 22.8609 0.717834 22.4509C0.717834 22.0409 1.05783 21.7009 1.46783 21.7009H23.4678C23.8778 21.7009 24.2178 22.0409 24.2178 22.4509C24.2178 22.8609 23.8778 23.2009 23.4678 23.2009Z" fill="#292D32"/>
<path d="M21.8378 6.20092L12.8378 2.60092C12.6378 2.52092 12.2978 2.52092 12.0978 2.60092L3.09783 6.20092C2.74783 6.34092 2.46783 6.75092 2.46783 7.13092V10.4509C2.46783 11.0009 2.91783 11.4509 3.46783 11.4509H21.4678C22.0178 11.4509 22.4678 11.0009 22.4678 10.4509V7.13092C22.4678 6.75092 22.1878 6.34092 21.8378 6.20092ZM12.4678 8.95092C11.6378 8.95092 10.9678 8.28092 10.9678 7.45092C10.9678 6.62092 11.6378 5.95092 12.4678 5.95092C13.2978 5.95092 13.9678 6.62092 13.9678 7.45092C13.9678 8.28092 13.2978 8.95092 12.4678 8.95092Z" fill="#292D32"/>
</svg>
