<svg width="25" height="25" viewBox="0 0 25 25" fill="none" xmlns="http://www.w3.org/2000/svg">
<path d="M17.1028 4.19458V2.63458C17.1028 2.22458 16.7628 1.88458 16.3528 1.88458C15.9428 1.88458 15.6028 2.22458 15.6028 2.63458V4.13458H9.10277V2.63458C9.10277 2.22458 8.76277 1.88458 8.35277 1.88458C7.94277 1.88458 7.60277 2.22458 7.60277 2.63458V4.19458C4.90277 4.44458 3.59277 6.05458 3.39277 8.44458C3.37277 8.73458 3.61277 8.97458 3.89277 8.97458H20.8128C21.1028 8.97458 21.3428 8.72458 21.3128 8.44458C21.1128 6.05458 19.8028 4.44458 17.1028 4.19458Z" fill="#292D32"/>
<path d="M20.3528 10.4746H4.35278C3.80278 10.4746 3.35278 10.9246 3.35278 11.4746V17.6346C3.35278 20.6346 4.85278 22.6346 8.35278 22.6346H16.3528C19.8528 22.6346 21.3528 20.6346 21.3528 17.6346V11.4746C21.3528 10.9246 20.9028 10.4746 20.3528 10.4746ZM9.56278 18.8446C9.51278 18.8846 9.46278 18.9346 9.41278 18.9646C9.35278 19.0046 9.29278 19.0346 9.23278 19.0546C9.17278 19.0846 9.11278 19.1046 9.05278 19.1146C8.98278 19.1246 8.92278 19.1346 8.85278 19.1346C8.72278 19.1346 8.59278 19.1046 8.47278 19.0546C8.34278 19.0046 8.24278 18.9346 8.14278 18.8446C7.96278 18.6546 7.85278 18.3946 7.85278 18.1346C7.85278 17.8746 7.96278 17.6146 8.14278 17.4246C8.24278 17.3346 8.34278 17.2646 8.47278 17.2146C8.65278 17.1346 8.85278 17.1146 9.05278 17.1546C9.11278 17.1646 9.17278 17.1846 9.23278 17.2146C9.29278 17.2346 9.35278 17.2646 9.41278 17.3046C9.46278 17.3446 9.51278 17.3846 9.56278 17.4246C9.74278 17.6146 9.85278 17.8746 9.85278 18.1346C9.85278 18.3946 9.74278 18.6546 9.56278 18.8446ZM9.56278 15.3446C9.37278 15.5246 9.11278 15.6346 8.85278 15.6346C8.59278 15.6346 8.33278 15.5246 8.14278 15.3446C7.96278 15.1546 7.85278 14.8946 7.85278 14.6346C7.85278 14.3746 7.96278 14.1146 8.14278 13.9246C8.42278 13.6446 8.86278 13.5546 9.23278 13.7146C9.36278 13.7646 9.47278 13.8346 9.56278 13.9246C9.74278 14.1146 9.85278 14.3746 9.85278 14.6346C9.85278 14.8946 9.74278 15.1546 9.56278 15.3446ZM13.0628 18.8446C12.8728 19.0246 12.6128 19.1346 12.3528 19.1346C12.0928 19.1346 11.8328 19.0246 11.6428 18.8446C11.4628 18.6546 11.3528 18.3946 11.3528 18.1346C11.3528 17.8746 11.4628 17.6146 11.6428 17.4246C12.0128 17.0546 12.6928 17.0546 13.0628 17.4246C13.2428 17.6146 13.3528 17.8746 13.3528 18.1346C13.3528 18.3946 13.2428 18.6546 13.0628 18.8446ZM13.0628 15.3446C13.0128 15.3846 12.9628 15.4246 12.9128 15.4646C12.8528 15.5046 12.7928 15.5346 12.7328 15.5546C12.6728 15.5846 12.6128 15.6046 12.5528 15.6146C12.4828 15.6246 12.4228 15.6346 12.3528 15.6346C12.0928 15.6346 11.8328 15.5246 11.6428 15.3446C11.4628 15.1546 11.3528 14.8946 11.3528 14.6346C11.3528 14.3746 11.4628 14.1146 11.6428 13.9246C11.7328 13.8346 11.8428 13.7646 11.9728 13.7146C12.3428 13.5546 12.7828 13.6446 13.0628 13.9246C13.2428 14.1146 13.3528 14.3746 13.3528 14.6346C13.3528 14.8946 13.2428 15.1546 13.0628 15.3446ZM16.5628 18.8446C16.3728 19.0246 16.1128 19.1346 15.8528 19.1346C15.5928 19.1346 15.3328 19.0246 15.1428 18.8446C14.9628 18.6546 14.8528 18.3946 14.8528 18.1346C14.8528 17.8746 14.9628 17.6146 15.1428 17.4246C15.5128 17.0546 16.1928 17.0546 16.5628 17.4246C16.7428 17.6146 16.8528 17.8746 16.8528 18.1346C16.8528 18.3946 16.7428 18.6546 16.5628 18.8446ZM16.5628 15.3446C16.5128 15.3846 16.4628 15.4246 16.4128 15.4646C16.3528 15.5046 16.2928 15.5346 16.2328 15.5546C16.1728 15.5846 16.1128 15.6046 16.0528 15.6146C15.9828 15.6246 15.9128 15.6346 15.8528 15.6346C15.5928 15.6346 15.3328 15.5246 15.1428 15.3446C14.9628 15.1546 14.8528 14.8946 14.8528 14.6346C14.8528 14.3746 14.9628 14.1146 15.1428 13.9246C15.2428 13.8346 15.3428 13.7646 15.4728 13.7146C15.6528 13.6346 15.8528 13.6146 16.0528 13.6546C16.1128 13.6646 16.1728 13.6846 16.2328 13.7146C16.2928 13.7346 16.3528 13.7646 16.4128 13.8046C16.4628 13.8446 16.5128 13.8846 16.5628 13.9246C16.7428 14.1146 16.8528 14.3746 16.8528 14.6346C16.8528 14.8946 16.7428 15.1546 16.5628 15.3446Z" fill="#292D32"/>
</svg>
