<svg width="25" height="25" viewBox="0 0 25 25" fill="none" xmlns="http://www.w3.org/2000/svg">
<path d="M11.4028 15.5846L9.55278 17.4346C9.16278 17.8246 8.54278 17.8246 8.14278 17.4446C8.03278 17.3346 7.92278 17.2346 7.81278 17.1246C6.78278 16.0846 5.85278 14.9946 5.02278 13.8546C4.20278 12.7146 3.54278 11.5746 3.06278 10.4446C2.59278 9.30458 2.35278 8.21458 2.35278 7.17458C2.35278 6.49458 2.47278 5.84458 2.71278 5.24458C2.95278 4.63458 3.33278 4.07458 3.86278 3.57458C4.50278 2.94458 5.20278 2.63458 5.94278 2.63458C6.22278 2.63458 6.50278 2.69458 6.75278 2.81458C7.01278 2.93458 7.24278 3.11458 7.42278 3.37458L9.74278 6.64458C9.92278 6.89458 10.0528 7.12458 10.1428 7.34458C10.2328 7.55458 10.2828 7.76458 10.2828 7.95458C10.2828 8.19458 10.2128 8.43458 10.0728 8.66458C9.94278 8.89458 9.75278 9.13458 9.51278 9.37458L8.75278 10.1646C8.64278 10.2746 8.59278 10.4046 8.59278 10.5646C8.59278 10.6446 8.60278 10.7146 8.62278 10.7946C8.65278 10.8746 8.68278 10.9346 8.70278 10.9946C8.88278 11.3246 9.19278 11.7546 9.63278 12.2746C10.0828 12.7946 10.5628 13.3246 11.0828 13.8546C11.1828 13.9546 11.2928 14.0546 11.3928 14.1546C11.7928 14.5446 11.8028 15.1846 11.4028 15.5846Z" fill="#292D32"/>
<path d="M22.3228 18.9646C22.3228 19.2446 22.2728 19.5346 22.1728 19.8146C22.1428 19.8946 22.1128 19.9746 22.0728 20.0546C21.9028 20.4146 21.6828 20.7546 21.3928 21.0746C20.9028 21.6146 20.3628 22.0046 19.7528 22.2546C19.7428 22.2546 19.7328 22.2646 19.7228 22.2646C19.1328 22.5046 18.4928 22.6346 17.8028 22.6346C16.7828 22.6346 15.6928 22.3946 14.5428 21.9046C13.3928 21.4146 12.2428 20.7546 11.1028 19.9246C10.7128 19.6346 10.3228 19.3446 9.95279 19.0346L13.2228 15.7646C13.5028 15.9746 13.7528 16.1346 13.9628 16.2446C14.0128 16.2646 14.0728 16.2946 14.1428 16.3246C14.2228 16.3546 14.3028 16.3646 14.3928 16.3646C14.5628 16.3646 14.6928 16.3046 14.8028 16.1946L15.5628 15.4446C15.8128 15.1946 16.0528 15.0046 16.2828 14.8846C16.5128 14.7446 16.7428 14.6746 16.9928 14.6746C17.1828 14.6746 17.3828 14.7146 17.6028 14.8046C17.8228 14.8946 18.0528 15.0246 18.3028 15.1946L21.6128 17.5446C21.8728 17.7246 22.0528 17.9346 22.1628 18.1846C22.2628 18.4346 22.3228 18.6846 22.3228 18.9646Z" fill="#292D32"/>
</svg>
