<svg width="25" height="25" viewBox="0 0 25 25" fill="none" xmlns="http://www.w3.org/2000/svg">
<path d="M22.1877 7.9322C22.1877 8.5922 21.6477 9.1322 20.9877 9.1322H3.38774C2.72774 9.1322 2.18774 8.5922 2.18774 7.9322V7.9222C2.18774 5.6322 4.03774 3.7822 6.32774 3.7822H18.0377C20.3277 3.7822 22.1877 5.6422 22.1877 7.9322Z" fill="#292D32"/>
<path d="M2.18774 11.8322V16.8422C2.18774 19.1322 4.03774 20.9822 6.32774 20.9822H18.0377C20.3277 20.9822 22.1877 19.1222 22.1877 16.8322V11.8322C22.1877 11.1722 21.6477 10.6322 20.9877 10.6322H3.38774C2.72774 10.6322 2.18774 11.1722 2.18774 11.8322ZM8.18774 17.6322H6.18774C5.77774 17.6322 5.43774 17.2922 5.43774 16.8822C5.43774 16.4722 5.77774 16.1322 6.18774 16.1322H8.18774C8.59774 16.1322 8.93774 16.4722 8.93774 16.8822C8.93774 17.2922 8.59774 17.6322 8.18774 17.6322ZM14.6877 17.6322H10.6877C10.2777 17.6322 9.93774 17.2922 9.93774 16.8822C9.93774 16.4722 10.2777 16.1322 10.6877 16.1322H14.6877C15.0977 16.1322 15.4377 16.4722 15.4377 16.8822C15.4377 17.2922 15.0977 17.6322 14.6877 17.6322Z" fill="#292D32"/>
</svg>
