<svg width="25" height="24" viewBox="0 0 25 24" fill="none" xmlns="http://www.w3.org/2000/svg">
<path d="M16.6629 2H8.2829C4.6429 2 2.4729 4.17 2.4729 7.81V16.18C2.4729 19.83 4.6429 22 8.2829 22H16.6529C20.2929 22 22.4629 19.83 22.4629 16.19V7.81C22.4729 4.17 20.3029 2 16.6629 2ZM15.8329 14.3C16.1229 14.59 16.1229 15.07 15.8329 15.36C15.6829 15.51 15.4929 15.58 15.3029 15.58C15.1129 15.58 14.9229 15.51 14.7729 15.36L12.4729 13.06L10.1729 15.36C10.0229 15.51 9.8329 15.58 9.6429 15.58C9.4529 15.58 9.2629 15.51 9.1129 15.36C8.8229 15.07 8.8229 14.59 9.1129 14.3L11.4129 12L9.1129 9.7C8.8229 9.41 8.8229 8.93 9.1129 8.64C9.4029 8.35 9.8829 8.35 10.1729 8.64L12.4729 10.94L14.7729 8.64C15.0629 8.35 15.5429 8.35 15.8329 8.64C16.1229 8.93 16.1229 9.41 15.8329 9.7L13.5329 12L15.8329 14.3Z" fill="#292D32"/>
</svg>
