<svg width="25" height="25" viewBox="0 0 25 25" fill="none" xmlns="http://www.w3.org/2000/svg">
<path d="M21.3028 5.08944C21.0128 4.66944 20.6428 4.29944 20.2228 4.00944C19.2728 3.31944 18.0328 2.95944 16.5428 2.95944H8.16278C7.96278 2.95944 7.76278 2.96944 7.57278 2.98944C4.29278 3.19944 2.35278 5.32944 2.35278 8.76944V17.1494C2.35278 18.6394 2.71278 19.8794 3.40278 20.8294C3.69278 21.2494 4.06278 21.6194 4.48278 21.9094C5.30278 22.5094 6.34278 22.8594 7.57278 22.9394C7.76278 22.9494 7.96278 22.9594 8.16278 22.9594H16.5428C20.1828 22.9594 22.3528 20.7894 22.3528 17.1494V8.76944C22.3528 7.27944 21.9928 6.03944 21.3028 5.08944ZM8.81278 11.6394L8.32278 11.1294C8.06278 10.8694 7.85278 10.3994 7.85278 10.0794V8.87944C7.85278 8.24944 8.32278 7.77944 8.90278 7.77944H11.0428C11.4528 7.77944 11.7028 8.22944 11.4828 8.57944L9.63278 11.5594C9.45278 11.8494 9.04278 11.8894 8.81278 11.6394ZM16.8528 9.97944C16.8528 10.3994 16.5928 10.9194 16.3328 11.1794L14.0828 13.1694C13.7728 13.4294 13.5628 13.9494 13.5628 14.3694V16.6194C13.5628 16.9294 13.3528 17.3494 13.0928 17.5094L12.3528 17.9794C11.6728 18.3994 10.7328 17.9294 10.7328 17.0894V14.3194C10.7328 13.9494 10.5228 13.4794 10.3128 13.2194L10.0728 12.9594C9.91278 12.7894 9.88278 12.5294 10.0028 12.3194L12.6828 8.01944C12.7828 7.86944 12.9428 7.76944 13.1228 7.76944H15.8028C16.3828 7.76944 16.8528 8.23944 16.8528 8.81944V9.97944Z" fill="#292D32"/>
</svg>
