<svg width="25" height="25" viewBox="0 0 25 25" fill="none" xmlns="http://www.w3.org/2000/svg">
<path d="M2.59592 19.3922L2.57592 19.4122C2.30592 18.8222 2.13592 18.1522 2.06592 17.4122C2.13592 18.1422 2.32592 18.8022 2.59592 19.3922Z" fill="#292D32"/>
<path d="M9.01586 10.7622C10.3303 10.7622 11.3959 9.6966 11.3959 8.38217C11.3959 7.06773 10.3303 6.00217 9.01586 6.00217C7.70143 6.00217 6.63586 7.06773 6.63586 8.38217C6.63586 9.6966 7.70143 10.7622 9.01586 10.7622Z" fill="#292D32"/>
<path d="M16.2059 2.38217H7.82587C4.18587 2.38217 2.01587 4.55217 2.01587 8.19217V16.5722C2.01587 17.6622 2.20587 18.6122 2.57587 19.4122C3.43587 21.3122 5.27587 22.3822 7.82587 22.3822H16.2059C19.8459 22.3822 22.0159 20.2122 22.0159 16.5722V14.2822V8.19217C22.0159 4.55217 19.8459 2.38217 16.2059 2.38217ZM20.3859 12.8822C19.6059 12.2122 18.3459 12.2122 17.5659 12.8822L13.4059 16.4522C12.6259 17.1222 11.3659 17.1222 10.5859 16.4522L10.2459 16.1722C9.53587 15.5522 8.40587 15.4922 7.60587 16.0322L3.86587 18.5422C3.64587 17.9822 3.51587 17.3322 3.51587 16.5722V8.19217C3.51587 5.37217 5.00587 3.88217 7.82587 3.88217H16.2059C19.0259 3.88217 20.5159 5.37217 20.5159 8.19217V12.9922L20.3859 12.8822Z" fill="#292D32"/>
</svg>
