<svg width="25" height="25" viewBox="0 0 25 25" fill="none" xmlns="http://www.w3.org/2000/svg">
<path d="M20.3928 7.45458L14.6328 3.42458C13.0628 2.32458 10.6528 2.38458 9.14277 3.55458L4.13277 7.46458C3.13277 8.24458 2.34277 9.84458 2.34277 11.1046V18.0046C2.34277 20.5546 4.41277 22.6346 6.96277 22.6346H17.7428C20.2928 22.6346 22.3628 20.5646 22.3628 18.0146V11.2346C22.3628 9.88458 21.4928 8.22458 20.3928 7.45458ZM13.1028 18.6346C13.1028 19.0446 12.7628 19.3846 12.3528 19.3846C11.9428 19.3846 11.6028 19.0446 11.6028 18.6346V15.6346C11.6028 15.2246 11.9428 14.8846 12.3528 14.8846C12.7628 14.8846 13.1028 15.2246 13.1028 15.6346V18.6346Z" fill="#292D32"/>
</svg>
