<svg width="25" height="25" viewBox="0 0 25 25" fill="none" xmlns="http://www.w3.org/2000/svg">
<path d="M20.9728 8.60314C19.9228 3.98314 15.8928 1.90314 12.3528 1.90314C12.3528 1.90314 12.3528 1.90314 12.3428 1.90314C8.81285 1.90314 4.77285 3.97314 3.72285 8.59314C2.55285 13.7531 5.71285 18.1231 8.57285 20.8731C9.63285 21.8931 10.9928 22.4031 12.3528 22.4031C13.7128 22.4031 15.0728 21.8931 16.1228 20.8731C18.9828 18.1231 22.1428 13.7631 20.9728 8.60314ZM12.3528 13.6131C10.6128 13.6131 9.20285 12.2031 9.20285 10.4631C9.20285 8.72314 10.6128 7.31314 12.3528 7.31314C14.0928 7.31314 15.5028 8.72314 15.5028 10.4631C15.5028 12.2031 14.0928 13.6131 12.3528 13.6131Z" fill="#292D32"/>
</svg>
