<svg width="25" height="25" viewBox="0 0 25 25" fill="none" xmlns="http://www.w3.org/2000/svg">
<path d="M19.1028 8.63458V10.7346C18.6628 10.6746 18.1628 10.6446 17.6028 10.6346V8.63458C17.6028 5.48458 16.7128 3.38458 12.3528 3.38458C7.99278 3.38458 7.10278 5.48458 7.10278 8.63458V10.6346C6.54278 10.6446 6.04278 10.6746 5.60278 10.7346V8.63458C5.60278 5.73458 6.30278 1.88458 12.3528 1.88458C18.4028 1.88458 19.1028 5.73458 19.1028 8.63458Z" fill="#292D32"/>
<path d="M19.1028 10.7346C18.6628 10.6746 18.1628 10.6446 17.6028 10.6346H7.10278C6.54278 10.6446 6.04278 10.6746 5.60278 10.7346C3.05278 11.0446 2.35278 12.2946 2.35278 15.6346V17.6346C2.35278 21.6346 3.35278 22.6346 7.35278 22.6346H17.3528C21.3528 22.6346 22.3528 21.6346 22.3528 17.6346V15.6346C22.3528 12.2946 21.6528 11.0446 19.1028 10.7346ZM9.06278 17.3446C8.87278 17.5246 8.61278 17.6346 8.35278 17.6346C8.22278 17.6346 8.09278 17.6046 7.97278 17.5546C7.84278 17.5046 7.74278 17.4346 7.64278 17.3446C7.46278 17.1546 7.35278 16.8946 7.35278 16.6346C7.35278 16.5046 7.38278 16.3746 7.43278 16.2546C7.48278 16.1346 7.55278 16.0246 7.64278 15.9246C7.74278 15.8346 7.84278 15.7646 7.97278 15.7146C8.34278 15.5546 8.78278 15.6446 9.06278 15.9246C9.15278 16.0246 9.22278 16.1346 9.27278 16.2546C9.32278 16.3746 9.35278 16.5046 9.35278 16.6346C9.35278 16.8946 9.24278 17.1546 9.06278 17.3446ZM13.2728 17.0146C13.2228 17.1346 13.1528 17.2446 13.0628 17.3446C12.8728 17.5246 12.6128 17.6346 12.3528 17.6346C12.0828 17.6346 11.8328 17.5246 11.6428 17.3446C11.5528 17.2446 11.4828 17.1346 11.4328 17.0146C11.3828 16.8946 11.3528 16.7646 11.3528 16.6346C11.3528 16.3646 11.4628 16.1146 11.6428 15.9246C12.0128 15.5546 12.6828 15.5546 13.0628 15.9246C13.2428 16.1146 13.3528 16.3646 13.3528 16.6346C13.3528 16.7646 13.3228 16.8946 13.2728 17.0146ZM17.0628 17.3446C16.8728 17.5246 16.6128 17.6346 16.3528 17.6346C16.0928 17.6346 15.8328 17.5246 15.6428 17.3446C15.4628 17.1546 15.3528 16.9046 15.3528 16.6346C15.3528 16.3646 15.4628 16.1146 15.6428 15.9246C16.0228 15.5546 16.6928 15.5546 17.0628 15.9246C17.1028 15.9746 17.1428 16.0246 17.1828 16.0846C17.2228 16.1346 17.2528 16.1946 17.2728 16.2546C17.3028 16.3146 17.3228 16.3746 17.3328 16.4346C17.3428 16.5046 17.3528 16.5746 17.3528 16.6346C17.3528 16.8946 17.2428 17.1546 17.0628 17.3446Z" fill="#292D32"/>
</svg>
