<svg width="21" height="20" viewBox="0 0 21 20" fill="none" xmlns="http://www.w3.org/2000/svg">
<path d="M19.4555 9.72686L16.7261 12.3573C16.3513 12.7179 16.0967 13.4392 16.1745 13.9554L16.5988 17.0383C16.8745 19.0112 15.6512 19.8668 13.8835 18.9475L10.8854 17.3778C10.3833 17.1161 9.56306 17.1303 9.07516 17.4202L6.45179 18.9546C4.37997 20.1638 3.14253 19.2516 3.69407 16.9181L4.46482 13.6584C4.60624 13.0644 4.34461 12.2512 3.89914 11.8482L1.41719 9.60665C-0.357647 8.00152 0.137328 6.54488 2.52735 6.36103L5.55376 6.13476C6.11945 6.09233 6.80534 5.64685 7.06697 5.14481L8.63675 2.13253C9.56306 0.371835 11.0551 0.378906 11.9531 2.15374L13.3532 4.9256C13.5936 5.39229 14.2017 5.84484 14.7179 5.92262L18.4655 6.53074C20.4879 6.87015 20.9333 8.30557 19.4555 9.72686Z" fill="#292D32"/>
</svg>
