<svg width="25" height="24" viewBox="0 0 25 24" fill="none" xmlns="http://www.w3.org/2000/svg">
<path d="M21.6079 18.47L19.9579 18.86C19.5879 18.95 19.2979 19.23 19.2179 19.6L18.8679 21.07C18.6779 21.87 17.6579 22.12 17.1279 21.49L14.1379 18.05C13.8979 17.77 14.0279 17.33 14.3879 17.24C16.1579 16.81 17.7479 15.82 18.9179 14.41C19.1079 14.18 19.4479 14.15 19.6579 14.36L21.8779 16.58C22.6379 17.34 22.3679 18.29 21.6079 18.47Z" fill="#292D32"/>
<path d="M3.05791 18.47L4.70791 18.86C5.07791 18.95 5.36791 19.23 5.44791 19.6L5.79791 21.07C5.98791 21.87 7.00791 22.12 7.53791 21.49L10.5279 18.05C10.7679 17.77 10.6379 17.33 10.2779 17.24C8.50791 16.81 6.91791 15.82 5.74791 14.41C5.55791 14.18 5.21791 14.15 5.00791 14.36L2.78791 16.58C2.02791 17.34 2.29791 18.29 3.05791 18.47Z" fill="#292D32"/>
<path d="M12.3579 2C8.48791 2 5.35791 5.13 5.35791 9C5.35791 10.45 5.78791 11.78 6.52791 12.89C7.60791 14.49 9.31791 15.62 11.3079 15.91C11.6479 15.97 11.9979 16 12.3579 16C12.7179 16 13.0679 15.97 13.4079 15.91C15.3979 15.62 17.1079 14.49 18.1879 12.89C18.9279 11.78 19.3579 10.45 19.3579 9C19.3579 5.13 16.2279 2 12.3579 2ZM15.4179 8.78L14.5879 9.61C14.4479 9.75 14.3679 10.02 14.4179 10.22L14.6579 11.25C14.8479 12.06 14.4179 12.38 13.6979 11.95L12.6979 11.36C12.5179 11.25 12.2179 11.25 12.0379 11.36L11.0379 11.95C10.3179 12.37 9.88791 12.06 10.0779 11.25L10.3179 10.22C10.3579 10.03 10.2879 9.75 10.1479 9.61L9.29791 8.78C8.80791 8.29 8.96791 7.8 9.64791 7.69L10.7179 7.51C10.8979 7.48 11.1079 7.32 11.1879 7.16L11.7779 5.98C12.0979 5.34 12.6179 5.34 12.9379 5.98L13.5279 7.16C13.6079 7.32 13.8179 7.48 14.0079 7.51L15.0779 7.69C15.7479 7.8 15.9079 8.29 15.4179 8.78Z" fill="#292D32"/>
</svg>
