<svg width="25" height="25" viewBox="0 0 25 25" fill="none" xmlns="http://www.w3.org/2000/svg">
<path d="M16.2428 13.3509V17.4209C16.2428 17.7809 16.2028 18.1209 16.1128 18.4309C15.7428 19.9009 14.5228 20.8209 12.8428 20.8209H10.1228L7.10283 22.8309C6.65283 23.1409 6.05283 22.8109 6.05283 22.2709V20.8209C5.03283 20.8209 4.18283 20.4809 3.59283 19.8909C2.99283 19.2909 2.65283 18.4409 2.65283 17.4209V13.3509C2.65283 11.4509 3.83283 10.1409 5.65283 9.97093C5.78283 9.96093 5.91283 9.95093 6.05283 9.95093H12.8428C14.8828 9.95093 16.2428 11.3109 16.2428 13.3509Z" fill="#fff"/>
<path d="M18.4028 16.5509C19.6728 16.5509 20.7428 16.1309 21.4828 15.3809C22.2328 14.6409 22.6528 13.5709 22.6528 12.3009V7.20093C22.6528 4.85093 20.7528 2.95093 18.4028 2.95093H9.90283C7.55283 2.95093 5.65283 4.85093 5.65283 7.20093V7.95093C5.65283 8.23093 5.87283 8.45093 6.15283 8.45093H12.8428C15.5528 8.45093 17.7428 10.6409 17.7428 13.3509V16.0509C17.7428 16.3309 17.9628 16.5509 18.2428 16.5509H18.4028Z" fill="#fff"/>
</svg>
