<svg width="25" height="25" viewBox="0 0 25 25" fill="none" xmlns="http://www.w3.org/2000/svg">
<path d="M19.6429 7.59092C19.2129 5.42092 17.6029 4.47092 15.3629 4.47092H6.58289C3.94289 4.47092 2.18289 5.79092 2.18289 8.87092V14.0209C2.18289 16.2409 3.09289 17.5409 4.59289 18.1009C4.81289 18.1809 5.05289 18.2509 5.30289 18.2909C5.70289 18.3809 6.13289 18.4209 6.58289 18.4209H15.3729C18.0129 18.4209 19.7729 17.1009 19.7729 14.0209V8.87092C19.7729 8.40092 19.7329 7.98092 19.6429 7.59092ZM6.00289 12.9509C6.00289 13.3609 5.66289 13.7009 5.25289 13.7009C4.84289 13.7009 4.50289 13.3609 4.50289 12.9509V9.95092C4.50289 9.54092 4.84289 9.20092 5.25289 9.20092C5.66289 9.20092 6.00289 9.54092 6.00289 9.95092V12.9509ZM10.9729 14.0909C9.51289 14.0909 8.33289 12.9109 8.33289 11.4509C8.33289 9.99092 9.51289 8.81092 10.9729 8.81092C12.4329 8.81092 13.6129 9.99092 13.6129 11.4509C13.6129 12.9109 12.4329 14.0909 10.9729 14.0909ZM17.4329 12.9509C17.4329 13.3609 17.0929 13.7009 16.6829 13.7009C16.2729 13.7009 15.9329 13.3609 15.9329 12.9509V9.95092C15.9329 9.54092 16.2729 9.20092 16.6829 9.20092C17.0929 9.20092 17.4329 9.54092 17.4329 9.95092V12.9509Z" fill="#292D32"/>
<path d="M22.7729 11.8709V17.0209C22.7729 20.1009 21.0129 21.4309 18.3629 21.4309H9.58291C8.83291 21.4309 8.16291 21.3209 7.58291 21.1009C7.11291 20.9309 6.70291 20.6809 6.37291 20.3609C6.19291 20.1909 6.33291 19.9209 6.58291 19.9209H15.3629C19.0629 19.9209 21.2629 17.7209 21.2629 14.0309V8.87093C21.2629 8.63093 21.5329 8.48093 21.7029 8.66093C22.3829 9.38093 22.7729 10.4309 22.7729 11.8709Z" fill="#292D32"/>
</svg>
