<svg width="25" height="24" viewBox="0 0 25 24" fill="none" xmlns="http://www.w3.org/2000/svg">
<path d="M16.6628 2H8.28284C4.64284 2 2.47284 4.17 2.47284 7.81V16.18C2.47284 19.83 4.64284 22 8.28284 22H16.6528C20.2928 22 22.4628 19.83 22.4628 16.19V7.81C22.4728 4.17 20.3028 2 16.6628 2ZM8.47284 13C7.91284 13 7.47284 12.55 7.47284 12C7.47284 11.45 7.92284 11 8.47284 11C9.02284 11 9.47284 11.45 9.47284 12C9.47284 12.55 9.03284 13 8.47284 13ZM12.4728 13C11.9128 13 11.4728 12.55 11.4728 12C11.4728 11.45 11.9228 11 12.4728 11C13.0228 11 13.4728 11.45 13.4728 12C13.4728 12.55 13.0328 13 12.4728 13ZM16.4728 13C15.9128 13 15.4728 12.55 15.4728 12C15.4728 11.45 15.9228 11 16.4728 11C17.0228 11 17.4728 11.45 17.4728 12C17.4728 12.55 17.0328 13 16.4728 13Z" fill="#292D32"/>
</svg>
