<svg width="25" height="25" viewBox="0 0 25 25" fill="none" xmlns="http://www.w3.org/2000/svg">
<path d="M19.6928 15.1246L18.6928 13.4646C18.4828 13.0946 18.2928 12.3946 18.2928 11.9846V9.45458C18.2928 7.10458 16.9128 5.07458 14.9228 4.12458C14.4028 3.20458 13.4428 2.63458 12.3428 2.63458C11.2528 2.63458 10.2728 3.22458 9.75278 4.15458C7.80278 5.12458 6.45278 7.13458 6.45278 9.45458V11.9846C6.45278 12.3946 6.26278 13.0946 6.05278 13.4546L5.04278 15.1246C4.64278 15.7946 4.55278 16.5346 4.80278 17.2146C5.04278 17.8846 5.61278 18.4046 6.35278 18.6546C8.29278 19.3146 10.3328 19.6346 12.3728 19.6346C14.4128 19.6346 16.4528 19.3146 18.3928 18.6646C19.0928 18.4346 19.6328 17.9046 19.8928 17.2146C20.1528 16.5246 20.0828 15.7646 19.6928 15.1246Z" fill="#292D32"/>
<path d="M15.1828 20.6446C14.7628 21.8046 13.6528 22.6346 12.3528 22.6346C11.5628 22.6346 10.7828 22.3146 10.2328 21.7446C9.91278 21.4446 9.67278 21.0446 9.53278 20.6346C9.66278 20.6546 9.79278 20.6646 9.93278 20.6846C10.1628 20.7146 10.4028 20.7446 10.6428 20.7646C11.2128 20.8146 11.7928 20.8446 12.3728 20.8446C12.9428 20.8446 13.5128 20.8146 14.0728 20.7646C14.2828 20.7446 14.4928 20.7346 14.6928 20.7046C14.8528 20.6846 15.0128 20.6646 15.1828 20.6446Z" fill="#292D32"/>
</svg>
