<svg width="25" height="25" viewBox="0 0 25 25" fill="none" xmlns="http://www.w3.org/2000/svg">
<path d="M21.7479 10.1309C21.4579 9.67092 21.1479 9.24092 20.8279 8.84092C20.4579 8.37092 19.7579 8.33092 19.3379 8.75092L16.3379 11.7509C16.5579 12.4109 16.5979 13.1709 16.3979 13.9609C16.0479 15.3709 14.9079 16.5109 13.4979 16.8609C12.7079 17.0609 11.9479 17.0209 11.2879 16.8009C11.2879 16.8009 9.85785 18.2309 8.82785 19.2609C8.32785 19.7609 8.48785 20.6409 9.15785 20.9009C10.2279 21.3109 11.3379 21.5209 12.4779 21.5209C14.2579 21.5209 15.9879 21.0009 17.5679 20.0309C19.1779 19.0309 20.6279 17.5609 21.7979 15.6909C22.7479 14.1809 22.6979 11.6409 21.7479 10.1309Z" fill="#292D32"/>
<path d="M14.4979 10.9309L10.4579 14.9709C9.94792 14.4509 9.61792 13.7309 9.61792 12.9509C9.61792 11.3809 10.8979 10.0909 12.4779 10.0909C13.2579 10.0909 13.9779 10.4209 14.4979 10.9309Z" fill="#292D32"/>
<path d="M18.7279 6.70092L15.3379 10.0909C14.6079 9.35092 13.5979 8.91092 12.4779 8.91092C10.2379 8.91092 8.43791 10.7209 8.43791 12.9509C8.43791 14.0709 8.88791 15.0809 9.61791 15.8109L6.23791 19.2009H6.22791C5.11791 18.3009 4.09791 17.1509 3.22791 15.7909C2.22791 14.2209 2.22791 11.6709 3.22791 10.1009C4.38791 8.28092 5.80791 6.85092 7.38791 5.87092C8.96791 4.91092 10.6979 4.38092 12.4779 4.38092C14.7079 4.38092 16.8679 5.20092 18.7279 6.70092Z" fill="#292D32"/>
<path d="M15.3379 12.9509C15.3379 14.5209 14.0579 15.8109 12.4779 15.8109C12.4179 15.8109 12.3679 15.8109 12.3079 15.7909L15.3179 12.7809C15.3379 12.8409 15.3379 12.8909 15.3379 12.9509Z" fill="#292D32"/>
<path d="M22.2479 3.18093C21.9479 2.88093 21.4579 2.88093 21.1579 3.18093L2.70791 21.6409C2.40791 21.9409 2.40791 22.4309 2.70791 22.7309C2.85791 22.8709 3.04791 22.9509 3.24791 22.9509C3.44791 22.9509 3.63791 22.8709 3.78791 22.7209L22.2479 4.26093C22.5579 3.96093 22.5579 3.48093 22.2479 3.18093Z" fill="#292D32"/>
</svg>
