<svg width="25" height="25" viewBox="0 0 25 25" fill="none" xmlns="http://www.w3.org/2000/svg">
<path d="M21.7229 10.1009C19.4129 6.47092 16.0329 4.38092 12.4729 4.38092C10.6929 4.38092 8.9629 4.90092 7.3829 5.87092C5.8029 6.85092 4.3829 8.28092 3.2229 10.1009C2.2229 11.6709 2.2229 14.2209 3.2229 15.7909C5.5329 19.4309 8.9129 21.5109 12.4729 21.5109C14.2529 21.5109 15.9829 20.9909 17.5629 20.0209C19.1429 19.0409 20.5629 17.6109 21.7229 15.7909C22.7229 14.2309 22.7229 11.6709 21.7229 10.1009ZM12.4729 16.9909C10.2329 16.9909 8.4329 15.1809 8.4329 12.9509C8.4329 10.7209 10.2329 8.91092 12.4729 8.91092C14.7129 8.91092 16.5129 10.7209 16.5129 12.9509C16.5129 15.1809 14.7129 16.9909 12.4729 16.9909Z" fill="#292D32"/>
<path d="M12.4729 10.0909C10.9029 10.0909 9.62292 11.3709 9.62292 12.9509C9.62292 14.5209 10.9029 15.8009 12.4729 15.8009C14.0429 15.8009 15.3329 14.5209 15.3329 12.9509C15.3329 11.3809 14.0429 10.0909 12.4729 10.0909Z" fill="#292D32"/>
</svg>
