<svg width="25" height="25" viewBox="0 0 25 25" fill="none" xmlns="http://www.w3.org/2000/svg">
<path d="M12.3528 17.9846C13.253 17.9846 13.9828 17.2548 13.9828 16.3546C13.9828 15.4544 13.253 14.7246 12.3528 14.7246C11.4526 14.7246 10.7228 15.4544 10.7228 16.3546C10.7228 17.2548 11.4526 17.9846 12.3528 17.9846Z" fill="#292D32"/>
<path d="M18.6328 10.1646V8.91458C18.6328 6.21458 17.9828 2.63458 12.3528 2.63458C6.72278 2.63458 6.07278 6.21458 6.07278 8.91458V10.1646C3.27278 10.5146 2.35278 11.9346 2.35278 15.4246V17.2846C2.35278 21.3846 3.60278 22.6346 7.70278 22.6346H17.0028C21.1028 22.6346 22.3528 21.3846 22.3528 17.2846V15.4246C22.3528 11.9346 21.4328 10.5146 18.6328 10.1646ZM12.3528 19.3746C10.6828 19.3746 9.33278 18.0146 9.33278 16.3546C9.33278 14.6846 10.6928 13.3346 12.3528 13.3346C14.0128 13.3346 15.3728 14.6946 15.3728 16.3546C15.3728 18.0246 14.0228 19.3746 12.3528 19.3746ZM7.70278 10.0746C7.62278 10.0746 7.55278 10.0746 7.47278 10.0746V8.91458C7.47278 5.98458 8.30278 4.03458 12.3528 4.03458C16.4028 4.03458 17.2328 5.98458 17.2328 8.91458V10.0846C17.1528 10.0846 17.0828 10.0846 17.0028 10.0846H7.70278V10.0746Z" fill="#292D32"/>
</svg>
