<svg width="25" height="25" viewBox="0 0 25 25" fill="none" xmlns="http://www.w3.org/2000/svg">
<path d="M7.02278 14.63H4.35278C3.25278 14.63 2.35278 15.53 2.35278 16.63V21.63C2.35278 22.18 2.80278 22.63 3.35278 22.63H7.02278C7.57278 22.63 8.02278 22.18 8.02278 21.63V15.63C8.02278 15.08 7.57278 14.63 7.02278 14.63Z" fill="#292D32"/>
<path d="M13.6828 10.63H11.0128C9.91278 10.63 9.01278 11.53 9.01278 12.63V21.63C9.01278 22.18 9.46278 22.63 10.0128 22.63H14.6828C15.2328 22.63 15.6828 22.18 15.6828 21.63V12.63C15.6828 11.53 14.7928 10.63 13.6828 10.63Z" fill="#292D32"/>
<path d="M20.3528 17.63H17.6828C17.1328 17.63 16.6828 18.08 16.6828 18.63V21.63C16.6828 22.18 17.1328 22.63 17.6828 22.63H21.3528C21.9028 22.63 22.3528 22.18 22.3528 21.63V19.63C22.3528 18.53 21.4528 17.63 20.3528 17.63Z" fill="#292D32"/>
<path d="M15.3628 5.48C15.6728 5.17 15.7928 4.8 15.6928 4.48C15.5928 4.16 15.2828 3.93 14.8428 3.86L13.8828 3.7C13.8428 3.7 13.7528 3.63 13.7328 3.59L13.2028 2.53C12.8028 1.72 11.8928 1.72 11.4928 2.53L10.9628 3.59C10.9528 3.63 10.8628 3.7 10.8228 3.7L9.86278 3.86C9.42278 3.93 9.12278 4.16 9.01278 4.48C8.91278 4.8 9.03278 5.17 9.34278 5.48L10.0828 6.23C10.1228 6.26 10.1528 6.38 10.1428 6.42L9.93278 7.34C9.77278 8.03 10.0328 8.34 10.2028 8.46C10.3728 8.58 10.7428 8.74 11.3528 8.38L12.2528 7.85C12.2928 7.82 12.4228 7.82 12.4628 7.85L13.3528 8.38C13.6328 8.55 13.8628 8.6 14.0428 8.6C14.2528 8.6 14.4028 8.52 14.4928 8.46C14.6628 8.34 14.9228 8.03 14.7628 7.34L14.5528 6.42C14.5428 6.37 14.5728 6.26 14.6128 6.23L15.3628 5.48Z" fill="#292D32"/>
</svg>
