<svg width="25" height="25" viewBox="0 0 25 25" fill="none" xmlns="http://www.w3.org/2000/svg">
<path d="M16.443 2.38217H8.88296C5.10296 2.38217 4.16296 3.39217 4.16296 7.42217V18.6822C4.16296 21.3422 5.62296 21.9722 7.39296 20.0722L7.40296 20.0622C8.22296 19.1922 9.47296 19.2622 10.183 20.2122L11.193 21.5622C12.003 22.6322 13.313 22.6322 14.123 21.5622L15.133 20.2122C15.853 19.2522 17.103 19.1822 17.923 20.0622C19.703 21.9622 21.153 21.3322 21.153 18.6722V7.42217C21.163 3.39217 20.223 2.38217 16.443 2.38217ZM15.663 12.1322H9.66296C9.25296 12.1322 8.91296 11.7922 8.91296 11.3822C8.91296 10.9722 9.25296 10.6322 9.66296 10.6322H15.663C16.073 10.6322 16.413 10.9722 16.413 11.3822C16.413 11.7922 16.073 12.1322 15.663 12.1322ZM16.663 8.13217H8.66296C8.25296 8.13217 7.91296 7.79217 7.91296 7.38217C7.91296 6.97217 8.25296 6.63217 8.66296 6.63217H16.663C17.073 6.63217 17.413 6.97217 17.413 7.38217C17.413 7.79217 17.073 8.13217 16.663 8.13217Z" fill="#292D32"/>
</svg>
