<svg width="25" height="25" viewBox="0 0 25 25" fill="none" xmlns="http://www.w3.org/2000/svg">
<path d="M7.65796 2.38217H6.65796C3.65796 2.38217 2.65796 4.17217 2.65796 6.38217V7.38217V21.3822C2.65796 22.2122 3.59796 22.6822 4.25796 22.1822L5.96796 20.9022C6.36796 20.6022 6.92796 20.6422 7.28796 21.0022L8.94796 22.6722C9.33796 23.0622 9.97796 23.0622 10.368 22.6722L12.048 20.9922C12.398 20.6422 12.958 20.6022 13.348 20.9022L15.058 22.1822C15.718 22.6722 16.658 22.2022 16.658 21.3822V4.38217C16.658 3.28217 17.558 2.38217 18.658 2.38217H7.65796ZM11.908 14.1322H7.40796C6.99796 14.1322 6.65796 13.7922 6.65796 13.3822C6.65796 12.9722 6.99796 12.6322 7.40796 12.6322H11.908C12.318 12.6322 12.658 12.9722 12.658 13.3822C12.658 13.7922 12.318 14.1322 11.908 14.1322ZM12.658 10.1322H6.65796C6.24796 10.1322 5.90796 9.79217 5.90796 9.38217C5.90796 8.97217 6.24796 8.63217 6.65796 8.63217H12.658C13.068 8.63217 13.408 8.97217 13.408 9.38217C13.408 9.79217 13.068 10.1322 12.658 10.1322Z" fill="#292D32"/>
<path d="M18.668 2.38217V3.88217C19.328 3.88217 19.958 4.15217 20.418 4.60217C20.898 5.09217 21.158 5.72217 21.158 6.38217V8.80217C21.158 9.54217 20.828 9.88217 20.078 9.88217H18.158V4.39217C18.158 4.11217 18.388 3.88217 18.668 3.88217V2.38217ZM18.668 2.38217C17.558 2.38217 16.658 3.28217 16.658 4.39217V11.3822H20.078C21.658 11.3822 22.658 10.3822 22.658 8.80217V6.38217C22.658 5.28217 22.208 4.28217 21.488 3.55217C20.758 2.83217 19.768 2.39217 18.668 2.38217C18.678 2.38217 18.668 2.38217 18.668 2.38217Z" fill="#292D32"/>
</svg>
