<svg width="25" height="25" viewBox="0 0 25 25" fill="none" xmlns="http://www.w3.org/2000/svg">
<path d="M11.8528 21.6346C17.0995 21.6346 21.3528 17.3813 21.3528 12.1346C21.3528 6.88788 17.0995 2.63458 11.8528 2.63458C6.60614 2.63458 2.35284 6.88788 2.35284 12.1346C2.35284 17.3813 6.60614 21.6346 11.8528 21.6346Z" fill="#292D32"/>
<path d="M21.6528 22.6346C21.4728 22.6346 21.2928 22.5646 21.1628 22.4346L19.3028 20.5746C19.0328 20.3046 19.0328 19.8646 19.3028 19.5846C19.5728 19.3146 20.0128 19.3146 20.2928 19.5846L22.1528 21.4446C22.4228 21.7146 22.4228 22.1546 22.1528 22.4346C22.0128 22.5646 21.8328 22.6346 21.6528 22.6346Z" fill="#292D32"/>
</svg>
