<svg width="25" height="25" viewBox="0 0 25 25" fill="none" xmlns="http://www.w3.org/2000/svg">
<path d="M20.4478 10.1794C18.6378 10.1794 17.8978 8.89944 18.7978 7.32944C19.3178 6.41944 19.0078 5.25944 18.0978 4.73944L16.3678 3.74944C15.5778 3.27944 14.5578 3.55944 14.0878 4.34944L13.9778 4.53944C13.0778 6.10944 11.5978 6.10944 10.6878 4.53944L10.5778 4.34944C10.1278 3.55944 9.10778 3.27944 8.31778 3.74944L6.58778 4.73944C5.67778 5.25944 5.36778 6.42944 5.88778 7.33944C6.79778 8.89944 6.05778 10.1794 4.24778 10.1794C3.20778 10.1794 2.34778 11.0294 2.34778 12.0794V13.8394C2.34778 14.8794 3.19778 15.7394 4.24778 15.7394C6.05778 15.7394 6.79778 17.0194 5.88778 18.5894C5.36778 19.4994 5.67778 20.6594 6.58778 21.1794L8.31778 22.1694C9.10778 22.6394 10.1278 22.3594 10.5978 21.5694L10.7078 21.3794C11.6078 19.8094 13.0878 19.8094 13.9978 21.3794L14.1078 21.5694C14.5778 22.3594 15.5978 22.6394 16.3878 22.1694L18.1178 21.1794C19.0278 20.6594 19.3378 19.4894 18.8178 18.5894C17.9078 17.0194 18.6478 15.7394 20.4578 15.7394C21.4978 15.7394 22.3578 14.8894 22.3578 13.8394V12.0794C22.3478 11.0394 21.4978 10.1794 20.4478 10.1794ZM12.3478 16.2094C10.5578 16.2094 9.09778 14.7494 9.09778 12.9594C9.09778 11.1694 10.5578 9.70944 12.3478 9.70944C14.1378 9.70944 15.5978 11.1694 15.5978 12.9594C15.5978 14.7494 14.1378 16.2094 12.3478 16.2094Z" fill="#292D32"/>
</svg>
