<svg width="25" height="25" viewBox="0 0 25 25" fill="none" xmlns="http://www.w3.org/2000/svg">
<path d="M17.3528 4.13458H7.35278C4.35278 4.13458 2.35278 5.63458 2.35278 9.13458V16.1346C2.35278 19.6346 4.35278 21.1346 7.35278 21.1346H17.3528C20.3528 21.1346 22.3528 19.6346 22.3528 16.1346V9.13458C22.3528 5.63458 20.3528 4.13458 17.3528 4.13458ZM17.8228 10.2246L14.6928 12.7246C14.0328 13.2546 13.1928 13.5146 12.3528 13.5146C11.5128 13.5146 10.6628 13.2546 10.0128 12.7246L6.88278 10.2246C6.56278 9.96458 6.51278 9.48458 6.76278 9.16458C7.02278 8.84458 7.49278 8.78458 7.81278 9.04458L10.9428 11.5446C11.7028 12.1546 12.9928 12.1546 13.7528 11.5446L16.8828 9.04458C17.2028 8.78458 17.6828 8.83458 17.9328 9.16458C18.1928 9.48458 18.1428 9.96458 17.8228 10.2246Z" fill="#292D32"/>
</svg>
