<svg width="25" height="24" viewBox="0 0 25 24" fill="none" xmlns="http://www.w3.org/2000/svg">
<path d="M17.4729 3.75H10.7529C9.3429 3.75 8.0029 4.34 7.0529 5.39L3.5229 9.27C2.1129 10.82 2.1129 13.18 3.5229 14.73L7.0529 18.61C8.0029 19.65 9.3429 20.25 10.7529 20.25H17.4729C20.2329 20.25 22.4729 18.01 22.4729 15.25V8.75C22.4729 5.99 20.2329 3.75 17.4729 3.75ZM17.0029 13.94C17.2929 14.23 17.2929 14.71 17.0029 15C16.8529 15.15 16.6629 15.22 16.4729 15.22C16.2829 15.22 16.0929 15.15 15.9429 15L14.0029 13.06L12.0629 15C11.9129 15.15 11.7229 15.22 11.5329 15.22C11.3429 15.22 11.1529 15.15 11.0029 15C10.7129 14.71 10.7129 14.23 11.0029 13.94L12.9429 12L11.0029 10.06C10.7129 9.77 10.7129 9.29 11.0029 9C11.2929 8.71 11.7729 8.71 12.0629 9L14.0029 10.94L15.9429 9C16.2329 8.71 16.7129 8.71 17.0029 9C17.2929 9.29 17.2929 9.77 17.0029 10.06L15.0629 12L17.0029 13.94Z" fill="#292D32"/>
</svg>
