<svg width="25" height="24" viewBox="0 0 25 24" fill="none" xmlns="http://www.w3.org/2000/svg">
<path d="M16.6629 2H8.2829C4.6429 2 2.4729 4.17 2.4729 7.81V16.18C2.4729 19.83 4.6429 22 8.2829 22H16.6529C20.2929 22 22.4629 19.83 22.4629 16.19V7.81C22.4729 4.17 20.3029 2 16.6629 2ZM17.2529 9.7L11.5829 15.37C11.4429 15.51 11.2529 15.59 11.0529 15.59C10.8529 15.59 10.6629 15.51 10.5229 15.37L7.6929 12.54C7.4029 12.25 7.4029 11.77 7.6929 11.48C7.9829 11.19 8.4629 11.19 8.7529 11.48L11.0529 13.78L16.1929 8.64C16.4829 8.35 16.9629 8.35 17.2529 8.64C17.5429 8.93 17.5429 9.4 17.2529 9.7Z" fill="#292D32"/>
</svg>
