<svg width="25" height="25" viewBox="0 0 25 25" fill="none" xmlns="http://www.w3.org/2000/svg">
<path d="M16.5428 2.63458H8.16278C4.52278 2.63458 2.35278 4.80458 2.35278 8.44458V16.8246C2.35278 19.6346 3.64278 21.5646 5.91278 22.2946C6.57278 22.5246 7.33278 22.6346 8.16278 22.6346H16.5428C17.3728 22.6346 18.1328 22.5246 18.7928 22.2946C21.0628 21.5646 22.3528 19.6346 22.3528 16.8246V8.44458C22.3528 4.80458 20.1828 2.63458 16.5428 2.63458ZM20.8528 16.8246C20.8528 18.9646 20.0128 20.3146 18.3228 20.8746C17.3528 18.9646 15.0528 17.6046 12.3528 17.6046C9.65278 17.6046 7.36278 18.9546 6.38278 20.8746H6.37278C4.70278 20.3346 3.85278 18.9746 3.85278 16.8346V8.44458C3.85278 5.62458 5.34278 4.13458 8.16278 4.13458H16.5428C19.3628 4.13458 20.8528 5.62458 20.8528 8.44458V16.8246Z" fill="#292D32"/>
<path d="M12.3528 8.63458C10.3728 8.63458 8.77278 10.2346 8.77278 12.2146C8.77278 14.1946 10.3728 15.8046 12.3528 15.8046C14.3328 15.8046 15.9328 14.1946 15.9328 12.2146C15.9328 10.2346 14.3328 8.63458 12.3528 8.63458Z" fill="#292D32"/>
</svg>
