<svg width="25" height="24" viewBox="0 0 25 24" fill="none" xmlns="http://www.w3.org/2000/svg">
<path d="M22.0328 10.74L20.6728 9.16C20.4128 8.86 20.2028 8.3 20.2028 7.9V6.2C20.2028 5.14 19.3328 4.27 18.2728 4.27H16.5728C16.1828 4.27 15.6128 4.06 15.3128 3.8L13.7328 2.44C13.0428 1.85 11.9128 1.85 11.2128 2.44L9.64278 3.81C9.34278 4.06 8.77278 4.27 8.38278 4.27H6.65278C5.59278 4.27 4.72278 5.14 4.72278 6.2V7.91C4.72278 8.3 4.51278 8.86 4.26278 9.16L2.91278 10.75C2.33278 11.44 2.33278 12.56 2.91278 13.25L4.26278 14.84C4.51278 15.14 4.72278 15.7 4.72278 16.09V17.8C4.72278 18.86 5.59278 19.73 6.65278 19.73H8.38278C8.77278 19.73 9.34278 19.94 9.64278 20.2L11.2228 21.56C11.9128 22.15 13.0428 22.15 13.7428 21.56L15.3228 20.2C15.6228 19.94 16.1828 19.73 16.5828 19.73H18.2828C19.3428 19.73 20.2128 18.86 20.2128 17.8V16.1C20.2128 15.71 20.4228 15.14 20.6828 14.84L22.0428 13.26C22.6228 12.57 22.6228 11.43 22.0328 10.74ZM16.6328 10.11L11.8028 14.94C11.6628 15.08 11.4728 15.16 11.2728 15.16C11.0728 15.16 10.8828 15.08 10.7428 14.94L8.32278 12.52C8.03278 12.23 8.03278 11.75 8.32278 11.46C8.61278 11.17 9.09278 11.17 9.38278 11.46L11.2728 13.35L15.5728 9.05C15.8628 8.76 16.3428 8.76 16.6328 9.05C16.9228 9.34 16.9228 9.82 16.6328 10.11Z" fill="#292D32"/>
</svg>
