<svg width="25" height="25" viewBox="0 0 25 25" fill="none" xmlns="http://www.w3.org/2000/svg">
<path d="M22.3528 11.3522V13.4122C22.3528 13.9622 21.9128 14.4122 21.3528 14.4322H19.3928C18.3128 14.4322 17.3228 13.6422 17.2328 12.5622C17.1728 11.9322 17.4128 11.3422 17.8328 10.9322C18.2028 10.5522 18.7128 10.3322 19.2728 10.3322H21.3528C21.9128 10.3522 22.3528 10.8022 22.3528 11.3522Z" fill="#292D32"/>
<path d="M20.8228 15.9322H19.3928C17.4928 15.9322 15.8928 14.5022 15.7328 12.6822C15.6428 11.6422 16.0228 10.6022 16.7828 9.86217C17.4228 9.20217 18.3128 8.83217 19.2728 8.83217H20.8228C21.1128 8.83217 21.3528 8.59217 21.3228 8.30217C21.1028 5.87217 19.4928 4.21217 17.1028 3.93217C16.8628 3.89217 16.6128 3.88217 16.3528 3.88217H7.35278C7.07278 3.88217 6.80278 3.90217 6.54278 3.94217C3.99278 4.26217 2.35278 6.16217 2.35278 8.88217V15.8822C2.35278 18.6422 4.59278 20.8822 7.35278 20.8822H16.3528C19.1528 20.8822 21.0828 19.1322 21.3228 16.4622C21.3528 16.1722 21.1128 15.9322 20.8228 15.9322ZM13.3528 10.1322H7.35278C6.94278 10.1322 6.60278 9.79217 6.60278 9.38217C6.60278 8.97217 6.94278 8.63217 7.35278 8.63217H13.3528C13.7628 8.63217 14.1028 8.97217 14.1028 9.38217C14.1028 9.79217 13.7628 10.1322 13.3528 10.1322Z" fill="#292D32"/>
</svg>
