<svg width="25" height="24" viewBox="0 0 25 24" fill="none" xmlns="http://www.w3.org/2000/svg">
<path d="M22.2329 15.92L15.8329 4.4C14.9729 2.85 13.7829 2 12.4729 2C11.1629 2 9.97291 2.85 9.11291 4.4L2.71291 15.92C1.90291 17.39 1.81291 18.8 2.46291 19.91C3.11291 21.02 4.39291 21.63 6.07291 21.63H18.8729C20.5529 21.63 21.8329 21.02 22.4829 19.91C23.1329 18.8 23.0429 17.38 22.2329 15.92ZM11.7229 9C11.7229 8.59 12.0629 8.25 12.4729 8.25C12.8829 8.25 13.2229 8.59 13.2229 9V14C13.2229 14.41 12.8829 14.75 12.4729 14.75C12.0629 14.75 11.7229 14.41 11.7229 14V9ZM13.1829 17.71C13.1329 17.75 13.0829 17.79 13.0329 17.83C12.9729 17.87 12.9129 17.9 12.8529 17.92C12.7929 17.95 12.7329 17.97 12.6629 17.98C12.6029 17.99 12.5329 18 12.4729 18C12.4129 18 12.3429 17.99 12.2729 17.98C12.2129 17.97 12.1529 17.95 12.0929 17.92C12.0329 17.9 11.9729 17.87 11.9129 17.83C11.8629 17.79 11.8129 17.75 11.7629 17.71C11.5829 17.52 11.4729 17.26 11.4729 17C11.4729 16.74 11.5829 16.48 11.7629 16.29C11.8129 16.25 11.8629 16.21 11.9129 16.17C11.9729 16.13 12.0329 16.1 12.0929 16.08C12.1529 16.05 12.2129 16.03 12.2729 16.02C12.4029 15.99 12.5429 15.99 12.6629 16.02C12.7329 16.03 12.7929 16.05 12.8529 16.08C12.9129 16.1 12.9729 16.13 13.0329 16.17C13.0829 16.21 13.1329 16.25 13.1829 16.29C13.3629 16.48 13.4729 16.74 13.4729 17C13.4729 17.26 13.3629 17.52 13.1829 17.71Z" fill="#292D32"/>
</svg>
