<svg width="17" height="16" viewBox="0 0 17 16" fill="none" xmlns="http://www.w3.org/2000/svg">
<path d="M11.2662 1.33333H5.67955C3.25288 1.33333 1.80621 2.78 1.80621 5.20667V10.7867C1.80621 13.22 3.25288 14.6667 5.67955 14.6667H11.2595C13.6862 14.6667 15.1329 13.22 15.1329 10.7933V5.20667C15.1395 2.78 13.6929 1.33333 11.2662 1.33333ZM11.1395 8.5H8.97288V10.6667C8.97288 10.94 8.74621 11.1667 8.47288 11.1667C8.19955 11.1667 7.97288 10.94 7.97288 10.6667V8.5H5.80621C5.53288 8.5 5.30621 8.27333 5.30621 8C5.30621 7.72667 5.53288 7.5 5.80621 7.5H7.97288V5.33333C7.97288 5.06 8.19955 4.83333 8.47288 4.83333C8.74621 4.83333 8.97288 5.06 8.97288 5.33333V7.5H11.1395C11.4129 7.5 11.6395 7.72667 11.6395 8C11.6395 8.27333 11.4129 8.5 11.1395 8.5Z" fill="#292D32"/>
</svg>
