<svg width="17" height="17" viewBox="0 0 17 17" fill="none" xmlns="http://www.w3.org/2000/svg">
<path d="M11.1212 1.81856H5.53453C3.10786 1.81856 1.66119 3.26523 1.66119 5.69189V11.2719C1.66119 13.7052 3.10786 15.1519 5.53453 15.1519H11.1145C13.5412 15.1519 14.9879 13.7052 14.9879 11.2786V5.69189C14.9945 3.26523 13.5479 1.81856 11.1212 1.81856ZM11.0345 9.81856C10.9345 9.91856 10.8079 9.96523 10.6812 9.96523C10.5545 9.96523 10.4279 9.91189 10.3279 9.81856L8.32786 7.81856L6.32786 9.81856C6.13453 10.0119 5.81453 10.0119 5.62119 9.81856C5.42786 9.62523 5.42786 9.30523 5.62119 9.11189L7.97453 6.75856C8.16786 6.56523 8.48786 6.56523 8.68119 6.75856L11.0345 9.11189C11.2279 9.30523 11.2279 9.61856 11.0345 9.81856Z" fill="#292D32"/>
</svg>
