<svg width="17" height="17" viewBox="0 0 17 17" fill="none" xmlns="http://www.w3.org/2000/svg">
<path d="M11.1212 1.81856H5.53453C3.10786 1.81856 1.66119 3.26523 1.66119 5.69189V11.2719C1.66119 13.7052 3.10786 15.1519 5.53453 15.1519H11.1145C13.5412 15.1519 14.9879 13.7052 14.9879 11.2786V5.69189C14.9945 3.26523 13.5479 1.81856 11.1212 1.81856ZM10.1879 8.83856L7.83453 11.1919C7.73453 11.2919 7.60786 11.3386 7.48119 11.3386C7.35453 11.3386 7.22786 11.2919 7.12786 11.1919C6.93453 10.9986 6.93453 10.6786 7.12786 10.4852L9.12786 8.48523L7.12786 6.48523C6.93453 6.29189 6.93453 5.97189 7.12786 5.77856C7.32119 5.58523 7.64119 5.58523 7.83453 5.77856L10.1879 8.13189C10.3879 8.32523 10.3879 8.64523 10.1879 8.83856Z" fill="#292D32"/>
</svg>
