<svg width="17" height="17" viewBox="0 0 17 17" fill="none" xmlns="http://www.w3.org/2000/svg">
<path d="M8.47264 2.29278C4.7993 2.29278 1.80597 5.28611 1.80597 8.95944C1.80597 12.6328 4.7993 15.6261 8.47264 15.6261C12.146 15.6261 15.1393 12.6328 15.1393 8.95944C15.1393 5.28611 12.146 2.29278 8.47264 2.29278ZM10.3326 9.31277L7.9793 11.6661C7.8793 11.7661 7.75264 11.8128 7.62597 11.8128C7.4993 11.8128 7.37264 11.7661 7.27264 11.6661C7.0793 11.4728 7.0793 11.1528 7.27264 10.9594L9.27264 8.95944L7.27264 6.95944C7.0793 6.76611 7.0793 6.44611 7.27264 6.25277C7.46597 6.05944 7.78597 6.05944 7.9793 6.25277L10.3326 8.60611C10.5326 8.79944 10.5326 9.11944 10.3326 9.31277Z" fill="#292D32"/>
</svg>
