<svg width="17" height="17" viewBox="0 0 17 17" fill="none" xmlns="http://www.w3.org/2000/svg">
<path d="M8.47264 2.29278C4.7993 2.29278 1.80597 5.28611 1.80597 8.95944C1.80597 12.6328 4.7993 15.6261 8.47264 15.6261C12.146 15.6261 15.1393 12.6328 15.1393 8.95944C15.1393 5.28611 12.146 2.29278 8.47264 2.29278ZM11.1793 10.1528C11.0793 10.2528 10.9526 10.2994 10.826 10.2994C10.6993 10.2994 10.5726 10.2528 10.4726 10.1528L8.47264 8.15277L6.47264 10.1528C6.2793 10.3461 5.9593 10.3461 5.76597 10.1528C5.57264 9.95944 5.57264 9.63944 5.76597 9.44611L8.1193 7.09277C8.31264 6.89944 8.63264 6.89944 8.82597 7.09277L11.1793 9.44611C11.3726 9.64611 11.3726 9.95944 11.1793 10.1528Z" fill="#292D32"/>
</svg>
