<svg width="17" height="17" viewBox="0 0 17 17" fill="none" xmlns="http://www.w3.org/2000/svg">
<path d="M11.746 1.81856H6.15928C3.73262 1.81856 2.28595 3.26523 2.28595 5.69189V11.2719C2.28595 13.7052 3.73262 15.1519 6.15928 15.1519H11.7393C14.166 15.1519 15.6126 13.7052 15.6126 11.2786V5.69189C15.6193 3.26523 14.1726 1.81856 11.746 1.81856ZM11.6593 7.93189L9.30595 10.2852C9.20595 10.3852 9.07928 10.4319 8.95262 10.4319C8.82595 10.4319 8.69928 10.3852 8.59928 10.2852L6.24595 7.93189C6.05262 7.73856 6.05262 7.41856 6.24595 7.22523C6.43928 7.03189 6.75928 7.03189 6.95262 7.22523L8.95262 9.22523L10.9526 7.22523C11.146 7.03189 11.466 7.03189 11.6593 7.22523C11.8526 7.41856 11.8526 7.73189 11.6593 7.93189Z" fill="#292D32"/>
</svg>
