<svg width="17" height="17" viewBox="0 0 17 17" fill="none" xmlns="http://www.w3.org/2000/svg">
<path d="M8.47264 2.29278C4.7993 2.29278 1.80597 5.28611 1.80597 8.95944C1.80597 12.6328 4.7993 15.6261 8.47264 15.6261C12.146 15.6261 15.1393 12.6328 15.1393 8.95944C15.1393 5.28611 12.146 2.29278 8.47264 2.29278ZM9.66597 10.9594C9.8593 11.1528 9.8593 11.4728 9.66597 11.6661C9.56597 11.7661 9.4393 11.8128 9.31264 11.8128C9.18597 11.8128 9.0593 11.7661 8.9593 11.6661L6.60597 9.31277C6.41264 9.11944 6.41264 8.79944 6.60597 8.60611L8.9593 6.25277C9.15264 6.05944 9.47264 6.05944 9.66597 6.25277C9.8593 6.44611 9.8593 6.76611 9.66597 6.95944L7.66597 8.95944L9.66597 10.9594Z" fill="#292D32"/>
</svg>
