<svg width="17" height="17" viewBox="0 0 17 17" fill="none" xmlns="http://www.w3.org/2000/svg">
<path d="M11.1461 1.81856H5.55943C3.13276 1.81856 1.6861 3.26523 1.6861 5.69189V11.2719C1.6861 13.7052 3.13276 15.1519 5.55943 15.1519H11.1394C13.5661 15.1519 15.0128 13.7052 15.0128 11.2786V5.69189C15.0194 3.26523 13.5728 1.81856 11.1461 1.81856ZM11.5661 9.97856L8.7061 12.8386C8.61276 12.9319 8.4861 12.9852 8.35276 12.9852C8.21943 12.9852 8.09276 12.9319 7.99943 12.8386L5.13943 9.97856C4.9461 9.78523 4.9461 9.46523 5.13943 9.27189C5.33276 9.07856 5.65276 9.07856 5.8461 9.27189L7.85276 11.2786V4.48523C7.85276 4.21189 8.07943 3.98523 8.35276 3.98523C8.6261 3.98523 8.85276 4.21189 8.85276 4.48523V11.2786L10.8594 9.27189C11.0528 9.07856 11.3728 9.07856 11.5661 9.27189C11.6661 9.37189 11.7128 9.49856 11.7128 9.62523C11.7128 9.75189 11.6594 9.88523 11.5661 9.97856Z" fill="#292D32"/>
</svg>
