<svg width="17" height="17" viewBox="0 0 17 17" fill="none" xmlns="http://www.w3.org/2000/svg">
<path d="M11.1461 1.81856H5.55943C3.13276 1.81856 1.6861 3.26523 1.6861 5.69189V11.2719C1.6861 13.7052 3.13276 15.1519 5.55943 15.1519H11.1394C13.5661 15.1519 15.0128 13.7052 15.0128 11.2786V5.69189C15.0194 3.26523 13.5728 1.81856 11.1461 1.81856ZM12.7061 8.83856L9.8461 11.6986C9.7461 11.7986 9.61943 11.8452 9.49276 11.8452C9.3661 11.8452 9.23943 11.7986 9.13943 11.6986C8.9461 11.5052 8.9461 11.1852 9.13943 10.9919L11.1461 8.98523H4.35276C4.07943 8.98523 3.85276 8.75856 3.85276 8.48523C3.85276 8.21189 4.07943 7.98523 4.35276 7.98523H11.1461L9.13943 5.97856C8.9461 5.78523 8.9461 5.46523 9.13943 5.27189C9.33276 5.07856 9.65276 5.07856 9.8461 5.27189L12.7061 8.13189C12.7994 8.22523 12.8528 8.35189 12.8528 8.48523C12.8528 8.61856 12.7994 8.74523 12.7061 8.83856Z" fill="#292D32"/>
</svg>
