<svg width="17" height="17" viewBox="0 0 17 17" fill="none" xmlns="http://www.w3.org/2000/svg">
<path d="M11.1461 1.81856H5.55943C3.13276 1.81856 1.6861 3.26523 1.6861 5.69189V11.2719C1.6861 13.7052 3.13276 15.1519 5.55943 15.1519H11.1394C13.5661 15.1519 15.0128 13.7052 15.0128 11.2786V5.69189C15.0194 3.26523 13.5728 1.81856 11.1461 1.81856ZM11.5661 7.69856C11.3728 7.89189 11.0528 7.89189 10.8594 7.69856L8.85276 5.69189V12.4852C8.85276 12.7586 8.6261 12.9852 8.35276 12.9852C8.07943 12.9852 7.85276 12.7586 7.85276 12.4852V5.69189L5.8461 7.69856C5.65276 7.89189 5.33276 7.89189 5.13943 7.69856C5.03943 7.59856 4.99276 7.47189 4.99276 7.34523C4.99276 7.21856 5.0461 7.08523 5.13943 6.99189L7.99943 4.13189C8.09276 4.03856 8.21943 3.98523 8.35276 3.98523C8.4861 3.98523 8.61276 4.03856 8.7061 4.13189L11.5661 6.99189C11.7594 7.18523 11.7594 7.49856 11.5661 7.69856Z" fill="#292D32"/>
</svg>
