<svg width="17" height="17" viewBox="0 0 17 17" fill="none" xmlns="http://www.w3.org/2000/svg">
<path d="M8.47264 2.29278C4.7993 2.29278 1.80597 5.28611 1.80597 8.95944C1.80597 12.6328 4.7993 15.6261 8.47264 15.6261C12.146 15.6261 15.1393 12.6328 15.1393 8.95944C15.1393 5.28611 12.146 2.29278 8.47264 2.29278ZM11.1793 8.47277L8.82597 10.8261C8.72597 10.9261 8.5993 10.9728 8.47264 10.9728C8.34597 10.9728 8.2193 10.9261 8.1193 10.8261L5.76597 8.47277C5.57264 8.27944 5.57264 7.95944 5.76597 7.76611C5.9593 7.57277 6.2793 7.57277 6.47264 7.76611L8.47264 9.76611L10.4726 7.76611C10.666 7.57277 10.986 7.57277 11.1793 7.76611C11.3726 7.95944 11.3726 8.27278 11.1793 8.47277Z" fill="#292D32"/>
</svg>
