<svg width="17" height="17" viewBox="0 0 17 17" fill="none" xmlns="http://www.w3.org/2000/svg">
<path d="M11.1461 1.81856H5.55943C3.13276 1.81856 1.6861 3.26523 1.6861 5.69189V11.2719C1.6861 13.7052 3.13276 15.1519 5.55943 15.1519H11.1394C13.5661 15.1519 15.0128 13.7052 15.0128 11.2786V5.69189C15.0194 3.26523 13.5728 1.81856 11.1461 1.81856ZM12.3528 8.98523H5.55943L7.5661 10.9919C7.75943 11.1852 7.75943 11.5052 7.5661 11.6986C7.4661 11.7986 7.33943 11.8452 7.21276 11.8452C7.0861 11.8452 6.95943 11.7986 6.85943 11.6986L3.99943 8.83856C3.9061 8.74523 3.85276 8.61856 3.85276 8.48523C3.85276 8.35189 3.9061 8.22523 3.99943 8.13189L6.85943 5.27189C7.05276 5.07856 7.37276 5.07856 7.5661 5.27189C7.75943 5.46523 7.75943 5.78523 7.5661 5.97856L5.55943 7.98523H12.3528C12.6261 7.98523 12.8528 8.21189 12.8528 8.48523C12.8528 8.75856 12.6261 8.98523 12.3528 8.98523Z" fill="#292D32"/>
</svg>
