<svg width="17" height="17" viewBox="0 0 17 17" fill="none" xmlns="http://www.w3.org/2000/svg">
<path d="M11.1212 1.81856H5.53453C3.10786 1.81856 1.66119 3.26523 1.66119 5.69189V11.2719C1.66119 13.7052 3.10786 15.1519 5.53453 15.1519H11.1145C13.5412 15.1519 14.9879 13.7052 14.9879 11.2786V5.69189C14.9945 3.26523 13.5479 1.81856 11.1212 1.81856ZM9.52119 10.4852C9.71453 10.6786 9.71453 10.9986 9.52119 11.1919C9.42119 11.2919 9.29453 11.3386 9.16786 11.3386C9.04119 11.3386 8.91453 11.2919 8.81453 11.1919L6.46119 8.83856C6.26786 8.64523 6.26786 8.32523 6.46119 8.13189L8.81453 5.77856C9.00786 5.58523 9.32786 5.58523 9.52119 5.77856C9.71453 5.97189 9.71453 6.29189 9.52119 6.48523L7.52119 8.48523L9.52119 10.4852Z" fill="#292D32"/>
</svg>
