<svg width="17" height="17" viewBox="0 0 17 17" fill="none" xmlns="http://www.w3.org/2000/svg">
<path d="M15.1344 13.1176V15.1176H1.80109V13.1176C1.80109 12.7509 2.10109 12.4509 2.46775 12.4509H14.4678C14.8344 12.4509 15.1344 12.7509 15.1344 13.1176Z" fill="#292D32" stroke="#292D32" stroke-width="1.5" stroke-miterlimit="10" stroke-linecap="round" stroke-linejoin="round"/>
<path d="M5.13442 7.78426H3.80109V12.4509H5.13442V7.78426Z" fill="#292D32"/>
<path d="M7.80111 7.78426H6.46777V12.4509H7.80111V7.78426Z" fill="#292D32"/>
<path d="M10.4678 7.78426H9.13446V12.4509H10.4678V7.78426Z" fill="#292D32"/>
<path d="M13.1344 7.78426H11.8011V12.4509H13.1344V7.78426Z" fill="#292D32"/>
<path d="M15.8011 15.6176H1.13446C0.861127 15.6176 0.63446 15.3909 0.63446 15.1176C0.63446 14.8443 0.861127 14.6176 1.13446 14.6176H15.8011C16.0745 14.6176 16.3011 14.8443 16.3011 15.1176C16.3011 15.3909 16.0745 15.6176 15.8011 15.6176Z" fill="#292D32"/>
<path d="M14.7144 4.28426L8.71442 1.88426C8.58109 1.83093 8.35442 1.83093 8.22109 1.88426L2.22109 4.28426C1.98775 4.37759 1.80109 4.65093 1.80109 4.90426V7.11759C1.80109 7.48426 2.10109 7.78426 2.46775 7.78426H14.4678C14.8344 7.78426 15.1344 7.48426 15.1344 7.11759V4.90426C15.1344 4.65093 14.9478 4.37759 14.7144 4.28426ZM8.46775 6.11759C7.91442 6.11759 7.46775 5.67093 7.46775 5.11759C7.46775 4.56426 7.91442 4.11759 8.46775 4.11759C9.02109 4.11759 9.46775 4.56426 9.46775 5.11759C9.46775 5.67093 9.02109 6.11759 8.46775 6.11759Z" fill="#292D32"/>
</svg>
