<svg width="17" height="17" viewBox="0 0 17 17" fill="none" xmlns="http://www.w3.org/2000/svg">
<path d="M11.5194 3.00792V1.96792C11.5194 1.69459 11.2928 1.46792 11.0194 1.46792C10.7461 1.46792 10.5194 1.69459 10.5194 1.96792V2.96792H6.18611V1.96792C6.18611 1.69459 5.95944 1.46792 5.68611 1.46792C5.41277 1.46792 5.18611 1.69459 5.18611 1.96792V3.00792C3.38611 3.17459 2.51277 4.24792 2.37944 5.84125C2.36611 6.03458 2.52611 6.19459 2.71277 6.19459H13.9928C14.1861 6.19459 14.3461 6.02792 14.3261 5.84125C14.1928 4.24792 13.3194 3.17459 11.5194 3.00792Z" fill="#8D9397"/>
<path d="M13.6861 7.19458H3.01945C2.65278 7.19458 2.35278 7.49458 2.35278 7.86125V11.9679C2.35278 13.9679 3.35278 15.3012 5.68612 15.3012H11.0195C13.3528 15.3012 14.3528 13.9679 14.3528 11.9679V7.86125C14.3528 7.49458 14.0528 7.19458 13.6861 7.19458ZM6.49278 12.7746C6.45945 12.8012 6.42612 12.8346 6.39278 12.8546C6.35278 12.8812 6.31278 12.9012 6.27278 12.9146C6.23278 12.9346 6.19278 12.9479 6.15278 12.9546C6.10612 12.9612 6.06612 12.9679 6.01945 12.9679C5.93278 12.9679 5.84612 12.9479 5.76612 12.9146C5.67945 12.8812 5.61278 12.8346 5.54612 12.7746C5.42612 12.6479 5.35278 12.4746 5.35278 12.3012C5.35278 12.1279 5.42612 11.9546 5.54612 11.8279C5.61278 11.7679 5.67945 11.7212 5.76612 11.6879C5.88612 11.6346 6.01945 11.6212 6.15278 11.6479C6.19278 11.6546 6.23278 11.6679 6.27278 11.6879C6.31278 11.7012 6.35278 11.7212 6.39278 11.7479C6.42612 11.7746 6.45945 11.8012 6.49278 11.8279C6.61278 11.9546 6.68612 12.1279 6.68612 12.3012C6.68612 12.4746 6.61278 12.6479 6.49278 12.7746ZM6.49278 10.4412C6.36612 10.5612 6.19278 10.6346 6.01945 10.6346C5.84612 10.6346 5.67278 10.5612 5.54612 10.4412C5.42612 10.3146 5.35278 10.1412 5.35278 9.96791C5.35278 9.79458 5.42612 9.62125 5.54612 9.49458C5.73278 9.30791 6.02612 9.24791 6.27278 9.35458C6.35945 9.38791 6.43278 9.43458 6.49278 9.49458C6.61278 9.62125 6.68612 9.79458 6.68612 9.96791C6.68612 10.1412 6.61278 10.3146 6.49278 10.4412ZM8.82612 12.7746C8.69945 12.8946 8.52612 12.9679 8.35278 12.9679C8.17945 12.9679 8.00612 12.8946 7.87945 12.7746C7.75945 12.6479 7.68612 12.4746 7.68612 12.3012C7.68612 12.1279 7.75945 11.9546 7.87945 11.8279C8.12612 11.5812 8.57945 11.5812 8.82612 11.8279C8.94612 11.9546 9.01945 12.1279 9.01945 12.3012C9.01945 12.4746 8.94612 12.6479 8.82612 12.7746ZM8.82612 10.4412C8.79278 10.4679 8.75945 10.4946 8.72612 10.5212C8.68612 10.5479 8.64612 10.5679 8.60612 10.5812C8.56612 10.6012 8.52612 10.6146 8.48612 10.6212C8.43945 10.6279 8.39945 10.6346 8.35278 10.6346C8.17945 10.6346 8.00612 10.5612 7.87945 10.4412C7.75945 10.3146 7.68612 10.1412 7.68612 9.96791C7.68612 9.79458 7.75945 9.62125 7.87945 9.49458C7.93945 9.43458 8.01278 9.38791 8.09945 9.35458C8.34612 9.24791 8.63945 9.30791 8.82612 9.49458C8.94612 9.62125 9.01945 9.79458 9.01945 9.96791C9.01945 10.1412 8.94612 10.3146 8.82612 10.4412ZM11.1594 12.7746C11.0328 12.8946 10.8595 12.9679 10.6861 12.9679C10.5128 12.9679 10.3394 12.8946 10.2128 12.7746C10.0928 12.6479 10.0195 12.4746 10.0195 12.3012C10.0195 12.1279 10.0928 11.9546 10.2128 11.8279C10.4594 11.5812 10.9128 11.5812 11.1594 11.8279C11.2794 11.9546 11.3528 12.1279 11.3528 12.3012C11.3528 12.4746 11.2794 12.6479 11.1594 12.7746ZM11.1594 10.4412C11.1261 10.4679 11.0928 10.4946 11.0595 10.5212C11.0195 10.5479 10.9795 10.5679 10.9395 10.5812C10.8995 10.6012 10.8595 10.6146 10.8195 10.6212C10.7728 10.6279 10.7261 10.6346 10.6861 10.6346C10.5128 10.6346 10.3394 10.5612 10.2128 10.4412C10.0928 10.3146 10.0195 10.1412 10.0195 9.96791C10.0195 9.79458 10.0928 9.62125 10.2128 9.49458C10.2794 9.43458 10.3461 9.38791 10.4328 9.35458C10.5528 9.30125 10.6861 9.28791 10.8195 9.31458C10.8595 9.32125 10.8995 9.33458 10.9395 9.35458C10.9795 9.36791 11.0195 9.38791 11.0595 9.41458C11.0928 9.44125 11.1261 9.46791 11.1594 9.49458C11.2794 9.62125 11.3528 9.79458 11.3528 9.96791C11.3528 10.1412 11.2794 10.3146 11.1594 10.4412Z" fill="#8D9397"/>
</svg>
