<svg width="17" height="17" viewBox="0 0 17 17" fill="none" xmlns="http://www.w3.org/2000/svg">
<path d="M7.71943 10.6013L6.4861 11.8346C6.2261 12.0946 5.81276 12.0946 5.5461 11.8413C5.47276 11.7679 5.39943 11.7013 5.3261 11.6279C4.63943 10.9346 4.01943 10.2079 3.4661 9.44792C2.91943 8.68792 2.47943 7.92792 2.15943 7.17459C1.8461 6.41459 1.6861 5.68792 1.6861 4.99459C1.6861 4.54125 1.7661 4.10792 1.9261 3.70792C2.0861 3.30125 2.33943 2.92792 2.69276 2.59459C3.11943 2.17459 3.5861 1.96792 4.07943 1.96792C4.2661 1.96792 4.45276 2.00792 4.61943 2.08792C4.79276 2.16792 4.9461 2.28792 5.0661 2.46125L6.61276 4.64125C6.73276 4.80792 6.81943 4.96125 6.87943 5.10792C6.93943 5.24792 6.97276 5.38792 6.97276 5.51459C6.97276 5.67459 6.9261 5.83458 6.83276 5.98792C6.7461 6.14125 6.61943 6.30125 6.45943 6.46125L5.95276 6.98792C5.87943 7.06125 5.8461 7.14792 5.8461 7.25459C5.8461 7.30792 5.85276 7.35459 5.8661 7.40792C5.8861 7.46125 5.9061 7.50125 5.91943 7.54125C6.03943 7.76125 6.2461 8.04792 6.53943 8.39459C6.83943 8.74125 7.15943 9.09459 7.5061 9.44792C7.57276 9.51459 7.6461 9.58125 7.71276 9.64792C7.97943 9.90792 7.9861 10.3346 7.71943 10.6013Z" fill="#292D32"/>
<path d="M14.9995 12.8546C14.9995 13.0412 14.9661 13.2346 14.8995 13.4213C14.8795 13.4746 14.8595 13.5279 14.8328 13.5812C14.7195 13.8212 14.5728 14.0479 14.3795 14.2613C14.0528 14.6213 13.6928 14.8813 13.2861 15.0479C13.2795 15.0479 13.2728 15.0546 13.2661 15.0546C12.8728 15.2146 12.4461 15.3012 11.9861 15.3012C11.3061 15.3012 10.5795 15.1413 9.81281 14.8146C9.04614 14.4879 8.27947 14.0479 7.51947 13.4946C7.25947 13.3013 6.99947 13.1079 6.75281 12.9012L8.93281 10.7212C9.11947 10.8612 9.28614 10.9679 9.42614 11.0412C9.45947 11.0546 9.49947 11.0746 9.54614 11.0946C9.59947 11.1146 9.65281 11.1212 9.71281 11.1212C9.82614 11.1212 9.91281 11.0813 9.98614 11.0079L10.4928 10.5079C10.6595 10.3413 10.8195 10.2146 10.9728 10.1346C11.1261 10.0412 11.2795 9.99458 11.4461 9.99458C11.5728 9.99458 11.7061 10.0212 11.8528 10.0812C11.9995 10.1412 12.1528 10.2279 12.3195 10.3413L14.5261 11.9079C14.6995 12.0279 14.8195 12.1679 14.8928 12.3346C14.9595 12.5012 14.9995 12.6679 14.9995 12.8546Z" fill="#292D32"/>
</svg>
