<svg width="17" height="17" viewBox="0 0 17 17" fill="none" xmlns="http://www.w3.org/2000/svg">
<path d="M14.8544 5.41552C14.8544 5.85552 14.4944 6.21552 14.0544 6.21552H2.32106C1.88106 6.21552 1.52106 5.85552 1.52106 5.41552V5.40886C1.52106 3.88219 2.75439 2.64886 4.28106 2.64886H12.0877C13.6144 2.64886 14.8544 3.88886 14.8544 5.41552Z" fill="#292D32"/>
<path d="M1.52106 8.01551V11.3555C1.52106 12.8822 2.75439 14.1155 4.28106 14.1155H12.0877C13.6144 14.1155 14.8544 12.8755 14.8544 11.3488V8.01551C14.8544 7.57551 14.4944 7.21551 14.0544 7.21551H2.32106C1.88106 7.21551 1.52106 7.57551 1.52106 8.01551ZM5.52106 11.8822H4.18772C3.91439 11.8822 3.68772 11.6555 3.68772 11.3822C3.68772 11.1088 3.91439 10.8822 4.18772 10.8822H5.52106C5.79439 10.8822 6.02106 11.1088 6.02106 11.3822C6.02106 11.6555 5.79439 11.8822 5.52106 11.8822ZM9.85439 11.8822H7.18772C6.91439 11.8822 6.68772 11.6555 6.68772 11.3822C6.68772 11.1088 6.91439 10.8822 7.18772 10.8822H9.85439C10.1277 10.8822 10.3544 11.1088 10.3544 11.3822C10.3544 11.6555 10.1277 11.8822 9.85439 11.8822Z" fill="#292D32"/>
</svg>
