<svg width="17" height="16" viewBox="0 0 17 16" fill="none" xmlns="http://www.w3.org/2000/svg">
<path d="M11.2662 1.33333H5.67955C3.25288 1.33333 1.80621 2.78 1.80621 5.20667V10.7867C1.80621 13.22 3.25288 14.6667 5.67955 14.6667H11.2595C13.6862 14.6667 15.1329 13.22 15.1329 10.7933V5.20667C15.1395 2.78 13.6929 1.33333 11.2662 1.33333ZM10.7129 9.53333C10.9062 9.72666 10.9062 10.0467 10.7129 10.24C10.6129 10.34 10.4862 10.3867 10.3595 10.3867C10.2329 10.3867 10.1062 10.34 10.0062 10.24L8.47288 8.70667L6.93955 10.24C6.83955 10.34 6.71288 10.3867 6.58621 10.3867C6.45955 10.3867 6.33288 10.34 6.23288 10.24C6.03955 10.0467 6.03955 9.72666 6.23288 9.53333L7.76621 8L6.23288 6.46666C6.03955 6.27333 6.03955 5.95333 6.23288 5.76C6.42621 5.56667 6.74621 5.56667 6.93955 5.76L8.47288 7.29333L10.0062 5.76C10.1995 5.56667 10.5195 5.56667 10.7129 5.76C10.9062 5.95333 10.9062 6.27333 10.7129 6.46666L9.17955 8L10.7129 9.53333Z" fill="#292D32"/>
</svg>
