<svg width="17" height="17" viewBox="0 0 17 17" fill="none" xmlns="http://www.w3.org/2000/svg">
<path d="M14.3194 3.71278C14.1261 3.43278 13.8794 3.18611 13.5994 2.99278C12.9661 2.53278 12.1394 2.29278 11.1461 2.29278H5.55943C5.4261 2.29278 5.29276 2.29944 5.1661 2.31278C2.97943 2.45278 1.6861 3.87277 1.6861 6.16611V11.7528C1.6861 12.7461 1.9261 13.5728 2.3861 14.2061C2.57943 14.4861 2.8261 14.7328 3.1061 14.9261C3.65276 15.3261 4.3461 15.5594 5.1661 15.6128C5.29276 15.6194 5.4261 15.6261 5.55943 15.6261H11.1461C13.5728 15.6261 15.0194 14.1794 15.0194 11.7528V6.16611C15.0194 5.17278 14.7794 4.34611 14.3194 3.71278ZM5.99276 8.07944L5.6661 7.73944C5.49276 7.56611 5.35276 7.25277 5.35276 7.03944V6.23944C5.35276 5.81944 5.6661 5.50611 6.05276 5.50611H7.47943C7.75276 5.50611 7.91943 5.80611 7.77276 6.03944L6.53943 8.02611C6.41943 8.21944 6.1461 8.24611 5.99276 8.07944ZM11.3528 6.97277C11.3528 7.25278 11.1794 7.59944 11.0061 7.77278L9.5061 9.09944C9.29943 9.27277 9.15943 9.61944 9.15943 9.89944V11.3994C9.15943 11.6061 9.01943 11.8861 8.8461 11.9928L8.35276 12.3061C7.89943 12.5861 7.27276 12.2728 7.27276 11.7128V9.86611C7.27276 9.61944 7.13276 9.30611 6.99276 9.13277L6.83276 8.95944C6.7261 8.84611 6.7061 8.67277 6.7861 8.53277L8.57276 5.66611C8.63943 5.56611 8.7461 5.49944 8.8661 5.49944H10.6528C11.0394 5.49944 11.3528 5.81278 11.3528 6.19944V6.97277Z" fill="#292D32"/>
</svg>
