<svg width="17" height="17" viewBox="0 0 17 17" fill="none" xmlns="http://www.w3.org/2000/svg">
<path d="M1.7359 13.0555L1.72257 13.0689C1.54257 12.6755 1.42924 12.2289 1.38257 11.7355C1.42924 12.2222 1.5559 12.6622 1.7359 13.0555Z" fill="#292D32"/>
<path d="M6.01587 7.30217C6.89216 7.30217 7.60253 6.5918 7.60253 5.7155C7.60253 4.83921 6.89216 4.12884 6.01587 4.12884C5.13957 4.12884 4.4292 4.83921 4.4292 5.7155C4.4292 6.5918 5.13957 7.30217 6.01587 7.30217Z" fill="#292D32"/>
<path d="M10.8092 1.71551H5.22252C2.79585 1.71551 1.34918 3.16217 1.34918 5.58884V11.1755C1.34918 11.9022 1.47585 12.5355 1.72252 13.0688C2.29585 14.3355 3.52252 15.0488 5.22252 15.0488H10.8092C13.2358 15.0488 14.6825 13.6022 14.6825 11.1755V9.64884V5.58884C14.6825 3.16217 13.2358 1.71551 10.8092 1.71551ZM13.5958 8.71551C13.0758 8.26884 12.2358 8.26884 11.7158 8.71551L8.94252 11.0955C8.42252 11.5422 7.58251 11.5422 7.06251 11.0955L6.83585 10.9088C6.36251 10.4955 5.60918 10.4555 5.07585 10.8155L2.58252 12.4888C2.43585 12.1155 2.34918 11.6822 2.34918 11.1755V5.58884C2.34918 3.70884 3.34252 2.71551 5.22252 2.71551H10.8092C12.6892 2.71551 13.6825 3.70884 13.6825 5.58884V8.78884L13.5958 8.71551Z" fill="#292D32"/>
</svg>
