<svg width="17" height="17" viewBox="0 0 17 17" fill="none" xmlns="http://www.w3.org/2000/svg">
<path d="M13.7128 5.18125L9.87278 2.49458C8.82611 1.76125 7.21944 1.80125 6.21278 2.58125L2.87278 5.18791C2.20611 5.70791 1.67944 6.77458 1.67944 7.61458V12.2146C1.67944 13.9146 3.05944 15.3012 4.75944 15.3012H11.9461C13.6461 15.3012 15.0261 13.9212 15.0261 12.2212V7.70125C15.0261 6.80125 14.4461 5.69458 13.7128 5.18125ZM8.85278 12.6346C8.85278 12.9079 8.62611 13.1346 8.35278 13.1346C8.07944 13.1346 7.85278 12.9079 7.85278 12.6346V10.6346C7.85278 10.3612 8.07944 10.1346 8.35278 10.1346C8.62611 10.1346 8.85278 10.3612 8.85278 10.6346V12.6346Z" fill="#4D73FF"/>
</svg>
