<svg width="17" height="17" viewBox="0 0 17 17" fill="none" xmlns="http://www.w3.org/2000/svg">
<path d="M14.0995 6.11856C13.3995 3.03856 10.7128 1.6519 8.35279 1.6519C8.35279 1.6519 8.35279 1.6519 8.34612 1.6519C5.99279 1.6519 3.29945 3.0319 2.59945 6.1119C1.81945 9.5519 3.92612 12.4652 5.83279 14.2986C6.53945 14.9786 7.44612 15.3186 8.35279 15.3186C9.25945 15.3186 10.1661 14.9786 10.8661 14.2986C12.7728 12.4652 14.8795 9.55856 14.0995 6.11856ZM8.35279 9.45856C7.19279 9.45856 6.25279 8.51856 6.25279 7.35856C6.25279 6.19856 7.19279 5.25856 8.35279 5.25856C9.51279 5.25856 10.4528 6.19856 10.4528 7.35856C10.4528 8.51856 9.51279 9.45856 8.35279 9.45856Z" fill="#8D9397"/>
</svg>
