<svg width="17" height="17" viewBox="0 0 17 17" fill="none" xmlns="http://www.w3.org/2000/svg">
<path d="M12.8528 5.96792V7.36792C12.5595 7.32792 12.2261 7.30792 11.8528 7.30125V5.96792C11.8528 3.86792 11.2594 2.46792 8.35278 2.46792C5.44612 2.46792 4.85278 3.86792 4.85278 5.96792V7.30125C4.47945 7.30792 4.14612 7.32792 3.85278 7.36792V5.96792C3.85278 4.03458 4.31945 1.46792 8.35278 1.46792C12.3861 1.46792 12.8528 4.03458 12.8528 5.96792Z" fill="#292D32"/>
<path d="M12.8528 7.36791C12.5594 7.32791 12.2261 7.30791 11.8528 7.30125H4.85276C4.47943 7.30791 4.1461 7.32791 3.85276 7.36791C2.15276 7.57458 1.6861 8.40791 1.6861 10.6346V11.9679C1.6861 14.6346 2.35276 15.3012 5.01943 15.3012H11.6861C14.3528 15.3012 15.0194 14.6346 15.0194 11.9679V10.6346C15.0194 8.40791 14.5528 7.57458 12.8528 7.36791ZM6.15943 11.7746C6.03276 11.8946 5.85943 11.9679 5.6861 11.9679C5.59943 11.9679 5.51276 11.9479 5.43276 11.9146C5.3461 11.8812 5.27943 11.8346 5.21276 11.7746C5.09276 11.6479 5.01943 11.4746 5.01943 11.3012C5.01943 11.2146 5.03943 11.1279 5.07276 11.0479C5.1061 10.9679 5.15276 10.8946 5.21276 10.8279C5.27943 10.7679 5.3461 10.7212 5.43276 10.6879C5.67943 10.5812 5.97276 10.6412 6.15943 10.8279C6.21943 10.8946 6.2661 10.9679 6.29943 11.0479C6.33276 11.1279 6.35276 11.2146 6.35276 11.3012C6.35276 11.4746 6.27943 11.6479 6.15943 11.7746ZM8.9661 11.5546C8.93276 11.6346 8.8861 11.7079 8.8261 11.7746C8.69943 11.8946 8.5261 11.9679 8.35276 11.9679C8.17276 11.9679 8.0061 11.8946 7.87943 11.7746C7.81943 11.7079 7.77276 11.6346 7.73943 11.5546C7.7061 11.4746 7.6861 11.3879 7.6861 11.3012C7.6861 11.1212 7.75943 10.9546 7.87943 10.8279C8.1261 10.5812 8.57276 10.5812 8.8261 10.8279C8.9461 10.9546 9.01943 11.1212 9.01943 11.3012C9.01943 11.3879 8.99943 11.4746 8.9661 11.5546ZM11.4928 11.7746C11.3661 11.8946 11.1928 11.9679 11.0194 11.9679C10.8461 11.9679 10.6728 11.8946 10.5461 11.7746C10.4261 11.6479 10.3528 11.4812 10.3528 11.3012C10.3528 11.1212 10.4261 10.9546 10.5461 10.8279C10.7994 10.5812 11.2461 10.5812 11.4928 10.8279C11.5194 10.8612 11.5461 10.8946 11.5728 10.9346C11.5994 10.9679 11.6194 11.0079 11.6328 11.0479C11.6528 11.0879 11.6661 11.1279 11.6728 11.1679C11.6794 11.2146 11.6861 11.2612 11.6861 11.3012C11.6861 11.4746 11.6128 11.6479 11.4928 11.7746Z" fill="#292D32"/>
</svg>
