<svg width="18" height="17" viewBox="0 0 18 17" fill="none" xmlns="http://www.w3.org/2000/svg">
<path d="M17.1636 8.43171L14.8248 10.6858C14.5036 10.9948 14.2855 11.6128 14.3521 12.0552L14.7157 14.697C14.952 16.3876 13.9038 17.1207 12.3889 16.333L9.8198 14.9879C9.38959 14.7637 8.68671 14.7758 8.26862 15.0242L6.02062 16.3391C4.24525 17.3752 3.18488 16.5936 3.6575 14.594L4.31797 11.8007C4.43915 11.2917 4.21496 10.5949 3.83322 10.2495L1.70642 8.3287C0.185535 6.95325 0.609685 5.70504 2.65772 5.54749L5.2511 5.3536C5.73584 5.31724 6.32359 4.93551 6.54778 4.5053L7.89294 1.92404C8.68671 0.41528 9.96522 0.42134 10.7347 1.94222L11.9345 4.31746C12.1405 4.71737 12.6616 5.10517 13.1039 5.17182L16.3153 5.69292C18.0483 5.98376 18.43 7.2138 17.1636 8.43171Z" fill="#EED202"/>
</svg>
