<svg width="17" height="16" viewBox="0 0 17 16" fill="none" xmlns="http://www.w3.org/2000/svg">
<path d="M14.5246 12.3133L13.4246 12.5733C13.1779 12.6333 12.9846 12.82 12.9312 13.0667L12.6979 14.0467C12.5712 14.58 11.8912 14.7467 11.5379 14.3267L9.54455 12.0333C9.38455 11.8467 9.47122 11.5533 9.71122 11.4933C10.8912 11.2067 11.9512 10.5467 12.7312 9.60667C12.8579 9.45334 13.0846 9.43334 13.2246 9.57334L14.7046 11.0533C15.2112 11.56 15.0312 12.1933 14.5246 12.3133Z" fill="#292D32"/>
<path d="M2.1579 12.3133L3.2579 12.5733C3.50456 12.6333 3.6979 12.82 3.75123 13.0667L3.98456 14.0467C4.11123 14.58 4.79123 14.7467 5.14456 14.3267L7.1379 12.0333C7.2979 11.8467 7.21123 11.5533 6.97123 11.4933C5.79123 11.2067 4.73123 10.5467 3.95123 9.60667C3.82456 9.45334 3.5979 9.43334 3.4579 9.57334L1.9779 11.0533C1.47123 11.56 1.65123 12.1933 2.1579 12.3133Z" fill="#292D32"/>
<path d="M8.35789 1.33333C5.77789 1.33333 3.69122 3.42 3.69122 6C3.69122 6.96667 3.97789 7.85333 4.47122 8.59333C5.19122 9.66 6.33122 10.4133 7.65789 10.6067C7.88456 10.6467 8.11789 10.6667 8.35789 10.6667C8.59789 10.6667 8.83122 10.6467 9.05789 10.6067C10.3846 10.4133 11.5246 9.66 12.2446 8.59333C12.7379 7.85333 13.0246 6.96667 13.0246 6C13.0246 3.42 10.9379 1.33333 8.35789 1.33333ZM10.3979 5.85333L9.84456 6.40666C9.75122 6.5 9.69789 6.68 9.73122 6.81333L9.89122 7.5C10.0179 8.04 9.73122 8.25333 9.25122 7.96666L8.58456 7.57333C8.46456 7.5 8.26456 7.5 8.14456 7.57333L7.47789 7.96666C6.99789 8.24667 6.71122 8.04 6.83789 7.5L6.99789 6.81333C7.02456 6.68667 6.97789 6.5 6.88456 6.40666L6.31789 5.85333C5.99122 5.52666 6.09789 5.2 6.55122 5.12667L7.26456 5.00667C7.38456 4.98667 7.52456 4.88 7.57789 4.77333L7.97122 3.98667C8.18456 3.56 8.53122 3.56 8.74456 3.98667L9.13789 4.77333C9.19122 4.88 9.33122 4.98667 9.45789 5.00667L10.1712 5.12667C10.6179 5.2 10.7246 5.52666 10.3979 5.85333Z" fill="#292D32"/>
</svg>
