<svg width="17" height="17" viewBox="0 0 17 17" fill="none" xmlns="http://www.w3.org/2000/svg">
<path d="M11.0461 9.21759V11.9309C11.0461 12.1709 11.0195 12.3976 10.9595 12.6043C10.7128 13.5843 9.89948 14.1976 8.77948 14.1976H6.96615L4.95281 15.5376C4.65281 15.7443 4.25281 15.5243 4.25281 15.1643V14.1976C3.57281 14.1976 3.00615 13.9709 2.61281 13.5776C2.21281 13.1776 1.98615 12.6109 1.98615 11.9309V9.21759C1.98615 7.95093 2.77281 7.07759 3.98615 6.96426C4.07281 6.95759 4.15948 6.95093 4.25281 6.95093H8.77948C10.1395 6.95093 11.0461 7.85759 11.0461 9.21759Z" fill="#292D32"/>
<path d="M12.4861 11.3509C13.3328 11.3509 14.0461 11.0709 14.5395 10.5709C15.0395 10.0776 15.3195 9.36426 15.3195 8.5176V5.1176C15.3195 3.55093 14.0528 2.28426 12.4861 2.28426H6.81948C5.25281 2.28426 3.98615 3.55093 3.98615 5.1176V5.6176C3.98615 5.80426 4.13281 5.95093 4.31948 5.95093H8.77948C10.5861 5.95093 12.0461 7.41093 12.0461 9.2176V11.0176C12.0461 11.2043 12.1928 11.3509 12.3795 11.3509H12.4861Z" fill="#292D32"/>
</svg>
