<svg width="17" height="17" viewBox="0 0 17 17" fill="none" xmlns="http://www.w3.org/2000/svg">
<path d="M13.2529 5.37759C12.9662 3.93093 11.8929 3.29759 10.3996 3.29759H4.54625C2.78625 3.29759 1.61292 4.17759 1.61292 6.23093V9.66426C1.61292 11.1443 2.21958 12.0109 3.21958 12.3843C3.36625 12.4376 3.52625 12.4843 3.69291 12.5109C3.95958 12.5709 4.24625 12.5976 4.54625 12.5976H10.4062C12.1662 12.5976 13.3396 11.7176 13.3396 9.66426V6.23093C13.3396 5.91759 13.3129 5.63759 13.2529 5.37759ZM4.15958 8.95093C4.15958 9.22426 3.93291 9.45093 3.65958 9.45093C3.38625 9.45093 3.15958 9.22426 3.15958 8.95093V6.95093C3.15958 6.67759 3.38625 6.45093 3.65958 6.45093C3.93291 6.45093 4.15958 6.67759 4.15958 6.95093V8.95093ZM7.47291 9.71093C6.49958 9.71093 5.71291 8.92426 5.71291 7.95093C5.71291 6.97759 6.49958 6.19093 7.47291 6.19093C8.44625 6.19093 9.23291 6.97759 9.23291 7.95093C9.23291 8.92426 8.44625 9.71093 7.47291 9.71093ZM11.7796 8.95093C11.7796 9.22426 11.5529 9.45093 11.2796 9.45093C11.0062 9.45093 10.7796 9.22426 10.7796 8.95093V6.95093C10.7796 6.67759 11.0062 6.45093 11.2796 6.45093C11.5529 6.45093 11.7796 6.67759 11.7796 6.95093V8.95093Z" fill="#292D32"/>
<path d="M15.3396 8.23092V11.6643C15.3396 13.7176 14.1663 14.6043 12.3996 14.6043H6.54626C6.04626 14.6043 5.5996 14.5309 5.21293 14.3843C4.8996 14.2709 4.62626 14.1043 4.40626 13.8909C4.28626 13.7776 4.3796 13.5976 4.54626 13.5976H10.3996C12.8663 13.5976 14.3329 12.1309 14.3329 9.67092V6.23092C14.3329 6.07092 14.5129 5.97092 14.6263 6.09092C15.0796 6.57092 15.3396 7.27092 15.3396 8.23092Z" fill="#292D32"/>
</svg>
