<svg width="17" height="16" viewBox="0 0 17 16" fill="none" xmlns="http://www.w3.org/2000/svg">
<path d="M11.2661 1.33333H5.67942C3.25276 1.33333 1.80609 2.78 1.80609 5.20667V10.7867C1.80609 13.22 3.25276 14.6667 5.67942 14.6667H11.2594C13.6861 14.6667 15.1328 13.22 15.1328 10.7933V5.20667C15.1394 2.78 13.6928 1.33333 11.2661 1.33333ZM5.80609 8.66667C5.43276 8.66667 5.13942 8.36666 5.13942 8C5.13942 7.63333 5.43942 7.33333 5.80609 7.33333C6.17276 7.33333 6.47276 7.63333 6.47276 8C6.47276 8.36666 6.17942 8.66667 5.80609 8.66667ZM8.47276 8.66667C8.09942 8.66667 7.80609 8.36666 7.80609 8C7.80609 7.63333 8.10609 7.33333 8.47276 7.33333C8.83943 7.33333 9.13942 7.63333 9.13942 8C9.13942 8.36666 8.84609 8.66667 8.47276 8.66667ZM11.1394 8.66667C10.7661 8.66667 10.4728 8.36666 10.4728 8C10.4728 7.63333 10.7728 7.33333 11.1394 7.33333C11.5061 7.33333 11.8061 7.63333 11.8061 8C11.8061 8.36666 11.5128 8.66667 11.1394 8.66667Z" fill="#292D32"/>
</svg>
