<svg width="17" height="17" viewBox="0 0 17 17" fill="none" xmlns="http://www.w3.org/2000/svg">
<path d="M13.2461 10.2946L12.5794 9.18792C12.4394 8.94125 12.3128 8.47459 12.3128 8.20125V6.51458C12.3128 4.94792 11.3928 3.59458 10.0661 2.96125C9.71943 2.34792 9.07943 1.96792 8.3461 1.96792C7.61943 1.96792 6.9661 2.36125 6.61943 2.98125C5.31943 3.62792 4.41943 4.96792 4.41943 6.51458V8.20125C4.41943 8.47459 4.29277 8.94125 4.15277 9.18125L3.47943 10.2946C3.21277 10.7413 3.15277 11.2346 3.31943 11.6879C3.47943 12.1346 3.85943 12.4813 4.35277 12.6479C5.6461 13.0879 7.0061 13.3013 8.3661 13.3013C9.7261 13.3013 11.0861 13.0879 12.3794 12.6546C12.8461 12.5013 13.2061 12.1479 13.3794 11.6879C13.5528 11.2279 13.5061 10.7213 13.2461 10.2946Z" fill="#4D73FF"/>
<path d="M10.2394 13.9746C9.95944 14.7479 9.21944 15.3013 8.35278 15.3013C7.82611 15.3013 7.30611 15.0879 6.93944 14.7079C6.72611 14.5079 6.56611 14.2413 6.47278 13.9679C6.55944 13.9813 6.64611 13.9879 6.73944 14.0013C6.89278 14.0213 7.05278 14.0413 7.21278 14.0546C7.59278 14.0879 7.97945 14.1079 8.36611 14.1079C8.74611 14.1079 9.12611 14.0879 9.49944 14.0546C9.63945 14.0413 9.77944 14.0346 9.91278 14.0146C10.0194 14.0013 10.1261 13.9879 10.2394 13.9746Z" fill="#4D73FF"/>
</svg>
