<svg width="17" height="17" viewBox="0 0 17 17" fill="none" xmlns="http://www.w3.org/2000/svg">
<path d="M8.35278 12.2012C8.95293 12.2012 9.43945 11.7147 9.43945 11.1146C9.43945 10.5144 8.95293 10.0279 8.35278 10.0279C7.75263 10.0279 7.26611 10.5144 7.26611 11.1146C7.26611 11.7147 7.75263 12.2012 8.35278 12.2012Z" fill="#292D32"/>
<path d="M12.5394 6.98792V6.15458C12.5394 4.35458 12.1061 1.96792 8.35276 1.96792C4.59943 1.96792 4.1661 4.35458 4.1661 6.15458V6.98792C2.29943 7.22125 1.6861 8.16792 1.6861 10.4946V11.7346C1.6861 14.4679 2.51943 15.3013 5.25276 15.3013H11.4528C14.1861 15.3013 15.0194 14.4679 15.0194 11.7346V10.4946C15.0194 8.16792 14.4061 7.22125 12.5394 6.98792ZM8.35276 13.1279C7.23943 13.1279 6.33943 12.2213 6.33943 11.1146C6.33943 10.0013 7.2461 9.10125 8.35276 9.10125C9.45943 9.10125 10.3661 10.0079 10.3661 11.1146C10.3661 12.2279 9.4661 13.1279 8.35276 13.1279ZM5.25276 6.92792C5.19943 6.92792 5.15276 6.92792 5.09943 6.92792V6.15458C5.09943 4.20125 5.65276 2.90125 8.35276 2.90125C11.0528 2.90125 11.6061 4.20125 11.6061 6.15458V6.93458C11.5528 6.93458 11.5061 6.93458 11.4528 6.93458H5.25276V6.92792Z" fill="#292D32"/>
</svg>
