<svg width="17" height="17" viewBox="0 0 17 17" fill="none" xmlns="http://www.w3.org/2000/svg">
<path d="M14.4945 7.05091C12.9545 4.63091 10.7012 3.23758 8.32786 3.23758C7.14119 3.23758 5.98786 3.58425 4.93453 4.23091C3.88119 4.88425 2.93453 5.83758 2.16119 7.05091C1.49453 8.09758 1.49453 9.79758 2.16119 10.8442C3.70119 13.2709 5.95453 14.6576 8.32786 14.6576C9.51453 14.6576 10.6679 14.3109 11.7212 13.6642C12.7745 13.0109 13.7212 12.0576 14.4945 10.8442C15.1612 9.80425 15.1612 8.09758 14.4945 7.05091ZM8.32786 11.6442C6.83453 11.6442 5.63453 10.4376 5.63453 8.95091C5.63453 7.46425 6.83453 6.25758 8.32786 6.25758C9.82119 6.25758 11.0212 7.46425 11.0212 8.95091C11.0212 10.4376 9.82119 11.6442 8.32786 11.6442Z" fill="#292D32"/>
<path d="M8.32792 7.04428C7.28125 7.04428 6.42792 7.89761 6.42792 8.95095C6.42792 9.99761 7.28125 10.8509 8.32792 10.8509C9.37458 10.8509 10.2346 9.99761 10.2346 8.95095C10.2346 7.90428 9.37458 7.04428 8.32792 7.04428Z" fill="#292D32"/>
</svg>
