<svg width="17" height="17" viewBox="0 0 17 17" fill="none" xmlns="http://www.w3.org/2000/svg">
<path d="M14.8412 7.07093C14.6479 6.76426 14.4412 6.4776 14.2279 6.21093C13.9812 5.8976 13.5145 5.87093 13.2345 6.15093L11.2345 8.15093C11.3812 8.59093 11.4079 9.0976 11.2745 9.62426C11.0412 10.5643 10.2812 11.3243 9.3412 11.5576C8.81453 11.6909 8.30787 11.6643 7.86787 11.5176C7.86787 11.5176 6.91453 12.4709 6.22787 13.1576C5.89453 13.4909 6.0012 14.0776 6.44787 14.2509C7.1612 14.5243 7.9012 14.6643 8.6612 14.6643C9.84787 14.6643 11.0012 14.3176 12.0545 13.6709C13.1279 13.0043 14.0945 12.0243 14.8745 10.7776C15.5079 9.77093 15.4745 8.0776 14.8412 7.07093Z" fill="#292D32"/>
<path d="M10.0078 7.60428L7.31452 10.2976C6.97452 9.95095 6.75452 9.47095 6.75452 8.95095C6.75452 7.90428 7.60785 7.04428 8.66118 7.04428C9.18118 7.04428 9.66118 7.26428 10.0078 7.60428Z" fill="#292D32"/>
<path d="M12.8278 4.78425L10.5678 7.04425C10.0812 6.55091 9.40784 6.25758 8.66117 6.25758C7.16784 6.25758 5.96784 7.46425 5.96784 8.95091C5.96784 9.69758 6.26784 10.3709 6.75451 10.8576L4.50117 13.1176H4.49451C3.75451 12.5176 3.07451 11.7509 2.49451 10.8442C1.82784 9.79758 1.82784 8.09758 2.49451 7.05091C3.26784 5.83758 4.21451 4.88425 5.26784 4.23091C6.32117 3.59091 7.47451 3.23758 8.66117 3.23758C10.1478 3.23758 11.5878 3.78425 12.8278 4.78425Z" fill="#292D32"/>
<path d="M10.5679 8.95092C10.5679 9.99759 9.71452 10.8576 8.66118 10.8576C8.62118 10.8576 8.58785 10.8576 8.54785 10.8443L10.5545 8.83759C10.5679 8.87759 10.5679 8.91092 10.5679 8.95092Z" fill="#292D32"/>
<path d="M15.1745 2.4376C14.9745 2.2376 14.6479 2.2376 14.4479 2.4376L2.14786 14.7443C1.94786 14.9443 1.94786 15.2709 2.14786 15.4709C2.24786 15.5643 2.37453 15.6176 2.50786 15.6176C2.6412 15.6176 2.76786 15.5643 2.86786 15.4643L15.1745 3.1576C15.3812 2.9576 15.3812 2.6376 15.1745 2.4376Z" fill="#292D32"/>
</svg>
