<svg width="17" height="17" viewBox="0 0 17 17" fill="none" xmlns="http://www.w3.org/2000/svg">
<path d="M4.79943 9.96334H3.01943C2.2861 9.96334 1.6861 10.5633 1.6861 11.2967V14.63C1.6861 14.9967 1.9861 15.2967 2.35276 15.2967H4.79943C5.1661 15.2967 5.4661 14.9967 5.4661 14.63V10.63C5.4661 10.2633 5.1661 9.96334 4.79943 9.96334Z" fill="#292D32"/>
<path d="M9.23943 7.29667H7.45943C6.7261 7.29667 6.1261 7.89667 6.1261 8.63001V14.63C6.1261 14.9967 6.4261 15.2967 6.79277 15.2967H9.9061C10.2728 15.2967 10.5728 14.9967 10.5728 14.63V8.63001C10.5728 7.89667 9.97943 7.29667 9.23943 7.29667Z" fill="#292D32"/>
<path d="M13.6861 11.9633H11.9061C11.5394 11.9633 11.2394 12.2633 11.2394 12.63V14.63C11.2394 14.9967 11.5394 15.2967 11.9061 15.2967H14.3528C14.7194 15.2967 15.0194 14.9967 15.0194 14.63V13.2967C15.0194 12.5633 14.4194 11.9633 13.6861 11.9633Z" fill="#292D32"/>
<path d="M10.3595 3.86334C10.5661 3.65667 10.6461 3.41001 10.5795 3.19667C10.5128 2.98334 10.3061 2.83001 10.0128 2.78334L9.37278 2.67667C9.34612 2.67667 9.28612 2.63001 9.27278 2.60334L8.91945 1.89667C8.65278 1.35667 8.04612 1.35667 7.77945 1.89667L7.42612 2.60334C7.41945 2.63001 7.35945 2.67667 7.33278 2.67667L6.69278 2.78334C6.39945 2.83001 6.19945 2.98334 6.12612 3.19667C6.05945 3.41001 6.13945 3.65667 6.34612 3.86334L6.83945 4.36334C6.86612 4.38334 6.88612 4.46334 6.87945 4.49001L6.73945 5.10334C6.63278 5.56334 6.80612 5.77001 6.91945 5.85001C7.03278 5.93001 7.27945 6.03667 7.68612 5.79667L8.28612 5.44334C8.31278 5.42334 8.39945 5.42334 8.42612 5.44334L9.01945 5.79667C9.20612 5.91001 9.35945 5.94334 9.47945 5.94334C9.61945 5.94334 9.71945 5.89001 9.77945 5.85001C9.89278 5.77001 10.0661 5.56334 9.95945 5.10334L9.81945 4.49001C9.81278 4.45667 9.83278 4.38334 9.85945 4.36334L10.3595 3.86334Z" fill="#292D32"/>
</svg>
