<svg width="17" height="17" viewBox="0 0 17 17" fill="none" xmlns="http://www.w3.org/2000/svg">
<path d="M5.32461 1.71551H4.65794C2.65794 1.71551 1.99127 2.90884 1.99127 4.38217V5.04884V14.3822C1.99127 14.9355 2.61794 15.2488 3.05794 14.9155L4.19794 14.0622C4.46461 13.8622 4.83794 13.8888 5.07794 14.1288L6.18461 15.2422C6.44461 15.5022 6.87127 15.5022 7.13127 15.2422L8.25127 14.1222C8.48461 13.8888 8.85794 13.8622 9.11794 14.0622L10.2579 14.9155C10.6979 15.2422 11.3246 14.9288 11.3246 14.3822V3.04884C11.3246 2.31551 11.9246 1.71551 12.6579 1.71551H5.32461ZM8.15794 9.54884H5.15794C4.88461 9.54884 4.65794 9.32217 4.65794 9.04884C4.65794 8.77551 4.88461 8.54884 5.15794 8.54884H8.15794C8.43127 8.54884 8.65794 8.77551 8.65794 9.04884C8.65794 9.32217 8.43127 9.54884 8.15794 9.54884ZM8.65794 6.88217H4.65794C4.38461 6.88217 4.15794 6.65551 4.15794 6.38217C4.15794 6.10884 4.38461 5.88217 4.65794 5.88217H8.65794C8.93127 5.88217 9.15794 6.10884 9.15794 6.38217C9.15794 6.65551 8.93127 6.88217 8.65794 6.88217Z" fill="#292D32"/>
<path d="M12.6646 1.71551V2.71551C13.1046 2.71551 13.5246 2.89551 13.8313 3.19551C14.1513 3.52217 14.3246 3.94217 14.3246 4.38217V5.99551C14.3246 6.48884 14.1046 6.71551 13.6046 6.71551H12.3246V3.05551C12.3246 2.86884 12.478 2.71551 12.6646 2.71551V1.71551ZM12.6646 1.71551C11.9246 1.71551 11.3246 2.31551 11.3246 3.05551V7.71551H13.6046C14.658 7.71551 15.3246 7.04884 15.3246 5.99551V4.38217C15.3246 3.64884 15.0246 2.98217 14.5446 2.49551C14.058 2.01551 13.398 1.72217 12.6646 1.71551C12.6713 1.71551 12.6646 1.71551 12.6646 1.71551Z" fill="#292D32"/>
</svg>
