<svg width="17" height="17" viewBox="0 0 17 17" fill="none" xmlns="http://www.w3.org/2000/svg">
<path d="M11.1829 1.71551H6.14294C3.62294 1.71551 2.99628 2.38884 2.99628 5.07551V12.5822C2.99628 14.3555 3.96961 14.7755 5.14961 13.5088L5.15628 13.5022C5.70294 12.9222 6.53628 12.9688 7.00961 13.6022L7.68294 14.5022C8.22294 15.2155 9.09628 15.2155 9.63628 14.5022L10.3096 13.6022C10.7896 12.9622 11.6229 12.9155 12.1696 13.5022C13.3563 14.7688 14.3229 14.3488 14.3229 12.5755V5.07551C14.3296 2.38884 13.7029 1.71551 11.1829 1.71551ZM10.6629 8.21551H6.66294C6.38961 8.21551 6.16294 7.98884 6.16294 7.71551C6.16294 7.44217 6.38961 7.21551 6.66294 7.21551H10.6629C10.9363 7.21551 11.1629 7.44217 11.1629 7.71551C11.1629 7.98884 10.9363 8.21551 10.6629 8.21551ZM11.3296 5.54884H5.99628C5.72294 5.54884 5.49628 5.32217 5.49628 5.04884C5.49628 4.77551 5.72294 4.54884 5.99628 4.54884H11.3296C11.6029 4.54884 11.8296 4.77551 11.8296 5.04884C11.8296 5.32217 11.6029 5.54884 11.3296 5.54884Z" fill="#292D32"/>
</svg>
