<svg width="17" height="17" viewBox="0 0 17 17" fill="none" xmlns="http://www.w3.org/2000/svg">
<path d="M8.01943 14.6346C11.5172 14.6346 14.3528 11.7991 14.3528 8.30125C14.3528 4.80345 11.5172 1.96792 8.01943 1.96792C4.52163 1.96792 1.6861 4.80345 1.6861 8.30125C1.6861 11.7991 4.52163 14.6346 8.01943 14.6346Z" fill="#4D73FF"/>
<path d="M14.5528 15.3013C14.4328 15.3013 14.3128 15.2546 14.2261 15.1679L12.9861 13.9279C12.8061 13.7479 12.8061 13.4546 12.9861 13.2679C13.1661 13.0879 13.4595 13.0879 13.6461 13.2679L14.8861 14.5079C15.0661 14.6879 15.0661 14.9813 14.8861 15.1679C14.7928 15.2546 14.6728 15.3013 14.5528 15.3013Z" fill="#4D73FF"/>
</svg>
