<svg width="17" height="17" viewBox="0 0 17 17" fill="none" xmlns="http://www.w3.org/2000/svg">
<path d="M13.7476 7.10611C12.541 7.10611 12.0476 6.25278 12.6476 5.20611C12.9943 4.59944 12.7876 3.82611 12.181 3.47944L11.0276 2.81944C10.501 2.50611 9.82097 2.69278 9.50764 3.21944L9.4343 3.34611C8.8343 4.39278 7.84764 4.39278 7.24097 3.34611L7.16764 3.21944C6.86764 2.69278 6.18764 2.50611 5.66097 2.81944L4.50764 3.47944C3.90097 3.82611 3.6943 4.60611 4.04097 5.21278C4.64764 6.25278 4.1543 7.10611 2.94764 7.10611C2.2543 7.10611 1.68097 7.67278 1.68097 8.37278V9.54611C1.68097 10.2394 2.24764 10.8128 2.94764 10.8128C4.1543 10.8128 4.64764 11.6661 4.04097 12.7128C3.6943 13.3194 3.90097 14.0928 4.50764 14.4394L5.66097 15.0994C6.18764 15.4128 6.86764 15.2261 7.18097 14.6994L7.2543 14.5728C7.8543 13.5261 8.84097 13.5261 9.44764 14.5728L9.52097 14.6994C9.8343 15.2261 10.5143 15.4128 11.041 15.0994L12.1943 14.4394C12.801 14.0928 13.0076 13.3128 12.661 12.7128C12.0543 11.6661 12.5476 10.8128 13.7543 10.8128C14.4476 10.8128 15.021 10.2461 15.021 9.54611V8.37278C15.0143 7.67944 14.4476 7.10611 13.7476 7.10611ZM8.34764 11.1261C7.1543 11.1261 6.18097 10.1528 6.18097 8.95944C6.18097 7.76611 7.1543 6.79278 8.34764 6.79278C9.54097 6.79278 10.5143 7.76611 10.5143 8.95944C10.5143 10.1528 9.54097 11.1261 8.34764 11.1261Z" fill="#292D32"/>
</svg>
