<svg width="17" height="17" viewBox="0 0 17 17" fill="none" xmlns="http://www.w3.org/2000/svg">
<path d="M11.6861 2.96792H5.01943C3.01943 2.96792 1.6861 3.96792 1.6861 6.30125V10.9679C1.6861 13.3013 3.01943 14.3013 5.01943 14.3013H11.6861C13.6861 14.3013 15.0194 13.3013 15.0194 10.9679V6.30125C15.0194 3.96792 13.6861 2.96792 11.6861 2.96792ZM11.9994 7.02792L9.91276 8.69458C9.47276 9.04792 8.91276 9.22125 8.35276 9.22125C7.79276 9.22125 7.2261 9.04792 6.79276 8.69458L4.7061 7.02792C4.49276 6.85458 4.45943 6.53458 4.6261 6.32125C4.79943 6.10792 5.11276 6.06792 5.3261 6.24125L7.41276 7.90792C7.91943 8.31458 8.77943 8.31458 9.2861 7.90792L11.3728 6.24125C11.5861 6.06792 11.9061 6.10125 12.0728 6.32125C12.2461 6.53458 12.2128 6.85458 11.9994 7.02792Z" fill="#292D32"/>
</svg>
