<svg width="17" height="16" viewBox="0 0 17 16" fill="none" xmlns="http://www.w3.org/2000/svg">
<path d="M11.8062 2.5H7.32621C6.38621 2.5 5.49288 2.89333 4.85954 3.59333L2.50621 6.18C1.56621 7.21333 1.56621 8.78667 2.50621 9.82L4.85954 12.4067C5.49288 13.1 6.38621 13.5 7.32621 13.5H11.8062C13.6462 13.5 15.1395 12.0067 15.1395 10.1667V5.83333C15.1395 3.99333 13.6462 2.5 11.8062 2.5ZM11.4929 9.29333C11.6862 9.48667 11.6862 9.80667 11.4929 10C11.3929 10.1 11.2662 10.1467 11.1395 10.1467C11.0129 10.1467 10.8862 10.1 10.7862 10L9.49288 8.70667L8.19954 10C8.09954 10.1 7.97288 10.1467 7.84621 10.1467C7.71954 10.1467 7.59288 10.1 7.49288 10C7.29954 9.80667 7.29954 9.48667 7.49288 9.29333L8.78621 8L7.49288 6.70667C7.29954 6.51333 7.29954 6.19333 7.49288 6C7.68621 5.80667 8.00621 5.80667 8.19954 6L9.49288 7.29333L10.7862 6C10.9795 5.80667 11.2995 5.80667 11.4929 6C11.6862 6.19333 11.6862 6.51333 11.4929 6.70667L10.1995 8L11.4929 9.29333Z" fill="#292D32"/>
</svg>
