<svg width="17" height="16" viewBox="0 0 17 16" fill="none" xmlns="http://www.w3.org/2000/svg">
<path d="M11.2662 1.33333H5.67955C3.25288 1.33333 1.80621 2.78 1.80621 5.20667V10.7867C1.80621 13.22 3.25288 14.6667 5.67955 14.6667H11.2595C13.6862 14.6667 15.1329 13.22 15.1329 10.7933V5.20667C15.1395 2.78 13.6929 1.33333 11.2662 1.33333ZM11.6595 6.46666L7.87955 10.2467C7.78621 10.34 7.65955 10.3933 7.52621 10.3933C7.39288 10.3933 7.26621 10.34 7.17288 10.2467L5.28621 8.36C5.09288 8.16667 5.09288 7.84666 5.28621 7.65333C5.47955 7.46 5.79955 7.46 5.99288 7.65333L7.52621 9.18666L10.9529 5.76C11.1462 5.56667 11.4662 5.56667 11.6595 5.76C11.8529 5.95333 11.8529 6.26666 11.6595 6.46666Z" fill="#292D32"/>
</svg>
