<svg width="17" height="17" viewBox="0 0 17 17" fill="none" xmlns="http://www.w3.org/2000/svg">
<path d="M11.1461 1.96792H5.55943C3.13276 1.96792 1.6861 3.41458 1.6861 5.84125V11.4279C1.6861 13.3013 2.5461 14.5879 4.05943 15.0746C4.49943 15.2279 5.0061 15.3013 5.55943 15.3013H11.1461C11.6994 15.3013 12.2061 15.2279 12.6461 15.0746C14.1594 14.5879 15.0194 13.3013 15.0194 11.4279V5.84125C15.0194 3.41458 13.5728 1.96792 11.1461 1.96792ZM14.0194 11.4279C14.0194 12.8546 13.4594 13.7546 12.3328 14.1279C11.6861 12.8546 10.1528 11.9479 8.35276 11.9479C6.55276 11.9479 5.0261 12.8479 4.37276 14.1279H4.3661C3.25276 13.7679 2.6861 12.8613 2.6861 11.4346V5.84125C2.6861 3.96125 3.67943 2.96792 5.55943 2.96792H11.1461C13.0261 2.96792 14.0194 3.96125 14.0194 5.84125V11.4279Z" fill="#292D32"/>
<path d="M8.35279 5.96792C7.03279 5.96792 5.96613 7.03458 5.96613 8.35459C5.96613 9.67459 7.03279 10.7479 8.35279 10.7479C9.67279 10.7479 10.7395 9.67459 10.7395 8.35459C10.7395 7.03458 9.67279 5.96792 8.35279 5.96792Z" fill="#292D32"/>
</svg>
