<svg width="17" height="16" viewBox="0 0 17 16" fill="none" xmlns="http://www.w3.org/2000/svg">
<path d="M14.846 7.16L13.9393 6.10667C13.766 5.90667 13.626 5.53333 13.626 5.26667V4.13333C13.626 3.42667 13.046 2.84666 12.3393 2.84666H11.206C10.946 2.84666 10.566 2.70667 10.366 2.53333L9.31266 1.62667C8.85266 1.23333 8.09933 1.23333 7.63266 1.62667L6.58599 2.54C6.38599 2.70667 6.00599 2.84666 5.74599 2.84666H4.59266C3.88599 2.84666 3.30599 3.42667 3.30599 4.13333V5.27333C3.30599 5.53333 3.16599 5.90667 2.99933 6.10667L2.09933 7.16667C1.71266 7.62667 1.71266 8.37333 2.09933 8.83333L2.99933 9.89333C3.16599 10.0933 3.30599 10.4667 3.30599 10.7267V11.8667C3.30599 12.5733 3.88599 13.1533 4.59266 13.1533H5.74599C6.00599 13.1533 6.38599 13.2933 6.58599 13.4667L7.63933 14.3733C8.09933 14.7667 8.85266 14.7667 9.31933 14.3733L10.3727 13.4667C10.5727 13.2933 10.946 13.1533 11.2127 13.1533H12.346C13.0527 13.1533 13.6327 12.5733 13.6327 11.8667V10.7333C13.6327 10.4733 13.7727 10.0933 13.946 9.89333L14.8527 8.84C15.2393 8.38 15.2393 7.62 14.846 7.16ZM11.246 6.74L8.02599 9.96C7.93266 10.0533 7.80599 10.1067 7.67266 10.1067C7.53933 10.1067 7.41266 10.0533 7.31933 9.96L5.70599 8.34667C5.51266 8.15333 5.51266 7.83333 5.70599 7.64C5.89933 7.44666 6.21933 7.44666 6.41266 7.64L7.67266 8.9L10.5393 6.03333C10.7327 5.84 11.0527 5.84 11.246 6.03333C11.4393 6.22667 11.4393 6.54666 11.246 6.74Z" fill="#292D32"/>
</svg>
