<svg width="17" height="17" viewBox="0 0 17 17" fill="none" xmlns="http://www.w3.org/2000/svg">
<path d="M15.0195 7.69551V9.06884C15.0195 9.43551 14.7261 9.73551 14.3528 9.74884H13.0461C12.3261 9.74884 11.6661 9.22218 11.6061 8.50218C11.5661 8.08218 11.7261 7.68884 12.0061 7.41551C12.2528 7.16218 12.5928 7.01551 12.9661 7.01551H14.3528C14.7261 7.02884 15.0195 7.32884 15.0195 7.69551Z" fill="#292D32"/>
<path d="M13.9994 10.7488H13.0461C11.7794 10.7488 10.7128 9.79551 10.6061 8.58217C10.5461 7.88884 10.7994 7.19551 11.3061 6.70217C11.7328 6.26217 12.3261 6.01551 12.9661 6.01551H13.9994C14.1928 6.01551 14.3528 5.85551 14.3328 5.66217C14.1861 4.04217 13.1128 2.93551 11.5194 2.74884C11.3594 2.72217 11.1928 2.71551 11.0194 2.71551H5.01943C4.83276 2.71551 4.65276 2.72884 4.47943 2.75551C2.77943 2.96884 1.6861 4.23551 1.6861 6.04884V10.7155C1.6861 12.5555 3.17943 14.0488 5.01943 14.0488H11.0194C12.8861 14.0488 14.1728 12.8822 14.3328 11.1022C14.3528 10.9088 14.1928 10.7488 13.9994 10.7488ZM9.01943 6.88217H5.01943C4.7461 6.88217 4.51943 6.65551 4.51943 6.38217C4.51943 6.10884 4.7461 5.88217 5.01943 5.88217H9.01943C9.29276 5.88217 9.51943 6.10884 9.51943 6.38217C9.51943 6.65551 9.29276 6.88217 9.01943 6.88217Z" fill="#292D32"/>
</svg>
