<svg width="17" height="16" viewBox="0 0 17 16" fill="none" xmlns="http://www.w3.org/2000/svg">
<path d="M14.9796 10.6133L10.7129 2.93333C10.1396 1.9 9.34622 1.33333 8.47288 1.33333C7.59955 1.33333 6.80622 1.9 6.23289 2.93333L1.96622 10.6133C1.42622 11.5933 1.36622 12.5333 1.79955 13.2733C2.23289 14.0133 3.08622 14.42 4.20622 14.42H12.7396C13.8596 14.42 14.7129 14.0133 15.1462 13.2733C15.5796 12.5333 15.5196 11.5867 14.9796 10.6133ZM7.97288 6C7.97288 5.72667 8.19955 5.5 8.47288 5.5C8.74622 5.5 8.97288 5.72667 8.97288 6V9.33333C8.97288 9.60667 8.74622 9.83333 8.47288 9.83333C8.19955 9.83333 7.97288 9.60667 7.97288 9.33333V6ZM8.94622 11.8067C8.91288 11.8333 8.87955 11.86 8.84622 11.8867C8.80622 11.9133 8.76622 11.9333 8.72622 11.9467C8.68622 11.9667 8.64622 11.98 8.59955 11.9867C8.55955 11.9933 8.51288 12 8.47288 12C8.43288 12 8.38622 11.9933 8.33955 11.9867C8.29955 11.98 8.25955 11.9667 8.21955 11.9467C8.17955 11.9333 8.13955 11.9133 8.09955 11.8867C8.06622 11.86 8.03288 11.8333 7.99955 11.8067C7.87955 11.68 7.80622 11.5067 7.80622 11.3333C7.80622 11.16 7.87955 10.9867 7.99955 10.86C8.03288 10.8333 8.06622 10.8067 8.09955 10.78C8.13955 10.7533 8.17955 10.7333 8.21955 10.72C8.25955 10.7 8.29955 10.6867 8.33955 10.68C8.42622 10.66 8.51955 10.66 8.59955 10.68C8.64622 10.6867 8.68622 10.7 8.72622 10.72C8.76622 10.7333 8.80622 10.7533 8.84622 10.78C8.87955 10.8067 8.91288 10.8333 8.94622 10.86C9.06622 10.9867 9.13955 11.16 9.13955 11.3333C9.13955 11.5067 9.06622 11.68 8.94622 11.8067Z" fill="#292D32"/>
</svg>
