<svg width="49" height="49" viewBox="0 0 49 49" fill="none" xmlns="http://www.w3.org/2000/svg">
<path d="M33.0836 4.15314H16.3236C9.04361 4.15314 4.70361 8.49314 4.70361 15.7731V32.5131C4.70361 39.8131 9.04361 44.1531 16.3236 44.1531H33.0636C40.3436 44.1531 44.6836 39.8131 44.6836 32.5331V15.7731C44.7036 8.49314 40.3636 4.15314 33.0836 4.15314ZM28.2836 30.1531C28.8636 30.7331 28.8636 31.6931 28.2836 32.2731C27.9836 32.5731 27.6036 32.7131 27.2236 32.7131C26.8436 32.7131 26.4636 32.5731 26.1636 32.2731L19.1036 25.2131C18.5236 24.6331 18.5236 23.6731 19.1036 23.0931L26.1636 16.0331C26.7436 15.4531 27.7036 15.4531 28.2836 16.0331C28.8636 16.6131 28.8636 17.5731 28.2836 18.1531L22.2836 24.1531L28.2836 30.1531Z" fill="#292D32"/>
</svg>
