<svg width="49" height="49" viewBox="0 0 49 49" fill="none" xmlns="http://www.w3.org/2000/svg">
<path d="M33.0836 4.15314H16.3236C9.04361 4.15314 4.70361 8.49314 4.70361 15.7731V32.5131C4.70361 39.8131 9.04361 44.1531 16.3236 44.1531H33.0636C40.3436 44.1531 44.6836 39.8131 44.6836 32.5331V15.7731C44.7036 8.49314 40.3636 4.15314 33.0836 4.15314ZM36.7036 25.6531H16.3236L22.3436 31.6731C22.9236 32.2531 22.9236 33.2131 22.3436 33.7931C22.0436 34.0931 21.6636 34.2331 21.2836 34.2331C20.9036 34.2331 20.5236 34.0931 20.2236 33.7931L11.6436 25.2131C11.3636 24.9331 11.2036 24.5531 11.2036 24.1531C11.2036 23.7531 11.3636 23.3731 11.6436 23.0931L20.2236 14.5131C20.8036 13.9331 21.7636 13.9331 22.3436 14.5131C22.9236 15.0931 22.9236 16.0531 22.3436 16.6331L16.3236 22.6531H36.7036C37.5236 22.6531 38.2036 23.3331 38.2036 24.1531C38.2036 24.9731 37.5236 25.6531 36.7036 25.6531Z" fill="#292D32"/>
</svg>
