<svg width="49" height="49" viewBox="0 0 49 49" fill="none" xmlns="http://www.w3.org/2000/svg">
<path d="M33.0835 4.15314H16.3235C9.04349 4.15314 4.70349 8.49314 4.70349 15.7731V32.5131C4.70349 39.8131 9.04349 44.1531 16.3235 44.1531H33.0635C40.3435 44.1531 44.6835 39.8131 44.6835 32.5331V15.7731C44.7035 8.49314 40.3635 4.15314 33.0835 4.15314ZM32.8235 28.1531C32.5235 28.4531 32.1435 28.5931 31.7635 28.5931C31.3835 28.5931 31.0035 28.4331 30.7035 28.1531L24.7035 22.1531L18.7035 28.1531C18.1235 28.7331 17.1635 28.7331 16.5835 28.1531C16.0035 27.5731 16.0035 26.6131 16.5835 26.0331L23.6435 18.9731C24.2235 18.3931 25.1835 18.3931 25.7635 18.9731L32.8235 26.0331C33.4035 26.6131 33.4035 27.5531 32.8235 28.1531Z" fill="#292D32"/>
</svg>
