<svg width="49" height="49" viewBox="0 0 49 49" fill="none" xmlns="http://www.w3.org/2000/svg">
<path d="M24.4729 4.95944C13.4529 4.95944 4.4729 13.9394 4.4729 24.9594C4.4729 35.9794 13.4529 44.9594 24.4729 44.9594C35.4929 44.9594 44.4729 35.9794 44.4729 24.9594C44.4729 13.9394 35.4929 4.95944 24.4729 4.95944ZM30.0529 26.0194L22.9929 33.0794C22.6929 33.3794 22.3129 33.5194 21.9329 33.5194C21.5529 33.5194 21.1729 33.3794 20.8729 33.0794C20.2929 32.4994 20.2929 31.5394 20.8729 30.9594L26.8729 24.9594L20.8729 18.9594C20.2929 18.3794 20.2929 17.4194 20.8729 16.8394C21.4529 16.2594 22.4129 16.2594 22.9929 16.8394L30.0529 23.8994C30.6529 24.4794 30.6529 25.4394 30.0529 26.0194Z" fill="#292D32"/>
</svg>
