<svg width="49" height="49" viewBox="0 0 49 49" fill="none" xmlns="http://www.w3.org/2000/svg">
<path d="M33.0836 4.15314H16.3236C9.04361 4.15314 4.70361 8.49314 4.70361 15.7731V32.5131C4.70361 39.8131 9.04361 44.1531 16.3236 44.1531H33.0636C40.3436 44.1531 44.6836 39.8131 44.6836 32.5331V15.7731C44.7036 8.49314 40.3636 4.15314 33.0836 4.15314ZM32.8236 22.4931L25.7636 29.5531C25.4636 29.8531 25.0836 29.9931 24.7036 29.9931C24.3236 29.9931 23.9436 29.8531 23.6436 29.5531L16.5836 22.4931C16.0036 21.9131 16.0036 20.9531 16.5836 20.3731C17.1636 19.7931 18.1236 19.7931 18.7036 20.3731L24.7036 26.3731L30.7036 20.3731C31.2836 19.7931 32.2436 19.7931 32.8236 20.3731C33.4036 20.9531 33.4036 21.8931 32.8236 22.4931Z" fill="#292D32"/>
</svg>
