<svg width="49" height="49" viewBox="0 0 49 49" fill="none" xmlns="http://www.w3.org/2000/svg">
<path d="M33.0836 4.15314H16.3236C9.04361 4.15314 4.70361 8.49314 4.70361 15.7731V32.5131C4.70361 39.8131 9.04361 44.1531 16.3236 44.1531H33.0636C40.3436 44.1531 44.6836 39.8131 44.6836 32.5331V15.7731C44.7036 8.49314 40.3636 4.15314 33.0836 4.15314ZM34.3436 21.7931C33.7636 22.3731 32.8036 22.3731 32.2236 21.7931L26.2036 15.7731V36.1531C26.2036 36.9731 25.5236 37.6531 24.7036 37.6531C23.8836 37.6531 23.2036 36.9731 23.2036 36.1531V15.7731L17.1836 21.7931C16.6036 22.3731 15.6436 22.3731 15.0636 21.7931C14.7636 21.4931 14.6236 21.1131 14.6236 20.7331C14.6236 20.3531 14.7836 19.9531 15.0636 19.6731L23.6436 11.0931C23.9236 10.8131 24.3036 10.6531 24.7036 10.6531C25.1036 10.6531 25.4836 10.8131 25.7636 11.0931L34.3436 19.6731C34.9236 20.2531 34.9236 21.1931 34.3436 21.7931Z" fill="#292D32"/>
</svg>
