<svg width="49" height="49" viewBox="0 0 49 49" fill="none" xmlns="http://www.w3.org/2000/svg">
<path d="M24.4729 4.95944C13.4529 4.95944 4.4729 13.9394 4.4729 24.9594C4.4729 35.9794 13.4529 44.9594 24.4729 44.9594C35.4929 44.9594 44.4729 35.9794 44.4729 24.9594C44.4729 13.9394 35.4929 4.95944 24.4729 4.95944ZM32.5929 28.5394C32.2929 28.8394 31.9129 28.9794 31.5329 28.9794C31.1529 28.9794 30.7729 28.8394 30.4729 28.5394L24.4729 22.5394L18.4729 28.5394C17.8929 29.1194 16.9329 29.1194 16.3529 28.5394C15.7729 27.9594 15.7729 26.9994 16.3529 26.4194L23.4129 19.3594C23.9929 18.7794 24.9529 18.7794 25.5329 19.3594L32.5929 26.4194C33.1729 27.0194 33.1729 27.9594 32.5929 28.5394Z" fill="#292D32"/>
</svg>
