<svg width="49" height="49" viewBox="0 0 49 49" fill="none" xmlns="http://www.w3.org/2000/svg">
<path d="M33.0836 4.15314H16.3236C9.04361 4.15314 4.70361 8.49314 4.70361 15.7731V32.5131C4.70361 39.8131 9.04361 44.1531 16.3236 44.1531H33.0636C40.3436 44.1531 44.6836 39.8131 44.6836 32.5331V15.7731C44.7036 8.49314 40.3636 4.15314 33.0836 4.15314ZM34.3436 28.6331L25.7636 37.2131C25.4836 37.4931 25.1036 37.6531 24.7036 37.6531C24.3036 37.6531 23.9236 37.4931 23.6436 37.2131L15.0636 28.6331C14.4836 28.0531 14.4836 27.0931 15.0636 26.5131C15.6436 25.9331 16.6036 25.9331 17.1836 26.5131L23.2036 32.5331V12.1531C23.2036 11.3331 23.8836 10.6531 24.7036 10.6531C25.5236 10.6531 26.2036 11.3331 26.2036 12.1531V32.5331L32.2236 26.5131C32.8036 25.9331 33.7636 25.9331 34.3436 26.5131C34.6436 26.8131 34.7836 27.1931 34.7836 27.5731C34.7836 27.9531 34.6236 28.3531 34.3436 28.6331Z" fill="#292D32"/>
</svg>
