<svg width="49" height="49" viewBox="0 0 49 49" fill="none" xmlns="http://www.w3.org/2000/svg">
<path d="M24.4729 4.95944C13.4529 4.95944 4.4729 13.9394 4.4729 24.9594C4.4729 35.9794 13.4529 44.9594 24.4729 44.9594C35.4929 44.9594 44.4729 35.9794 44.4729 24.9594C44.4729 13.9394 35.4929 4.95944 24.4729 4.95944ZM32.5929 23.4994L25.5329 30.5594C25.2329 30.8594 24.8529 30.9994 24.4729 30.9994C24.0929 30.9994 23.7129 30.8594 23.4129 30.5594L16.3529 23.4994C15.7729 22.9194 15.7729 21.9594 16.3529 21.3794C16.9329 20.7994 17.8929 20.7994 18.4729 21.3794L24.4729 27.3794L30.4729 21.3794C31.0529 20.7994 32.0129 20.7994 32.5929 21.3794C33.1729 21.9594 33.1729 22.8994 32.5929 23.4994Z" fill="#292D32"/>
</svg>
