<svg width="49" height="49" viewBox="0 0 49 49" fill="none" xmlns="http://www.w3.org/2000/svg">
<path d="M33.0836 4.15314H16.3236C9.04361 4.15314 4.70361 8.49314 4.70361 15.7731V32.5131C4.70361 39.8131 9.04361 44.1531 16.3236 44.1531H33.0636C40.3436 44.1531 44.6836 39.8131 44.6836 32.5331V15.7731C44.7036 8.49314 40.3636 4.15314 33.0836 4.15314ZM30.2836 25.2131L23.2236 32.2731C22.9236 32.5731 22.5436 32.7131 22.1636 32.7131C21.7836 32.7131 21.4036 32.5731 21.1036 32.2731C20.5236 31.6931 20.5236 30.7331 21.1036 30.1531L27.1036 24.1531L21.1036 18.1531C20.5236 17.5731 20.5236 16.6131 21.1036 16.0331C21.6836 15.4531 22.6436 15.4531 23.2236 16.0331L30.2836 23.0931C30.8836 23.6731 30.8836 24.6331 30.2836 25.2131Z" fill="#292D32"/>
</svg>
