<svg width="49" height="49" viewBox="0 0 49 49" fill="none" xmlns="http://www.w3.org/2000/svg">
<path d="M24.4729 4.95944C13.4529 4.95944 4.4729 13.9394 4.4729 24.9594C4.4729 35.9794 13.4529 44.9594 24.4729 44.9594C35.4929 44.9594 44.4729 35.9794 44.4729 24.9594C44.4729 13.9394 35.4929 4.95944 24.4729 4.95944ZM28.0529 30.9594C28.6329 31.5394 28.6329 32.4994 28.0529 33.0794C27.7529 33.3794 27.3729 33.5194 26.9929 33.5194C26.6129 33.5194 26.2329 33.3794 25.9329 33.0794L18.8729 26.0194C18.2929 25.4394 18.2929 24.4794 18.8729 23.8994L25.9329 16.8394C26.5129 16.2594 27.4729 16.2594 28.0529 16.8394C28.6329 17.4194 28.6329 18.3794 28.0529 18.9594L22.0529 24.9594L28.0529 30.9594Z" fill="#292D32"/>
</svg>
