<svg width="49" height="49" viewBox="0 0 49 49" fill="none" xmlns="http://www.w3.org/2000/svg">
<path d="M33.0836 4.15314H16.3236C9.04361 4.15314 4.70361 8.49314 4.70361 15.7731V32.5131C4.70361 39.8131 9.04361 44.1531 16.3236 44.1531H33.0636C40.3436 44.1531 44.6836 39.8131 44.6836 32.5331V15.7731C44.7036 8.49314 40.3636 4.15314 33.0836 4.15314ZM37.7636 25.2131L29.1836 33.7931C28.8836 34.0931 28.5036 34.2331 28.1236 34.2331C27.7436 34.2331 27.3636 34.0931 27.0636 33.7931C26.4836 33.2131 26.4836 32.2531 27.0636 31.6731L33.0836 25.6531H12.7036C11.8836 25.6531 11.2036 24.9731 11.2036 24.1531C11.2036 23.3331 11.8836 22.6531 12.7036 22.6531H33.0836L27.0636 16.6331C26.4836 16.0531 26.4836 15.0931 27.0636 14.5131C27.6436 13.9331 28.6036 13.9331 29.1836 14.5131L37.7636 23.0931C38.0436 23.3731 38.2036 23.7531 38.2036 24.1531C38.2036 24.5531 38.0436 24.9331 37.7636 25.2131Z" fill="#292D32"/>
</svg>
