<svg width="49" height="49" viewBox="0 0 49 49" fill="none" xmlns="http://www.w3.org/2000/svg">
<path d="M44.4678 38.4509V44.4509H4.46777V38.4509C4.46777 37.3509 5.36777 36.4509 6.46777 36.4509H42.4678C43.5678 36.4509 44.4678 37.3509 44.4678 38.4509Z" fill="#292D32" stroke="#292D32" stroke-width="1.5" stroke-miterlimit="10" stroke-linecap="round" stroke-linejoin="round"/>
<path d="M14.4678 22.4509H10.4678V36.4509H14.4678V22.4509Z" fill="#292D32"/>
<path d="M22.4678 22.4509H18.4678V36.4509H22.4678V22.4509Z" fill="#292D32"/>
<path d="M30.4678 22.4509H26.4678V36.4509H30.4678V22.4509Z" fill="#292D32"/>
<path d="M38.4678 22.4509H34.4678V36.4509H38.4678V22.4509Z" fill="#292D32"/>
<path d="M46.4678 45.9509H2.46777C1.64777 45.9509 0.967773 45.2709 0.967773 44.4509C0.967773 43.6309 1.64777 42.9509 2.46777 42.9509H46.4678C47.2878 42.9509 47.9678 43.6309 47.9678 44.4509C47.9678 45.2709 47.2878 45.9509 46.4678 45.9509Z" fill="#292D32"/>
<path d="M43.2078 11.9509L25.2078 4.75092C24.8078 4.59092 24.1278 4.59092 23.7278 4.75092L5.72777 11.9509C5.02777 12.2309 4.46777 13.0509 4.46777 13.8109V20.4509C4.46777 21.5509 5.36777 22.4509 6.46777 22.4509H42.4678C43.5678 22.4509 44.4678 21.5509 44.4678 20.4509V13.8109C44.4678 13.0509 43.9078 12.2309 43.2078 11.9509ZM24.4678 17.4509C22.8078 17.4509 21.4678 16.1109 21.4678 14.4509C21.4678 12.7909 22.8078 11.4509 24.4678 11.4509C26.1278 11.4509 27.4678 12.7909 27.4678 14.4509C27.4678 16.1109 26.1278 17.4509 24.4678 17.4509Z" fill="#292D32"/>
</svg>
