<svg width="49" height="49" viewBox="0 0 49 49" fill="none" xmlns="http://www.w3.org/2000/svg">
<path d="M33.8528 7.75458V4.63458C33.8528 3.81458 33.1728 3.13458 32.3528 3.13458C31.5328 3.13458 30.8528 3.81458 30.8528 4.63458V7.63458H17.8528V4.63458C17.8528 3.81458 17.1728 3.13458 16.3528 3.13458C15.5328 3.13458 14.8528 3.81458 14.8528 4.63458V7.75458C9.45278 8.25458 6.83278 11.4746 6.43278 16.2546C6.39278 16.8346 6.87278 17.3146 7.43278 17.3146H41.2728C41.8528 17.3146 42.3328 16.8146 42.2728 16.2546C41.8728 11.4746 39.2528 8.25458 33.8528 7.75458Z" fill="#292D32"/>
<path d="M40.3528 20.3146H8.35278C7.25278 20.3146 6.35278 21.2146 6.35278 22.3146V34.6346C6.35278 40.6346 9.35278 44.6346 16.3528 44.6346H32.3528C39.3528 44.6346 42.3528 40.6346 42.3528 34.6346V22.3146C42.3528 21.2146 41.4528 20.3146 40.3528 20.3146ZM18.7728 37.0546C18.6728 37.1346 18.5728 37.2346 18.4728 37.2946C18.3528 37.3746 18.2328 37.4346 18.1128 37.4746C17.9928 37.5346 17.8728 37.5746 17.7528 37.5946C17.6128 37.6146 17.4928 37.6346 17.3528 37.6346C17.0928 37.6346 16.8328 37.5746 16.5928 37.4746C16.3328 37.3746 16.1328 37.2346 15.9328 37.0546C15.5728 36.6746 15.3528 36.1546 15.3528 35.6346C15.3528 35.1146 15.5728 34.5946 15.9328 34.2146C16.1328 34.0346 16.3328 33.8946 16.5928 33.7946C16.9528 33.6346 17.3528 33.5946 17.7528 33.6746C17.8728 33.6946 17.9928 33.7346 18.1128 33.7946C18.2328 33.8346 18.3528 33.8946 18.4728 33.9746C18.5728 34.0546 18.6728 34.1346 18.7728 34.2146C19.1328 34.5946 19.3528 35.1146 19.3528 35.6346C19.3528 36.1546 19.1328 36.6746 18.7728 37.0546ZM18.7728 30.0546C18.3928 30.4146 17.8728 30.6346 17.3528 30.6346C16.8328 30.6346 16.3128 30.4146 15.9328 30.0546C15.5728 29.6746 15.3528 29.1546 15.3528 28.6346C15.3528 28.1146 15.5728 27.5946 15.9328 27.2146C16.4928 26.6546 17.3728 26.4746 18.1128 26.7946C18.3728 26.8946 18.5928 27.0346 18.7728 27.2146C19.1328 27.5946 19.3528 28.1146 19.3528 28.6346C19.3528 29.1546 19.1328 29.6746 18.7728 30.0546ZM25.7728 37.0546C25.3928 37.4146 24.8728 37.6346 24.3528 37.6346C23.8328 37.6346 23.3128 37.4146 22.9328 37.0546C22.5728 36.6746 22.3528 36.1546 22.3528 35.6346C22.3528 35.1146 22.5728 34.5946 22.9328 34.2146C23.6728 33.4746 25.0328 33.4746 25.7728 34.2146C26.1328 34.5946 26.3528 35.1146 26.3528 35.6346C26.3528 36.1546 26.1328 36.6746 25.7728 37.0546ZM25.7728 30.0546C25.6728 30.1346 25.5728 30.2146 25.4728 30.2946C25.3528 30.3746 25.2328 30.4346 25.1128 30.4746C24.9928 30.5346 24.8728 30.5746 24.7528 30.5946C24.6128 30.6146 24.4928 30.6346 24.3528 30.6346C23.8328 30.6346 23.3128 30.4146 22.9328 30.0546C22.5728 29.6746 22.3528 29.1546 22.3528 28.6346C22.3528 28.1146 22.5728 27.5946 22.9328 27.2146C23.1128 27.0346 23.3328 26.8946 23.5928 26.7946C24.3328 26.4746 25.2128 26.6546 25.7728 27.2146C26.1328 27.5946 26.3528 28.1146 26.3528 28.6346C26.3528 29.1546 26.1328 29.6746 25.7728 30.0546ZM32.7728 37.0546C32.3928 37.4146 31.8728 37.6346 31.3528 37.6346C30.8328 37.6346 30.3128 37.4146 29.9328 37.0546C29.5728 36.6746 29.3528 36.1546 29.3528 35.6346C29.3528 35.1146 29.5728 34.5946 29.9328 34.2146C30.6728 33.4746 32.0328 33.4746 32.7728 34.2146C33.1328 34.5946 33.3528 35.1146 33.3528 35.6346C33.3528 36.1546 33.1328 36.6746 32.7728 37.0546ZM32.7728 30.0546C32.6728 30.1346 32.5728 30.2146 32.4728 30.2946C32.3528 30.3746 32.2328 30.4346 32.1128 30.4746C31.9928 30.5346 31.8728 30.5746 31.7528 30.5946C31.6128 30.6146 31.4728 30.6346 31.3528 30.6346C30.8328 30.6346 30.3128 30.4146 29.9328 30.0546C29.5728 29.6746 29.3528 29.1546 29.3528 28.6346C29.3528 28.1146 29.5728 27.5946 29.9328 27.2146C30.1328 27.0346 30.3328 26.8946 30.5928 26.7946C30.9528 26.6346 31.3528 26.5946 31.7528 26.6746C31.8728 26.6946 31.9928 26.7346 32.1128 26.7946C32.2328 26.8346 32.3528 26.8946 32.4728 26.9746C32.5728 27.0546 32.6728 27.1346 32.7728 27.2146C33.1328 27.5946 33.3528 28.1146 33.3528 28.6346C33.3528 29.1546 33.1328 29.6746 32.7728 30.0546Z" fill="#292D32"/>
</svg>
