<svg width="49" height="49" viewBox="0 0 49 49" fill="none" xmlns="http://www.w3.org/2000/svg">
<path d="M22.4528 30.5346L18.7528 34.2346C17.9728 35.0146 16.7328 35.0146 15.9328 34.2546C15.7128 34.0346 15.4928 33.8346 15.2728 33.6146C13.2128 31.5346 11.3528 29.3546 9.69278 27.0746C8.05278 24.7946 6.73278 22.5146 5.77278 20.2546C4.83278 17.9746 4.35278 15.7946 4.35278 13.7146C4.35278 12.3546 4.59278 11.0546 5.07278 9.85458C5.55278 8.63458 6.31278 7.51458 7.37278 6.51458C8.65278 5.25458 10.0528 4.63458 11.5328 4.63458C12.0928 4.63458 12.6528 4.75458 13.1528 4.99458C13.6728 5.23458 14.1328 5.59458 14.4928 6.11458L19.1328 12.6546C19.4928 13.1546 19.7528 13.6146 19.9328 14.0546C20.1128 14.4746 20.2128 14.8946 20.2128 15.2746C20.2128 15.7546 20.0728 16.2346 19.7928 16.6946C19.5328 17.1546 19.1528 17.6346 18.6728 18.1146L17.1528 19.6946C16.9328 19.9146 16.8328 20.1746 16.8328 20.4946C16.8328 20.6546 16.8528 20.7946 16.8928 20.9546C16.9528 21.1146 17.0128 21.2346 17.0528 21.3546C17.4128 22.0146 18.0328 22.8746 18.9128 23.9146C19.8128 24.9546 20.7728 26.0146 21.8128 27.0746C22.0128 27.2746 22.2328 27.4746 22.4328 27.6746C23.2328 28.4546 23.2528 29.7346 22.4528 30.5346Z" fill="#292D32"/>
<path d="M44.2928 37.2946C44.2928 37.8546 44.1928 38.4346 43.9928 38.9946C43.9328 39.1546 43.8728 39.3146 43.7928 39.4746C43.4528 40.1946 43.0128 40.8746 42.4328 41.5146C41.4528 42.5946 40.3728 43.3746 39.1528 43.8746C39.1328 43.8746 39.1128 43.8946 39.0928 43.8946C37.9128 44.3746 36.6328 44.6346 35.2528 44.6346C33.2128 44.6346 31.0328 44.1546 28.7328 43.1746C26.4328 42.1946 24.1328 40.8746 21.8528 39.2146C21.0728 38.6346 20.2928 38.0546 19.5528 37.4346L26.0928 30.8946C26.6528 31.3146 27.1528 31.6346 27.5728 31.8546C27.6728 31.8946 27.7928 31.9546 27.9328 32.0146C28.0928 32.0746 28.2528 32.0946 28.4328 32.0946C28.7728 32.0946 29.0328 31.9746 29.2528 31.7546L30.7728 30.2546C31.2728 29.7546 31.7528 29.3746 32.2128 29.1346C32.6728 28.8546 33.1328 28.7146 33.6328 28.7146C34.0128 28.7146 34.4128 28.7946 34.8528 28.9746C35.2928 29.1546 35.7528 29.4146 36.2528 29.7546L42.8728 34.4546C43.3928 34.8146 43.7528 35.2346 43.9728 35.7346C44.1728 36.2346 44.2928 36.7346 44.2928 37.2946Z" fill="#292D32"/>
</svg>
