<svg width="49" height="49" viewBox="0 0 49 49" fill="none" xmlns="http://www.w3.org/2000/svg">
<path d="M44.4729 15.211C44.4729 16.531 43.3929 17.611 42.0729 17.611H6.8729C5.5529 17.611 4.4729 16.531 4.4729 15.211V15.191C4.4729 10.611 8.1729 6.91101 12.7529 6.91101H36.1729C40.7529 6.91101 44.4729 10.631 44.4729 15.211Z" fill="#292D32"/>
<path d="M4.4729 23.011V33.031C4.4729 37.611 8.1729 41.311 12.7529 41.311H36.1729C40.7529 41.311 44.4729 37.591 44.4729 33.011V23.011C44.4729 21.691 43.3929 20.611 42.0729 20.611H6.8729C5.5529 20.611 4.4729 21.691 4.4729 23.011ZM16.4729 34.611H12.4729C11.6529 34.611 10.9729 33.931 10.9729 33.111C10.9729 32.291 11.6529 31.611 12.4729 31.611H16.4729C17.2929 31.611 17.9729 32.291 17.9729 33.111C17.9729 33.931 17.2929 34.611 16.4729 34.611ZM29.4729 34.611H21.4729C20.6529 34.611 19.9729 33.931 19.9729 33.111C19.9729 32.291 20.6529 31.611 21.4729 31.611H29.4729C30.2929 31.611 30.9729 32.291 30.9729 33.111C30.9729 33.931 30.2929 34.611 29.4729 34.611Z" fill="#292D32"/>
</svg>
