<svg width="49" height="49" viewBox="0 0 49 49" fill="none" xmlns="http://www.w3.org/2000/svg">
<path d="M32.8529 4.63H16.0929C8.8129 4.63 4.4729 8.97 4.4729 16.25V32.99C4.4729 40.29 8.8129 44.63 16.0929 44.63H32.8329C40.1129 44.63 44.4529 40.29 44.4529 33.01V16.25C44.4729 8.97 40.1329 4.63 32.8529 4.63ZM31.1929 29.23C31.7729 29.81 31.7729 30.77 31.1929 31.35C30.8929 31.65 30.5129 31.79 30.1329 31.79C29.7529 31.79 29.3729 31.65 29.0729 31.35L24.4729 26.75L19.8729 31.35C19.5729 31.65 19.1929 31.79 18.8129 31.79C18.4329 31.79 18.0529 31.65 17.7529 31.35C17.1729 30.77 17.1729 29.81 17.7529 29.23L22.3529 24.63L17.7529 20.03C17.1729 19.45 17.1729 18.49 17.7529 17.91C18.3329 17.33 19.2929 17.33 19.8729 17.91L24.4729 22.51L29.0729 17.91C29.6529 17.33 30.6129 17.33 31.1929 17.91C31.7729 18.49 31.7729 19.45 31.1929 20.03L26.5929 24.63L31.1929 29.23Z" fill="#292D32"/>
</svg>
