<svg width="49" height="49" viewBox="0 0 49 49" fill="none" xmlns="http://www.w3.org/2000/svg">
<path d="M42.3729 9.21944C41.7929 8.37944 41.0529 7.63944 40.2129 7.05944C38.3129 5.67944 35.8329 4.95944 32.8529 4.95944H16.0929C15.6929 4.95944 15.2929 4.97944 14.9129 5.01944C8.3529 5.43944 4.4729 9.69944 4.4729 16.5794V33.3394C4.4729 36.3194 5.1929 38.7994 6.5729 40.6994C7.1529 41.5394 7.8929 42.2794 8.7329 42.8594C10.3729 44.0594 12.4529 44.7594 14.9129 44.9194C15.2929 44.9394 15.6929 44.9594 16.0929 44.9594H32.8529C40.1329 44.9594 44.4729 40.6194 44.4729 33.3394V16.5794C44.4729 13.5994 43.7529 11.1194 42.3729 9.21944ZM17.3929 22.3194L16.4129 21.2994C15.8929 20.7794 15.4729 19.8394 15.4729 19.1994V16.7994C15.4729 15.5394 16.4129 14.5994 17.5729 14.5994H21.8529C22.6729 14.5994 23.1729 15.4994 22.7329 16.1994L19.0329 22.1594C18.6729 22.7394 17.8529 22.8194 17.3929 22.3194ZM33.4729 18.9994C33.4729 19.8394 32.9529 20.8794 32.4329 21.3994L27.9329 25.3794C27.3129 25.8994 26.8929 26.9394 26.8929 27.7794V32.2794C26.8929 32.8994 26.4729 33.7394 25.9529 34.0594L24.4729 34.9994C23.1129 35.8394 21.2329 34.8994 21.2329 33.2194V27.6794C21.2329 26.9394 20.8129 25.9994 20.3929 25.4794L19.9129 24.9594C19.5929 24.6194 19.5329 24.0994 19.7729 23.6794L25.1329 15.0794C25.3329 14.7794 25.6529 14.5794 26.0129 14.5794H31.3729C32.5329 14.5794 33.4729 15.5194 33.4729 16.6794V18.9994Z" fill="#292D32"/>
</svg>
