<svg width="49" height="49" viewBox="0 0 49 49" fill="none" xmlns="http://www.w3.org/2000/svg">
<path d="M5.633 38.131L5.593 38.171C5.053 36.991 4.713 35.651 4.573 34.171C4.713 35.631 5.093 36.951 5.633 38.131Z" fill="#292D32"/>
<path d="M18.4729 20.871C21.1018 20.871 23.2329 18.7398 23.2329 16.111C23.2329 13.4821 21.1018 11.351 18.4729 11.351C15.844 11.351 13.7129 13.4821 13.7129 16.111C13.7129 18.7398 15.844 20.871 18.4729 20.871Z" fill="#292D32"/>
<path d="M32.8529 4.11096H16.0929C8.8129 4.11096 4.4729 8.45096 4.4729 15.731V32.491C4.4729 34.671 4.8529 36.571 5.5929 38.171C7.3129 41.971 10.9929 44.111 16.0929 44.111H32.8529C40.1329 44.111 44.4729 39.771 44.4729 32.491V27.911V15.731C44.4729 8.45096 40.1329 4.11096 32.8529 4.11096ZM41.2129 25.111C39.6529 23.771 37.1329 23.771 35.5729 25.111L27.2529 32.251C25.6929 33.591 23.1729 33.591 21.6129 32.251L20.9329 31.691C19.5129 30.451 17.2529 30.331 15.6529 31.411L8.1729 36.431C7.7329 35.311 7.4729 34.011 7.4729 32.491V15.731C7.4729 10.091 10.4529 7.11096 16.0929 7.11096H32.8529C38.4929 7.11096 41.4729 10.091 41.4729 15.731V25.331L41.2129 25.111Z" fill="#292D32"/>
</svg>
