<svg width="49" height="49" viewBox="0 0 49 49" fill="none" xmlns="http://www.w3.org/2000/svg">
<path d="M40.4328 14.2746L28.9128 6.21458C25.7728 4.01458 20.9528 4.13458 17.9328 6.47458L7.91279 14.2946C5.91279 15.8546 4.33279 19.0546 4.33279 21.5746V35.3746C4.33279 40.4746 8.47279 44.6346 13.5728 44.6346H35.1328C40.2328 44.6346 44.3728 40.4946 44.3728 35.3946V21.8346C44.3728 19.1346 42.6328 15.8146 40.4328 14.2746ZM25.8528 36.6346C25.8528 37.4546 25.1728 38.1346 24.3528 38.1346C23.5328 38.1346 22.8528 37.4546 22.8528 36.6346V30.6346C22.8528 29.8146 23.5328 29.1346 24.3528 29.1346C25.1728 29.1346 25.8528 29.8146 25.8528 30.6346V36.6346Z" fill="#292D32"/>
</svg>
