<svg width="49" height="49" viewBox="0 0 49 49" fill="none" xmlns="http://www.w3.org/2000/svg">
<path d="M41.5928 17.0531C39.4928 7.81314 31.4328 3.65314 24.3528 3.65314C24.3528 3.65314 24.3528 3.65314 24.3328 3.65314C17.2728 3.65314 9.19279 7.79314 7.09279 17.0331C4.75279 27.3531 11.0728 36.0931 16.7928 41.5931C18.9128 43.6331 21.6328 44.6531 24.3528 44.6531C27.0728 44.6531 29.7928 43.6331 31.8928 41.5931C37.6128 36.0931 43.9328 27.3731 41.5928 17.0531ZM24.3528 27.0731C20.8728 27.0731 18.0528 24.2531 18.0528 20.7731C18.0528 17.2931 20.8728 14.4731 24.3528 14.4731C27.8328 14.4731 30.6528 17.2931 30.6528 20.7731C30.6528 24.2531 27.8328 27.0731 24.3528 27.0731Z" fill="#292D32"/>
</svg>
