<svg width="49" height="49" viewBox="0 0 49 49" fill="none" xmlns="http://www.w3.org/2000/svg">
<path d="M37.8528 16.6346V20.8346C36.9728 20.7146 35.9728 20.6546 34.8528 20.6346V16.6346C34.8528 10.3346 33.0728 6.13458 24.3528 6.13458C15.6328 6.13458 13.8528 10.3346 13.8528 16.6346V20.6346C12.7328 20.6546 11.7328 20.7146 10.8528 20.8346V16.6346C10.8528 10.8346 12.2528 3.13458 24.3528 3.13458C36.4528 3.13458 37.8528 10.8346 37.8528 16.6346Z" fill="#292D32"/>
<path d="M37.8528 20.8346C36.9728 20.7146 35.9728 20.6546 34.8528 20.6346H13.8528C12.7328 20.6546 11.7328 20.7146 10.8528 20.8346C5.75278 21.4546 4.35278 23.9546 4.35278 30.6346V34.6346C4.35278 42.6346 6.35278 44.6346 14.3528 44.6346H34.3528C42.3528 44.6346 44.3528 42.6346 44.3528 34.6346V30.6346C44.3528 23.9546 42.9528 21.4546 37.8528 20.8346ZM17.7728 34.0546C17.3928 34.4146 16.8728 34.6346 16.3528 34.6346C16.0928 34.6346 15.8328 34.5746 15.5928 34.4746C15.3328 34.3746 15.1328 34.2346 14.9328 34.0546C14.5728 33.6746 14.3528 33.1546 14.3528 32.6346C14.3528 32.3746 14.4128 32.1146 14.5128 31.8746C14.6128 31.6346 14.7528 31.4146 14.9328 31.2146C15.1328 31.0346 15.3328 30.8946 15.5928 30.7946C16.3328 30.4746 17.2128 30.6546 17.7728 31.2146C17.9528 31.4146 18.0928 31.6346 18.1928 31.8746C18.2928 32.1146 18.3528 32.3746 18.3528 32.6346C18.3528 33.1546 18.1328 33.6746 17.7728 34.0546ZM26.1928 33.3946C26.0928 33.6346 25.9528 33.8546 25.7728 34.0546C25.3928 34.4146 24.8728 34.6346 24.3528 34.6346C23.8128 34.6346 23.3128 34.4146 22.9328 34.0546C22.7528 33.8546 22.6128 33.6346 22.5128 33.3946C22.4128 33.1546 22.3528 32.8946 22.3528 32.6346C22.3528 32.0946 22.5728 31.5946 22.9328 31.2146C23.6728 30.4746 25.0128 30.4746 25.7728 31.2146C26.1328 31.5946 26.3528 32.0946 26.3528 32.6346C26.3528 32.8946 26.2928 33.1546 26.1928 33.3946ZM33.7728 34.0546C33.3928 34.4146 32.8728 34.6346 32.3528 34.6346C31.8328 34.6346 31.3128 34.4146 30.9328 34.0546C30.5728 33.6746 30.3528 33.1746 30.3528 32.6346C30.3528 32.0946 30.5728 31.5946 30.9328 31.2146C31.6928 30.4746 33.0328 30.4746 33.7728 31.2146C33.8528 31.3146 33.9328 31.4146 34.0128 31.5346C34.0928 31.6346 34.1528 31.7546 34.1928 31.8746C34.2528 31.9946 34.2928 32.1146 34.3128 32.2346C34.3328 32.3746 34.3528 32.5146 34.3528 32.6346C34.3528 33.1546 34.1328 33.6746 33.7728 34.0546Z" fill="#292D32"/>
</svg>
