<svg width="52" height="49" viewBox="0 0 52 49" fill="none" xmlns="http://www.w3.org/2000/svg">
<path d="M49.4608 23.0573L42.4441 29.8194C41.4807 30.7465 40.8263 32.6007 41.0263 33.9276L42.1169 41.8532C42.8259 46.9248 39.6811 49.1243 35.1366 46.7612L27.4292 42.7257C26.1386 42.0531 24.03 42.0895 22.7757 42.8348L16.0317 46.7794C10.7056 49.8878 7.52449 47.5429 8.94236 41.5442L10.9237 33.1642C11.2873 31.6372 10.6147 29.5468 9.46952 28.5106L3.08909 22.7483C-1.47355 18.6219 -0.201096 14.8773 5.94302 14.4046L13.7231 13.8229C15.1774 13.7139 16.9406 12.5687 17.6132 11.278L21.6487 3.53427C24.03 -0.992013 27.8655 -0.973835 30.1741 3.58881L33.7733 10.7145C34.3914 11.9143 35.9546 13.0776 37.2816 13.2776L46.9159 14.8409C52.1148 15.7134 53.26 19.4035 49.4608 23.0573Z" fill="#292D32"/>
</svg>
