<svg width="49" height="49" viewBox="0 0 49 49" fill="none" xmlns="http://www.w3.org/2000/svg">
<path d="M42.9729 37.57L39.6729 38.35C38.9329 38.53 38.3529 39.09 38.1929 39.83L37.4929 42.77C37.1129 44.37 35.0729 44.87 34.0129 43.61L28.0329 36.73C27.5529 36.17 27.8129 35.29 28.5329 35.11C32.0729 34.25 35.2529 32.27 37.5929 29.45C37.9729 28.99 38.6529 28.93 39.0729 29.35L43.5129 33.79C45.0329 35.31 44.4929 37.21 42.9729 37.57Z" fill="#292D32"/>
<path d="M5.87292 37.57L9.17292 38.35C9.91292 38.53 10.4929 39.09 10.6529 39.83L11.3529 42.77C11.7329 44.37 13.7729 44.87 14.8329 43.61L20.8129 36.73C21.2929 36.17 21.0329 35.29 20.3129 35.11C16.7729 34.25 13.5929 32.27 11.2529 29.45C10.8729 28.99 10.1929 28.93 9.77292 29.35L5.33292 33.79C3.81292 35.31 4.35292 37.21 5.87292 37.57Z" fill="#292D32"/>
<path d="M24.4729 4.63C16.7329 4.63 10.4729 10.89 10.4729 18.63C10.4729 21.53 11.3329 24.19 12.8129 26.41C14.9729 29.61 18.3929 31.87 22.3729 32.45C23.0529 32.57 23.7529 32.63 24.4729 32.63C25.1929 32.63 25.8929 32.57 26.5729 32.45C30.5529 31.87 33.9729 29.61 36.1329 26.41C37.6129 24.19 38.4729 21.53 38.4729 18.63C38.4729 10.89 32.2129 4.63 24.4729 4.63ZM30.5929 18.19L28.9329 19.85C28.6529 20.13 28.4929 20.67 28.5929 21.07L29.0729 23.13C29.4529 24.75 28.5929 25.39 27.1529 24.53L25.1529 23.35C24.7929 23.13 24.1929 23.13 23.8329 23.35L21.8329 24.53C20.3929 25.37 19.5329 24.75 19.9129 23.13L20.3929 21.07C20.4729 20.69 20.3329 20.13 20.0529 19.85L18.3529 18.19C17.3729 17.21 17.6929 16.23 19.0529 16.01L21.1929 15.65C21.5529 15.59 21.9729 15.27 22.1329 14.95L23.3129 12.59C23.9529 11.31 24.9929 11.31 25.6329 12.59L26.8129 14.95C26.9729 15.27 27.3929 15.59 27.7729 15.65L29.9129 16.01C31.2529 16.23 31.5729 17.21 30.5929 18.19Z" fill="#292D32"/>
</svg>
