<svg width="49" height="49" viewBox="0 0 49 49" fill="none" xmlns="http://www.w3.org/2000/svg">
<path d="M31.6478 25.2509V33.3909C31.6478 34.1109 31.5678 34.7909 31.3878 35.4109C30.6478 38.3509 28.2078 40.1909 24.8478 40.1909H19.4078L13.3678 44.2109C12.4678 44.8309 11.2678 44.1709 11.2678 43.0909V40.1909C9.22777 40.1909 7.52777 39.5109 6.34777 38.3309C5.14777 37.1309 4.46777 35.4309 4.46777 33.3909V25.2509C4.46777 21.4509 6.82777 18.8309 10.4678 18.4909C10.7278 18.4709 10.9878 18.4509 11.2678 18.4509H24.8478C28.9278 18.4509 31.6478 21.1709 31.6478 25.2509Z" fill="#292D32"/>
<path d="M35.9678 31.6509C38.5078 31.6509 40.6478 30.8109 42.1278 29.3109C43.6278 27.8309 44.4678 25.6909 44.4678 23.1509V12.9509C44.4678 8.25093 40.6678 4.45093 35.9678 4.45093H18.9678C14.2678 4.45093 10.4678 8.25093 10.4678 12.9509V14.4509C10.4678 15.0109 10.9078 15.4509 11.4678 15.4509H24.8478C30.2678 15.4509 34.6478 19.8309 34.6478 25.2509V30.6509C34.6478 31.2109 35.0878 31.6509 35.6478 31.6509H35.9678Z" fill="#292D32"/>
</svg>
