<svg width="49" height="49" viewBox="0 0 49 49" fill="none" xmlns="http://www.w3.org/2000/svg">
<path d="M32.8529 4.63H16.0929C8.8129 4.63 4.4729 8.97 4.4729 16.25V32.99C4.4729 40.29 8.8129 44.63 16.0929 44.63H32.8329C40.1129 44.63 44.4529 40.29 44.4529 33.01V16.25C44.4729 8.97 40.1329 4.63 32.8529 4.63ZM32.4729 26.13H16.4729C15.6529 26.13 14.9729 25.45 14.9729 24.63C14.9729 23.81 15.6529 23.13 16.4729 23.13H32.4729C33.2929 23.13 33.9729 23.81 33.9729 24.63C33.9729 25.45 33.2929 26.13 32.4729 26.13Z" fill="#292D32"/>
</svg>
