<svg width="49" height="49" viewBox="0 0 49 49" fill="none" xmlns="http://www.w3.org/2000/svg">
<path d="M38.8078 13.7309C37.9478 9.39092 34.7278 7.49092 30.2478 7.49092H12.6878C7.40779 7.49092 3.88779 10.1309 3.88779 16.2909V26.5909C3.88779 31.0309 5.70779 33.6309 8.70779 34.7509C9.14779 34.9109 9.62779 35.0509 10.1278 35.1309C10.9278 35.3109 11.7878 35.3909 12.6878 35.3909H30.2678C35.5478 35.3909 39.0678 32.7509 39.0678 26.5909V16.2909C39.0678 15.3509 38.9878 14.5109 38.8078 13.7309ZM11.5278 24.4509C11.5278 25.2709 10.8478 25.9509 10.0278 25.9509C9.20779 25.9509 8.52779 25.2709 8.52779 24.4509V18.4509C8.52779 17.6309 9.20779 16.9509 10.0278 16.9509C10.8478 16.9509 11.5278 17.6309 11.5278 18.4509V24.4509ZM21.4678 26.7309C18.5478 26.7309 16.1878 24.3709 16.1878 21.4509C16.1878 18.5309 18.5478 16.1709 21.4678 16.1709C24.3878 16.1709 26.7478 18.5309 26.7478 21.4509C26.7478 24.3709 24.3878 26.7309 21.4678 26.7309ZM34.3878 24.4509C34.3878 25.2709 33.7078 25.9509 32.8878 25.9509C32.0678 25.9509 31.3878 25.2709 31.3878 24.4509V18.4509C31.3878 17.6309 32.0678 16.9509 32.8878 16.9509C33.7078 16.9509 34.3878 17.6309 34.3878 18.4509V24.4509Z" fill="#292D32"/>
<path d="M45.0678 22.2909V32.5909C45.0678 38.7509 41.5478 41.4109 36.2478 41.4109H18.6878C17.1878 41.4109 15.8478 41.1909 14.6878 40.7509C13.7478 40.4109 12.9278 39.9109 12.2678 39.2709C11.9078 38.9309 12.1878 38.3909 12.6878 38.3909H30.2478C37.6478 38.3909 42.0478 33.9909 42.0478 26.6109V16.2909C42.0478 15.8109 42.5878 15.5109 42.9278 15.8709C44.2878 17.3109 45.0678 19.4109 45.0678 22.2909Z" fill="#292D32"/>
</svg>
