<svg width="49" height="49" viewBox="0 0 49 49" fill="none" xmlns="http://www.w3.org/2000/svg">
<path d="M32.8529 4.63H16.0929C8.8129 4.63 4.4729 8.97 4.4729 16.25V32.99C4.4729 40.29 8.8129 44.63 16.0929 44.63H32.8329C40.1129 44.63 44.4529 40.29 44.4529 33.01V16.25C44.4729 8.97 40.1329 4.63 32.8529 4.63ZM16.4729 26.63C15.3529 26.63 14.4729 25.73 14.4729 24.63C14.4729 23.53 15.3729 22.63 16.4729 22.63C17.5729 22.63 18.4729 23.53 18.4729 24.63C18.4729 25.73 17.5929 26.63 16.4729 26.63ZM24.4729 26.63C23.3529 26.63 22.4729 25.73 22.4729 24.63C22.4729 23.53 23.3729 22.63 24.4729 22.63C25.5729 22.63 26.4729 23.53 26.4729 24.63C26.4729 25.73 25.5929 26.63 24.4729 26.63ZM32.4729 26.63C31.3529 26.63 30.4729 25.73 30.4729 24.63C30.4729 23.53 31.3729 22.63 32.4729 22.63C33.5729 22.63 34.4729 23.53 34.4729 24.63C34.4729 25.73 33.5929 26.63 32.4729 26.63Z" fill="#292D32"/>
</svg>
