<svg width="49" height="49" viewBox="0 0 49 49" fill="none" xmlns="http://www.w3.org/2000/svg">
<path d="M39.0328 29.6146L37.0328 26.2946C36.6128 25.5546 36.2328 24.1546 36.2328 23.3346V18.2746C36.2328 13.5746 33.4728 9.51458 29.4928 7.61458C28.4528 5.77458 26.5328 4.63458 24.3328 4.63458C22.1528 4.63458 20.1928 5.81458 19.1528 7.67458C15.2528 9.61458 12.5528 13.6346 12.5528 18.2746V23.3346C12.5528 24.1546 12.1728 25.5546 11.7528 26.2746L9.73279 29.6146C8.93279 30.9546 8.75279 32.4346 9.25279 33.7946C9.73279 35.1346 10.8728 36.1746 12.3528 36.6746C16.2328 37.9946 20.3128 38.6346 24.3928 38.6346C28.4728 38.6346 32.5528 37.9946 36.4328 36.6946C37.8328 36.2346 38.9128 35.1746 39.4328 33.7946C39.9528 32.4146 39.8128 30.8946 39.0328 29.6146Z" fill="#292D32"/>
<path d="M30.0128 40.6546C29.1728 42.9746 26.9528 44.6346 24.3528 44.6346C22.7728 44.6346 21.2128 43.9946 20.1128 42.8546C19.4728 42.2546 18.9928 41.4546 18.7128 40.6346C18.9728 40.6746 19.2328 40.6946 19.5128 40.7346C19.9728 40.7946 20.4528 40.8546 20.9328 40.8946C22.0728 40.9946 23.2328 41.0546 24.3928 41.0546C25.5328 41.0546 26.6728 40.9946 27.7928 40.8946C28.2128 40.8546 28.6328 40.8346 29.0328 40.7746C29.3528 40.7346 29.6728 40.6946 30.0128 40.6546Z" fill="#292D32"/>
</svg>
