<svg width="49" height="49" viewBox="0 0 49 49" fill="none" xmlns="http://www.w3.org/2000/svg">
<path d="M42.9629 18.7509C38.3429 11.4909 31.5829 7.31091 24.4629 7.31091C20.9029 7.31091 17.4429 8.35091 14.2829 10.2909C11.1229 12.2509 8.28289 15.1109 5.96289 18.7509C3.96289 21.8909 3.96289 26.9909 5.96289 30.1309C10.5829 37.4109 17.3429 41.5709 24.4629 41.5709C28.0229 41.5709 31.4829 40.5309 34.6429 38.5909C37.8029 36.6309 40.6429 33.7709 42.9629 30.1309C44.9629 27.0109 44.9629 21.8909 42.9629 18.7509ZM24.4629 32.5309C19.9829 32.5309 16.3829 28.9109 16.3829 24.4509C16.3829 19.9909 19.9829 16.3709 24.4629 16.3709C28.9429 16.3709 32.5429 19.9909 32.5429 24.4509C32.5429 28.9109 28.9429 32.5309 24.4629 32.5309Z" fill="#292D32"/>
<path d="M24.4629 18.7309C21.3229 18.7309 18.7629 21.2909 18.7629 24.4509C18.7629 27.5909 21.3229 30.1509 24.4629 30.1509C27.6029 30.1509 30.1829 27.5909 30.1829 24.4509C30.1829 21.3109 27.6029 18.7309 24.4629 18.7309Z" fill="#292D32"/>
</svg>
