<svg width="49" height="49" viewBox="0 0 49 49" fill="none" xmlns="http://www.w3.org/2000/svg">
<path d="M24.3528 35.3346C26.1532 35.3346 27.6128 33.875 27.6128 32.0746C27.6128 30.2741 26.1532 28.8146 24.3528 28.8146C22.5523 28.8146 21.0928 30.2741 21.0928 32.0746C21.0928 33.875 22.5523 35.3346 24.3528 35.3346Z" fill="#292D32"/>
<path d="M36.9128 19.6946V17.1946C36.9128 11.7946 35.6128 4.63458 24.3528 4.63458C13.0928 4.63458 11.7928 11.7946 11.7928 17.1946V19.6946C6.19278 20.3946 4.35278 23.2346 4.35278 30.2146V33.9346C4.35278 42.1346 6.85278 44.6346 15.0528 44.6346H33.6528C41.8528 44.6346 44.3528 42.1346 44.3528 33.9346V30.2146C44.3528 23.2346 42.5128 20.3946 36.9128 19.6946ZM24.3528 38.1146C21.0128 38.1146 18.3128 35.3946 18.3128 32.0746C18.3128 28.7346 21.0328 26.0346 24.3528 26.0346C27.6728 26.0346 30.3928 28.7546 30.3928 32.0746C30.3928 35.4146 27.6928 38.1146 24.3528 38.1146ZM15.0528 19.5146C14.8928 19.5146 14.7528 19.5146 14.5928 19.5146V17.1946C14.5928 11.3346 16.2528 7.43458 24.3528 7.43458C32.4528 7.43458 34.1128 11.3346 34.1128 17.1946V19.5346C33.9528 19.5346 33.8128 19.5346 33.6528 19.5346H15.0528V19.5146Z" fill="#292D32"/>
</svg>
