<svg width="49" height="49" viewBox="0 0 49 49" fill="none" xmlns="http://www.w3.org/2000/svg">
<path d="M42.8924 18.8109C42.3124 17.8909 41.6924 17.0309 41.0524 16.2309C40.3124 15.2909 38.9124 15.2109 38.0724 16.0509L32.0724 22.0509C32.5124 23.3709 32.5924 24.8909 32.1924 26.4709C31.4924 29.2909 29.2124 31.5709 26.3924 32.2709C24.8124 32.6709 23.2924 32.5909 21.9724 32.1509C21.9724 32.1509 19.1124 35.0109 17.0524 37.0709C16.0524 38.0709 16.3724 39.8309 17.7124 40.3509C19.8524 41.1709 22.0724 41.5909 24.3524 41.5909C27.9124 41.5909 31.3724 40.5509 34.5324 38.6109C37.7524 36.6109 40.6524 33.6709 42.9924 29.9309C44.8924 26.9109 44.7924 21.8309 42.8924 18.8109Z" fill="#292D32"/>
<path d="M28.3926 20.4109L20.3126 28.4909C19.2926 27.4509 18.6326 26.0109 18.6326 24.4509C18.6326 21.3109 21.1926 18.7309 24.3526 18.7309C25.9126 18.7309 27.3526 19.3909 28.3926 20.4109Z" fill="#292D32"/>
<path d="M36.8525 11.9509L30.0725 18.7309C28.6125 17.2509 26.5925 16.3709 24.3525 16.3709C19.8725 16.3709 16.2725 19.9909 16.2725 24.4509C16.2725 26.6909 17.1725 28.7109 18.6325 30.1709L11.8725 36.9509H11.8525C9.63254 35.1509 7.59254 32.8509 5.85254 30.1309C3.85254 26.9909 3.85254 21.8909 5.85254 18.7509C8.17254 15.1109 11.0125 12.2509 14.1725 10.2909C17.3325 8.37091 20.7925 7.31091 24.3525 7.31091C28.8125 7.31091 33.1325 8.95091 36.8525 11.9509Z" fill="#292D32"/>
<path d="M30.0725 24.4509C30.0725 27.5909 27.5125 30.1709 24.3525 30.1709C24.2325 30.1709 24.1325 30.1709 24.0125 30.1309L30.0325 24.1109C30.0725 24.2309 30.0725 24.3309 30.0725 24.4509Z" fill="#292D32"/>
<path d="M43.8926 4.91094C43.2926 4.31094 42.3125 4.31094 41.7126 4.91094L4.81255 41.8309C4.21255 42.4309 4.21255 43.4109 4.81255 44.0109C5.11255 44.2909 5.49255 44.4509 5.89255 44.4509C6.29255 44.4509 6.67255 44.2909 6.97255 43.9909L43.8926 7.07094C44.5126 6.47094 44.5126 5.51094 43.8926 4.91094Z" fill="#292D32"/>
</svg>
