<svg width="49" height="49" viewBox="0 0 49 49" fill="none" xmlns="http://www.w3.org/2000/svg">
<path d="M13.8129 28.63H8.4729C6.2729 28.63 4.4729 30.43 4.4729 32.63V42.63C4.4729 43.73 5.3729 44.63 6.4729 44.63H13.8129C14.9129 44.63 15.8129 43.73 15.8129 42.63V30.63C15.8129 29.53 14.9129 28.63 13.8129 28.63Z" fill="#292D32"/>
<path d="M27.1329 20.63H21.7929C19.5929 20.63 17.7929 22.43 17.7929 24.63V42.63C17.7929 43.73 18.6929 44.63 19.7929 44.63H29.1329C30.2329 44.63 31.1329 43.73 31.1329 42.63V24.63C31.1329 22.43 29.3529 20.63 27.1329 20.63Z" fill="#292D32"/>
<path d="M40.4729 34.63H35.1329C34.0329 34.63 33.1329 35.53 33.1329 36.63V42.63C33.1329 43.73 34.0329 44.63 35.1329 44.63H42.4729C43.5729 44.63 44.4729 43.73 44.4729 42.63V38.63C44.4729 36.43 42.6729 34.63 40.4729 34.63Z" fill="#292D32"/>
<path d="M30.4929 10.33C31.1129 9.71001 31.3529 8.97001 31.1529 8.33001C30.9529 7.69001 30.3329 7.23001 29.4529 7.09001L27.5329 6.77001C27.4529 6.77001 27.2729 6.63001 27.2329 6.55001L26.1729 4.43001C25.3729 2.81001 23.5529 2.81001 22.7529 4.43001L21.6929 6.55001C21.6729 6.63001 21.4929 6.77001 21.4129 6.77001L19.4929 7.09001C18.6129 7.23001 18.0129 7.69001 17.7929 8.33001C17.5929 8.97001 17.8329 9.71001 18.4529 10.33L19.9329 11.83C20.0129 11.89 20.0729 12.13 20.0529 12.21L19.6329 14.05C19.3129 15.43 19.8329 16.05 20.1729 16.29C20.5129 16.53 21.2529 16.85 22.4729 16.13L24.2729 15.07C24.3529 15.01 24.6129 15.01 24.6929 15.07L26.4729 16.13C27.0329 16.47 27.4929 16.57 27.8529 16.57C28.2729 16.57 28.5729 16.41 28.7529 16.29C29.0929 16.05 29.6129 15.43 29.2929 14.05L28.8729 12.21C28.8529 12.11 28.9129 11.89 28.9929 11.83L30.4929 10.33Z" fill="#292D32"/>
</svg>
