<svg width="49" height="49" viewBox="0 0 49 49" fill="none" xmlns="http://www.w3.org/2000/svg">
<path d="M14.4729 4.11096H12.4729C6.4729 4.11096 4.4729 7.69096 4.4729 12.111V14.111V42.111C4.4729 43.771 6.3529 44.711 7.6729 43.711L11.0929 41.151C11.8929 40.551 13.0129 40.631 13.7329 41.351L17.0529 44.691C17.8329 45.471 19.1129 45.471 19.8929 44.691L23.2529 41.331C23.9529 40.631 25.0729 40.551 25.8529 41.151L29.2729 43.711C30.5929 44.691 32.4729 43.751 32.4729 42.111V8.11096C32.4729 5.91096 34.2729 4.11096 36.4729 4.11096H14.4729ZM22.9729 27.611H13.9729C13.1529 27.611 12.4729 26.931 12.4729 26.111C12.4729 25.291 13.1529 24.611 13.9729 24.611H22.9729C23.7929 24.611 24.4729 25.291 24.4729 26.111C24.4729 26.931 23.7929 27.611 22.9729 27.611ZM24.4729 19.611H12.4729C11.6529 19.611 10.9729 18.931 10.9729 18.111C10.9729 17.291 11.6529 16.611 12.4729 16.611H24.4729C25.2929 16.611 25.9729 17.291 25.9729 18.111C25.9729 18.931 25.2929 19.611 24.4729 19.611Z" fill="#292D32"/>
<path d="M36.4929 4.11096V7.11096C37.8129 7.11096 39.0729 7.65096 39.9929 8.55096C40.9529 9.53096 41.4729 10.791 41.4729 12.111V16.951C41.4729 18.431 40.8129 19.111 39.3129 19.111H35.4729V8.13096C35.4729 7.57096 35.9329 7.11096 36.4929 7.11096V4.11096ZM36.4929 4.11096C34.2729 4.11096 32.4729 5.91096 32.4729 8.13096V22.111H39.3129C42.4729 22.111 44.4729 20.111 44.4729 16.951V12.111C44.4729 9.91096 43.5729 7.91096 42.1329 6.45096C40.6729 5.01096 38.6929 4.13096 36.4929 4.11096C36.5129 4.11096 36.4929 4.11096 36.4929 4.11096Z" fill="#292D32"/>
</svg>
