<svg width="49" height="49" viewBox="0 0 49 49" fill="none" xmlns="http://www.w3.org/2000/svg">
<path d="M32.0329 4.11096H16.9129C9.3529 4.11096 7.4729 6.13096 7.4729 14.191V36.711C7.4729 42.031 10.3929 43.291 13.9329 39.491L13.9529 39.471C15.5929 37.731 18.0929 37.871 19.5129 39.771L21.5329 42.471C23.1529 44.611 25.7729 44.611 27.3929 42.471L29.4129 39.771C30.8529 37.851 33.3529 37.711 34.9929 39.471C38.5529 43.271 41.4529 42.011 41.4529 36.691V14.191C41.4729 6.13096 39.5929 4.11096 32.0329 4.11096ZM30.4729 23.611H18.4729C17.6529 23.611 16.9729 22.931 16.9729 22.111C16.9729 21.291 17.6529 20.611 18.4729 20.611H30.4729C31.2929 20.611 31.9729 21.291 31.9729 22.111C31.9729 22.931 31.2929 23.611 30.4729 23.611ZM32.4729 15.611H16.4729C15.6529 15.611 14.9729 14.931 14.9729 14.111C14.9729 13.291 15.6529 12.611 16.4729 12.611H32.4729C33.2929 12.611 33.9729 13.291 33.9729 14.111C33.9729 14.931 33.2929 15.611 32.4729 15.611Z" fill="#292D32"/>
</svg>
