<svg width="49" height="49" viewBox="0 0 49 49" fill="none" xmlns="http://www.w3.org/2000/svg">
<path d="M23.3528 42.6346C33.8462 42.6346 42.3528 34.128 42.3528 23.6346C42.3528 13.1412 33.8462 4.63458 23.3528 4.63458C12.8594 4.63458 4.35278 13.1412 4.35278 23.6346C4.35278 34.128 12.8594 42.6346 23.3528 42.6346Z" fill="#292D32"/>
<path d="M42.9528 44.6346C42.5928 44.6346 42.2328 44.4946 41.9728 44.2346L38.2528 40.5146C37.7128 39.9746 37.7128 39.0946 38.2528 38.5346C38.7928 37.9946 39.6728 37.9946 40.2328 38.5346L43.9528 42.2546C44.4928 42.7946 44.4928 43.6746 43.9528 44.2346C43.6728 44.4946 43.3128 44.6346 42.9528 44.6346Z" fill="#292D32"/>
</svg>
