<svg width="49" height="49" viewBox="0 0 49 49" fill="none" xmlns="http://www.w3.org/2000/svg">
<path d="M40.6729 19.3994C37.0529 19.3994 35.5729 16.8394 37.3729 13.6994C38.4129 11.8794 37.7929 9.55944 35.9729 8.51944L32.5129 6.53944C30.9329 5.59944 28.8929 6.15944 27.9529 7.73944L27.7329 8.11944C25.9329 11.2594 22.9729 11.2594 21.1529 8.11944L20.9329 7.73944C20.0329 6.15944 17.9929 5.59944 16.4129 6.53944L12.9529 8.51944C11.1329 9.55944 10.5129 11.8994 11.5529 13.7194C13.3729 16.8394 11.8929 19.3994 8.2729 19.3994C6.1929 19.3994 4.4729 21.0994 4.4729 23.1994V26.7194C4.4729 28.7994 6.1729 30.5194 8.2729 30.5194C11.8929 30.5194 13.3729 33.0794 11.5529 36.2194C10.5129 38.0394 11.1329 40.3594 12.9529 41.3994L16.4129 43.3794C17.9929 44.3194 20.0329 43.7594 20.9729 42.1794L21.1929 41.7994C22.9929 38.6594 25.9529 38.6594 27.7729 41.7994L27.9929 42.1794C28.9329 43.7594 30.9729 44.3194 32.5529 43.3794L36.0129 41.3994C37.8329 40.3594 38.4529 38.0194 37.4129 36.2194C35.5929 33.0794 37.0729 30.5194 40.6929 30.5194C42.7729 30.5194 44.4929 28.8194 44.4929 26.7194V23.1994C44.4729 21.1194 42.7729 19.3994 40.6729 19.3994ZM24.4729 31.4594C20.8929 31.4594 17.9729 28.5394 17.9729 24.9594C17.9729 21.3794 20.8929 18.4594 24.4729 18.4594C28.0529 18.4594 30.9729 21.3794 30.9729 24.9594C30.9729 28.5394 28.0529 31.4594 24.4729 31.4594Z" fill="#292D32"/>
</svg>
