<svg width="49" height="49" viewBox="0 0 49 49" fill="none" xmlns="http://www.w3.org/2000/svg">
<path d="M34.3528 7.63458H14.3528C8.35278 7.63458 4.35278 10.6346 4.35278 17.6346V31.6346C4.35278 38.6346 8.35278 41.6346 14.3528 41.6346H34.3528C40.3528 41.6346 44.3528 38.6346 44.3528 31.6346V17.6346C44.3528 10.6346 40.3528 7.63458 34.3528 7.63458ZM35.2928 19.8146L29.0328 24.8146C27.7128 25.8746 26.0328 26.3946 24.3528 26.3946C22.6728 26.3946 20.9728 25.8746 19.6728 24.8146L13.4128 19.8146C12.7728 19.2946 12.6728 18.3346 13.1728 17.6946C13.6928 17.0546 14.6328 16.9346 15.2728 17.4546L21.5328 22.4546C23.0528 23.6746 25.6328 23.6746 27.1528 22.4546L33.4128 17.4546C34.0528 16.9346 35.0128 17.0346 35.5128 17.6946C36.0328 18.3346 35.9328 19.2946 35.2928 19.8146Z" fill="#292D32"/>
</svg>
