<svg width="49" height="49" viewBox="0 0 49 49" fill="none" xmlns="http://www.w3.org/2000/svg">
<path d="M34.4729 8.13H21.0329C18.2129 8.13 15.5329 9.31 13.6329 11.41L6.57289 19.17C3.75289 22.27 3.75289 26.99 6.57289 30.09L13.6329 37.85C15.5329 39.93 18.2129 41.13 21.0329 41.13H34.4729C39.9929 41.13 44.4729 36.65 44.4729 31.13V18.13C44.4729 12.61 39.9929 8.13 34.4729 8.13ZM33.5329 28.51C34.1129 29.09 34.1129 30.05 33.5329 30.63C33.2329 30.93 32.8529 31.07 32.4729 31.07C32.0929 31.07 31.7129 30.93 31.4129 30.63L27.5329 26.75L23.6529 30.63C23.3529 30.93 22.9729 31.07 22.5929 31.07C22.2129 31.07 21.8329 30.93 21.5329 30.63C20.9529 30.05 20.9529 29.09 21.5329 28.51L25.4129 24.63L21.5329 20.75C20.9529 20.17 20.9529 19.21 21.5329 18.63C22.1129 18.05 23.0729 18.05 23.6529 18.63L27.5329 22.51L31.4129 18.63C31.9929 18.05 32.9529 18.05 33.5329 18.63C34.1129 19.21 34.1129 20.17 33.5329 20.75L29.6529 24.63L33.5329 28.51Z" fill="#292D32"/>
</svg>
