<svg width="49" height="49" viewBox="0 0 49 49" fill="none" xmlns="http://www.w3.org/2000/svg">
<path d="M32.8529 4.63H16.0929C8.8129 4.63 4.4729 8.97 4.4729 16.25V32.99C4.4729 40.29 8.8129 44.63 16.0929 44.63H32.8329C40.1129 44.63 44.4529 40.29 44.4529 33.01V16.25C44.4729 8.97 40.1329 4.63 32.8529 4.63ZM34.0329 20.03L22.6929 31.37C22.4129 31.65 22.0329 31.81 21.6329 31.81C21.2329 31.81 20.8529 31.65 20.5729 31.37L14.9129 25.71C14.3329 25.13 14.3329 24.17 14.9129 23.59C15.4929 23.01 16.4529 23.01 17.0329 23.59L21.6329 28.19L31.9129 17.91C32.4929 17.33 33.4529 17.33 34.0329 17.91C34.6129 18.49 34.6129 19.43 34.0329 20.03Z" fill="#292D32"/>
</svg>
