<svg width="49" height="49" viewBox="0 0 49 49" fill="none" xmlns="http://www.w3.org/2000/svg">
<path d="M32.7328 4.63458H15.9728C8.69278 4.63458 4.35278 8.97458 4.35278 16.2546V33.0146C4.35278 38.6346 6.93278 42.4946 11.4728 43.9546C12.7928 44.4146 14.3128 44.6346 15.9728 44.6346H32.7328C34.3928 44.6346 35.9128 44.4146 37.2328 43.9546C41.7728 42.4946 44.3528 38.6346 44.3528 33.0146V16.2546C44.3528 8.97458 40.0128 4.63458 32.7328 4.63458ZM41.3528 33.0146C41.3528 37.2946 39.6728 39.9946 36.2928 41.1146C34.3528 37.2946 29.7528 34.5746 24.3528 34.5746C18.9528 34.5746 14.3728 37.2746 12.4128 41.1146H12.3928C9.05278 40.0346 7.35278 37.3146 7.35278 33.0346V16.2546C7.35278 10.6146 10.3328 7.63458 15.9728 7.63458H32.7328C38.3728 7.63458 41.3528 10.6146 41.3528 16.2546V33.0146Z" fill="#292D32"/>
<path d="M24.3528 16.6346C20.3928 16.6346 17.1928 19.8346 17.1928 23.7946C17.1928 27.7546 20.3928 30.9746 24.3528 30.9746C28.3128 30.9746 31.5128 27.7546 31.5128 23.7946C31.5128 19.8346 28.3128 16.6346 24.3528 16.6346Z" fill="#292D32"/>
</svg>
