<svg width="49" height="49" viewBox="0 0 49 49" fill="none" xmlns="http://www.w3.org/2000/svg">
<path d="M43.5929 22.11L40.8729 18.95C40.3529 18.35 39.9329 17.23 39.9329 16.43V13.03C39.9329 10.91 38.1929 9.17 36.0729 9.17H32.6729C31.8929 9.17 30.7529 8.75 30.1529 8.23L26.9929 5.51C25.6129 4.33 23.3529 4.33 21.9529 5.51L18.8129 8.25C18.2129 8.75 17.0729 9.17 16.2929 9.17H12.8329C10.7129 9.17 8.97291 10.91 8.97291 13.03V16.45C8.97291 17.23 8.55291 18.35 8.05291 18.95L5.35291 22.13C4.19291 23.51 4.19291 25.75 5.35291 27.13L8.05291 30.31C8.55291 30.91 8.97291 32.03 8.97291 32.81V36.23C8.97291 38.35 10.7129 40.09 12.8329 40.09H16.2929C17.0729 40.09 18.2129 40.51 18.8129 41.03L21.9729 43.75C23.3529 44.93 25.6129 44.93 27.0129 43.75L30.1729 41.03C30.7729 40.51 31.8929 40.09 32.6929 40.09H36.0929C38.2129 40.09 39.9529 38.35 39.9529 36.23V32.83C39.9529 32.05 40.3729 30.91 40.8929 30.31L43.6129 27.15C44.7729 25.77 44.7729 23.49 43.5929 22.11ZM32.7929 20.85L23.1329 30.51C22.8529 30.79 22.4729 30.95 22.0729 30.95C21.6729 30.95 21.2929 30.79 21.0129 30.51L16.1729 25.67C15.5929 25.09 15.5929 24.13 16.1729 23.55C16.7529 22.97 17.7129 22.97 18.2929 23.55L22.0729 27.33L30.6729 18.73C31.2529 18.15 32.2129 18.15 32.7929 18.73C33.3729 19.31 33.3729 20.27 32.7929 20.85Z" fill="#292D32"/>
</svg>
