<svg width="49" height="49" viewBox="0 0 49 49" fill="none" xmlns="http://www.w3.org/2000/svg">
<path d="M44.4728 22.051V26.171C44.4728 27.271 43.5928 28.171 42.4728 28.211H38.5529C36.3929 28.211 34.4128 26.631 34.2328 24.471C34.1128 23.211 34.5928 22.031 35.4328 21.211C36.1728 20.451 37.1928 20.011 38.3128 20.011H42.4728C43.5928 20.051 44.4728 20.951 44.4728 22.051Z" fill="#292D32"/>
<path d="M41.4129 31.211H38.5529C34.7529 31.211 31.5529 28.351 31.2329 24.711C31.0529 22.631 31.8129 20.551 33.3329 19.071C34.6129 17.751 36.3929 17.011 38.3129 17.011H41.4129C41.9929 17.011 42.4729 16.531 42.4129 15.951C41.9729 11.091 38.7529 7.77096 33.9729 7.21096C33.4929 7.13096 32.9929 7.11096 32.4729 7.11096H14.4729C13.9129 7.11096 13.3729 7.15096 12.8529 7.23096C7.7529 7.87096 4.4729 11.671 4.4729 17.111V31.111C4.4729 36.631 8.9529 41.111 14.4729 41.111H32.4729C38.0729 41.111 41.9329 37.611 42.4129 32.271C42.4729 31.691 41.9929 31.211 41.4129 31.211ZM26.4729 19.611H14.4729C13.6529 19.611 12.9729 18.931 12.9729 18.111C12.9729 17.291 13.6529 16.611 14.4729 16.611H26.4729C27.2929 16.611 27.9729 17.291 27.9729 18.111C27.9729 18.931 27.2929 19.611 26.4729 19.611Z" fill="#292D32"/>
</svg>
