<svg width="49" height="49" viewBox="0 0 49 49" fill="none" xmlns="http://www.w3.org/2000/svg">
<path d="M43.9929 32.47L31.1929 9.43001C29.4729 6.33001 27.0929 4.63 24.4729 4.63C21.8529 4.63 19.4729 6.33001 17.7529 9.43001L4.95289 32.47C3.33289 35.41 3.15289 38.23 4.45289 40.45C5.75289 42.67 8.31289 43.89 11.6729 43.89H37.2729C40.6329 43.89 43.1929 42.67 44.4929 40.45C45.7929 38.23 45.6129 35.39 43.9929 32.47ZM22.9729 18.63C22.9729 17.81 23.6529 17.13 24.4729 17.13C25.2929 17.13 25.9729 17.81 25.9729 18.63V28.63C25.9729 29.45 25.2929 30.13 24.4729 30.13C23.6529 30.13 22.9729 29.45 22.9729 28.63V18.63ZM25.8929 36.05C25.7929 36.13 25.6929 36.21 25.5929 36.29C25.4729 36.37 25.3529 36.43 25.2329 36.47C25.1129 36.53 24.9929 36.57 24.8529 36.59C24.7329 36.61 24.5929 36.63 24.4729 36.63C24.3529 36.63 24.2129 36.61 24.0729 36.59C23.9529 36.57 23.8329 36.53 23.7129 36.47C23.5929 36.43 23.4729 36.37 23.3529 36.29C23.2529 36.21 23.1529 36.13 23.0529 36.05C22.6929 35.67 22.4729 35.15 22.4729 34.63C22.4729 34.11 22.6929 33.59 23.0529 33.21C23.1529 33.13 23.2529 33.05 23.3529 32.97C23.4729 32.89 23.5929 32.83 23.7129 32.79C23.8329 32.73 23.9529 32.69 24.0729 32.67C24.3329 32.61 24.6129 32.61 24.8529 32.67C24.9929 32.69 25.1129 32.73 25.2329 32.79C25.3529 32.83 25.4729 32.89 25.5929 32.97C25.6929 33.05 25.7929 33.13 25.8929 33.21C26.2529 33.59 26.4729 34.11 26.4729 34.63C26.4729 35.15 26.2529 35.67 25.8929 36.05Z" fill="#292D32"/>
</svg>
